<?xml version="1.0" encoding="utf-8"?>
<!-- Generator: Adobe Illustrator 24.2.3, SVG Export Plug-In . SVG Version: 6.00 Build 0)  -->
<svg version="1.1" id="Capa_1" xmlns="http://www.w3.org/2000/svg" xmlns:xlink="http://www.w3.org/1999/xlink" x="0px" y="0px"
	 viewBox="0 0 1080 1080" style="enable-background:new 0 0 1080 1080;" xml:space="preserve">
<style type="text/css">
	.st0{opacity:0.4;}
	.st1{fill:#A8A9AD;}
	.st2{fill:#29AAE3;}
	.st3{fill:#093548;}
	.st4{fill:none;stroke:#093548;stroke-width:8;stroke-linecap:round;stroke-miterlimit:10;}
	.st5{fill:none;stroke:#093548;stroke-width:8;stroke-linecap:round;stroke-miterlimit:10;stroke-dasharray:35.2576,35.2576;}
	.st6{opacity:0.2;}
	.st7{fill:#9291A1;}
	.st8{fill:#FFFFFF;}
	.st9{fill:url(#SVGID_1_);}
	.st10{fill:url(#SVGID_2_);}
	.st11{fill:url(#SVGID_3_);}
	.st12{fill:url(#SVGID_4_);}
	.st13{fill:url(#SVGID_5_);}
	.st14{fill:url(#SVGID_6_);}
	.st15{fill:url(#SVGID_7_);}
	.st16{fill:url(#SVGID_8_);}
	.st17{fill:url(#SVGID_9_);}
	.st18{fill:url(#SVGID_10_);}
	.st19{fill:url(#SVGID_11_);}
</style>
<g>
	<g>
		<g class="st6">
			<path class="st2" d="M689.21,457.89c-0.9-6.44-1.44-11.97-2.46-17.42c-5.38-28.85-16.76-54.6-39.3-74.37
				c-26.03-22.83-57.61-30.94-91.07-33.43c-34.59-2.58-68.7,1.5-102.45,8.86c-6.75,1.47-12.91,1.02-19.46-1
				c-34.72-10.72-69.94-17.44-106.5-11.75c-36.73,5.71-65.93,23.34-84.58,55.89c-22.61,39.46-27.25,82.64-19.62,126.46
				c12.9,74.16,47.31,137.82,100.49,191.08c16.39,16.41,35.05,29.89,58,35.99c14.25,3.79,27.91,3.41,39.89-6.81
				c2.02-1.73,4.43-3.09,6.83-4.29c11.14-5.57,21.7-4.14,29.87,5.24c6.9,7.92,15.21,9.89,25.03,9.42
				c26.32-1.26,49.56-11.17,71.04-25.51c40.16-26.83,69.94-63.17,94.26-104.37l8.71-15.47
				C698.87,533.28,689.21,457.89,689.21,457.89z"/>
		</g>
		<g>
			<g>
				<g>
					<path class="st3" d="M733.66,467.08c-0.24-1.78-0.67-5.25-1.02-7.87c-0.42-3.19-0.85-6.38-1.44-9.55
						c-0.94-5.08-2.09-10.12-3.47-15.09c-2.86-10.3-6.76-20.4-11.82-29.82c-10.37-19.32-26.1-35.38-44.87-46.65
						c-19.21-11.54-40.94-17.4-63.01-20.28c-24.56-3.2-49.48-2.79-74.05,0.1c-13.25,1.55-26.43,3.72-39.5,6.43
						c-1.48,0.31-2.96,0.62-4.44,0.94c-0.88,0.19-1.75,0.38-2.64,0.53c-1.69,0.29-0.92,0.12-0.59,0.08
						c-2.97,0.32-6.48,0.14-8.49-0.25c-6.16-1.2-12.17-3.48-18.22-5.14c-24.2-6.62-49.38-10.94-74.54-10
						c-21.71,0.81-43.43,5.19-62.94,14.97c-17.32,8.69-31.92,21.86-42.93,37.76c-13.21,19.07-21.95,41.89-26.21,64.63
						c-4.44,23.68-4.17,47.71-0.54,71.47c6.47,42.33,21.22,83.63,42.56,120.72c10.77,18.72,23.32,36.39,37.18,52.96
						c13.94,16.67,29.07,32.95,46.88,45.55c9.18,6.5,19.19,11.74,29.79,15.52c10.87,3.88,22.47,6.14,33.98,4.22
						c5.4-0.9,10.73-2.99,15.34-5.93c2.48-1.58,5.08-3.91,6.74-5.02c1.24-0.83,2.54-1.56,3.86-2.24c0.47-0.24,0.95-0.47,1.43-0.71
						c0.84-0.38,0.95-0.43,0.33-0.17c0.46-0.18,0.93-0.36,1.4-0.52c1.13-0.39,2.29-0.72,3.47-0.96c0.45-0.09,0.91-0.18,1.37-0.25
						c-1.71,0.24,0.49,0.02,0.71,0.01c1.1-0.04,2.21-0.01,3.3,0.13c-1.8-0.23,0.32,0.13,0.58,0.2c0.64,0.16,1.25,0.38,1.88,0.56
						c1.91,0.57-1.1-0.72,0.66,0.28c0.39,0.22,0.8,0.42,1.19,0.65c0.6,0.35,1.18,0.73,1.75,1.13c-0.97-0.66,0.01-0.01,0.18,0.14
						c2.18,1.89,3.93,4.18,6.1,6.08c8.71,7.64,19.49,9.39,30.72,8.54c11.69-0.88,23.23-3.28,34.26-7.25
						c21.74-7.81,41.17-20.62,58.96-35.18c31.41-25.69,57.16-58.75,77.02-94.02c2.33-4.14,4.66-8.28,6.99-12.42
						c1.93-3.42,0.93-8.35-2.69-10.26c-3.55-1.87-8.21-0.96-10.26,2.69c-6.18,10.97-12.35,21.89-19.24,32.44
						c-2.92,4.47-5.93,8.89-9.03,13.25c-1.47,2.06-2.96,4.11-4.48,6.15c-0.76,1.02-1.52,2.03-2.28,3.03
						c-0.31,0.4-0.61,0.8-0.92,1.21c0.69-0.89-0.76,0.98-0.92,1.18c-6.46,8.24-13.31,16.18-20.56,23.73
						c-7.36,7.67-15.15,14.93-23.35,21.7c-4.45,3.67-7.16,5.77-11.85,9.15c-4.45,3.21-9,6.3-13.67,9.18
						c-4.58,2.83-9.28,5.47-14.1,7.86c-2.33,1.16-4.69,2.26-7.08,3.3c-1.35,0.59,1.6-0.64-0.72,0.31c-0.72,0.29-1.44,0.59-2.17,0.87
						c-1.33,0.52-2.67,1.02-4.01,1.5c-5.03,1.79-10.17,3.28-15.38,4.42c-5.95,1.3-9.46,1.81-15.33,2.21
						c-2.44,0.17-4.89,0.27-7.33,0.15c-0.68-0.03-1.35-0.1-2.02-0.15c-0.35-0.03-1.41-0.29,0.02,0.01c-1.28-0.26-2.55-0.49-3.8-0.87
						c-0.51-0.15-1.01-0.37-1.53-0.51c-1.15-0.32,1.48,0.8-0.29-0.12c-0.98-0.51-1.94-1-2.87-1.6c0.08,0.05-1.71-1.22-0.9-0.6
						c0.83,0.63-0.94-0.83-0.86-0.75c-1.12-1.01-2.09-2.13-3.11-3.23c-7.99-8.64-19.66-12.1-31.01-8.81
						c-5.93,1.72-11.34,4.81-16.08,8.71c-3.32,2.73-7.1,4.65-11.62,5.75c-0.69,0.17-1.39,0.3-2.09,0.44
						c-1.46,0.3-0.45,0.1-0.11,0.06c-1.18,0.16-2.37,0.24-3.55,0.28c-2.66,0.1-5.34-0.03-7.98-0.39c1.57,0.21-0.87-0.17-0.96-0.18
						c-0.5-0.09-0.99-0.18-1.48-0.28c-1.25-0.25-2.49-0.54-3.73-0.86c-2.75-0.7-5.48-1.53-8.16-2.47c-1.21-0.42-2.41-0.86-3.6-1.33
						c-0.59-0.23-1.18-0.47-1.77-0.71c-1.33-0.55,1.56,0.72-0.66-0.28c-2.53-1.14-5.03-2.33-7.48-3.63
						c-4.65-2.47-9.13-5.27-13.43-8.31c-1.02-0.73-2.04-1.46-3.04-2.22c-0.4-0.3-0.8-0.6-1.2-0.91c1.08,0.83-0.87-0.69-0.86-0.69
						c-2.17-1.73-4.29-3.52-6.37-5.36c-3.91-3.45-7.64-7.09-11.29-10.81c-7.33-7.46-14.37-15.21-21.08-23.23
						c-1.6-1.91-3.18-3.84-4.74-5.78c-0.78-0.97-1.55-1.94-2.32-2.92c-0.46-0.59-0.92-1.17-1.38-1.76c0.77,1-0.64-0.84-0.64-0.84
						c-3.15-4.12-6.21-8.31-9.18-12.56c-11.71-16.76-21.97-34.52-30.56-53.07c-1.03-2.22-2.03-4.45-3.01-6.69
						c-0.25-0.56-0.49-1.12-0.73-1.68c0.07,0.16-0.88-2.06-0.49-1.13c0.39,0.93-0.54-1.3-0.47-1.14c-0.28-0.68-0.56-1.36-0.84-2.04
						c-1.95-4.78-3.79-9.6-5.52-14.46c-3.49-9.82-6.54-19.79-9.14-29.88c-5.56-21.6-9.16-41.83-9.18-63.94
						c-0.01-5.68,0.23-11.37,0.72-17.03c0.53-6.05,1.02-9.67,2.14-15.63c2.1-11.23,5.31-22.25,9.6-32.84
						c0.82-2.02,1.72-4.07,2.91-6.6c1.31-2.8,2.7-5.57,4.16-8.3c2.39-4.47,4.97-8.84,7.85-13.02c0.64-0.93,1.3-1.86,1.97-2.77
						c0.33-0.45,0.67-0.9,1.01-1.35c1.29-1.73-0.54,0.68,0.26-0.34c1.44-1.82,2.93-3.6,4.48-5.33c3.04-3.38,6.28-6.58,9.73-9.54
						c0.81-0.7,1.63-1.38,2.46-2.06c0.5-0.4,1-0.8,1.51-1.19c-1.12,0.87-0.22,0.17,0.01,0.01c1.9-1.38,3.79-2.75,5.76-4.03
						c3.76-2.45,7.68-4.65,11.71-6.62c0.97-0.47,1.94-0.93,2.92-1.37c0.49-0.22,0.99-0.44,1.48-0.66c0.35-0.15,1.69-0.7,0.3-0.13
						c2.23-0.91,4.47-1.77,6.74-2.55c4.43-1.53,8.95-2.81,13.52-3.87c21.58-4.99,45.79-4.83,67.28-1.43
						c12.13,1.92,24.1,4.73,35.91,8.08c6.27,1.78,12.41,4,18.91,4.81c6.55,0.82,12.77-0.41,19.16-1.74
						c24.41-5.1,48.21-8.28,73.33-8.41c11.89-0.06,23.81,0.57,35.61,2.04c0.5,0.06,1,0.13,1.51,0.19c-1.52-0.2,0.95,0.14,1.01,0.15
						c1.25,0.18,2.49,0.37,3.73,0.58c2.72,0.44,5.43,0.94,8.13,1.5c4.98,1.03,9.93,2.28,14.8,3.77c2.36,0.72,4.71,1.5,7.03,2.34
						c1.16,0.42,2.32,0.86,3.47,1.31c0.58,0.23,1.15,0.46,1.72,0.69c1.58,0.63-0.48-0.23,0.94,0.4c4.79,2.12,9.46,4.45,13.96,7.12
						c2.17,1.29,4.31,2.64,6.4,4.06c2.4,1.64,4.33,3.05,5.93,4.32c4.17,3.33,8.12,6.94,11.78,10.82c1.68,1.78,3.3,3.61,4.85,5.5
						c0.39,0.47,0.77,0.94,1.14,1.41c0.19,0.23,1.14,1.47,0.38,0.48c0.87,1.15,1.72,2.31,2.55,3.49c2.87,4.1,5.46,8.39,7.77,12.83
						c1.1,2.11,2.14,4.25,3.11,6.42c0.2,0.43,0.39,0.87,0.58,1.31c0.96,2.15-0.52-1.34,0.36,0.84c0.49,1.22,0.98,2.44,1.45,3.67
						c1.79,4.75,3.32,9.59,4.62,14.49c1.27,4.76,2.34,9.59,3.19,14.44c0.22,1.25,0.41,2.5,0.6,3.76c0.09,0.64,0.18,1.27,0.27,1.91
						c-0.16-1.22,0.06,0.45,0.09,0.74c0.43,3.3,0.85,6.6,1.3,9.9c0.54,3.9,5.72,6.37,9.23,5.24
						C732.71,474.92,734.24,471.27,733.66,467.08L733.66,467.08z"/>
				</g>
			</g>
			<g>
				<g>
					<path class="st3" d="M491.46,291.61c2.05,0.01,4-0.01,6.04-0.24c2.46-0.28,4.93-0.54,7.39-0.81c4.93-0.53,9.86-1.04,14.79-1.57
						c10.44-1.12,20.87-2.33,31.27-3.82c17.78-2.55,35.24-6.8,52.12-12.96c16.97-6.19,33.71-13.94,48.99-23.62
						c7.18-4.54,14.04-9.87,19.7-16.23c3-3.38,5.77-7.03,8.11-10.89c1.78-2.94,3.93-6.25,4.71-9.62c0.97-4.14-0.21-8.41-3.47-11.23
						c-3.05-2.64-6.67-4.6-10.18-6.54c-8.08-4.46-16.6-8.23-25.35-11.18c-16.71-5.63-34.6-8.02-52.21-7.27
						c-14.89,0.63-29.94,3.15-43.82,8.71c-12.31,4.93-23.65,11.82-33.22,21.06c-8.76,8.46-15.91,18.72-20.95,29.79
						c-5.69,12.49-8.99,25.59-10.6,39.19c-0.38,3.23-0.65,6.48-0.83,9.73C483.75,288.04,487.56,291.79,491.46,291.61
						c4.24-0.19,7.28-3.3,7.5-7.5c0.21-3.96,0.57-7.9,1.09-11.83c-0.09,0.66-0.18,1.33-0.27,1.99c1.42-10.48,4.02-20.81,8.11-30.57
						c-0.25,0.6-0.5,1.19-0.76,1.79c1.8-4.27,3.88-8.41,6.25-12.39c1.17-1.96,2.41-3.87,3.72-5.74c0.64-0.91,1.29-1.81,1.97-2.69
						c1.07-1.4-1.2,1.53-0.11,0.14c0.42-0.53,0.84-1.06,1.27-1.58c2.87-3.47,6-6.72,9.37-9.7c0.84-0.74,1.69-1.47,2.56-2.19
						c0.38-0.31,0.76-0.62,1.14-0.92c0.23-0.18,0.46-0.36,0.69-0.55c-2.1,1.67-0.83,0.64-0.35,0.28c1.82-1.37,3.7-2.67,5.63-3.9
						c4.58-2.93,9.42-5.43,14.43-7.55c-0.6,0.25-1.19,0.5-1.79,0.76c9.57-4.01,19.68-6.54,29.95-7.93
						c-0.66,0.09-1.33,0.18-1.99,0.27c12.76-1.69,25.72-1.77,38.48-0.07c-0.66-0.09-1.33-0.18-1.99-0.27
						c11.99,1.63,23.7,4.86,34.86,9.54c-0.6-0.25-1.19-0.5-1.79-0.76c5.03,2.13,9.94,4.53,14.71,7.2c2.08,1.16,4.16,2.34,6.15,3.65
						c0.34,0.22,0.67,0.47,1,0.7c0.69,0.47-1.59-1.35-0.86-0.66c0.1,0.1,0.22,0.19,0.32,0.29c0.71,0.66,0.68,1.31-0.4-0.67
						c0.13,0.24,0.29,0.46,0.41,0.71c-0.25-0.6-0.5-1.19-0.76-1.79c0.1,0.24,0.17,0.49,0.21,0.75c-0.09-0.66-0.18-1.33-0.27-1.99
						c0.04,0.33,0.03,0.65,0,0.98c0.09-0.66,0.18-1.33,0.27-1.99c-0.1,0.68-0.33,1.31-0.59,1.95c0.25-0.6,0.5-1.19,0.76-1.79
						c-0.85,1.95-1.95,3.79-3.03,5.62c-0.66,1.11-1.35,2.21-2.07,3.28c-0.34,0.5-0.69,1-1.04,1.49c-0.34,0.48-2.03,2.47-0.39,0.57
						c-3.31,3.85-6.61,7.52-10.52,10.79c-0.51,0.42-1.02,0.84-1.54,1.26c-0.21,0.16-0.42,0.32-0.62,0.49
						c1.61-1.38,0.84-0.65,0.41-0.32c-1.06,0.8-2.14,1.58-3.23,2.34c-2.15,1.49-4.35,2.9-6.6,4.24c-4.85,2.9-9.81,5.63-14.83,8.21
						c-5.79,2.97-11.69,5.73-17.69,8.27c0.6-0.25,1.19-0.5,1.79-0.76c-16.88,7.12-34.5,12.44-52.52,15.78
						c-5.37,1-10.78,1.79-16.2,2.52c0.66-0.09,1.33-0.18,1.99-0.27c-9.01,1.21-18.04,2.21-27.08,3.17
						c-4.44,0.47-8.88,0.94-13.31,1.42c-2.3,0.25-4.6,0.5-6.9,0.76c-1.87,0.21-3.67,0.2-5.54,0.18c-3.92-0.02-7.68,3.47-7.5,7.5
						C484.15,288.2,487.26,291.59,491.46,291.61z"/>
				</g>
			</g>
			<g>
				<g>
					<path class="st3" d="M488.85,355.54c1.17-2.92,2.05-5.99,2.88-9.02c2.36-8.65,3.88-17.5,4.93-26.4
						c1.42-12.09,1.63-24.32,0.65-36.45c-1.27-15.86-4.36-31.58-9.42-46.67c-6.05-18.08-14.65-35.31-25.33-51.1
						c-1.47-2.18-2.99-4.33-4.53-6.45c-1.18-1.63-2.48-2.89-4.48-3.45c-1.8-0.49-4.19-0.27-5.78,0.76
						c-3.14,2.02-5.16,6.87-2.69,10.26c9.53,13.11,17.66,27.21,23.97,42.15c-0.25-0.6-0.5-1.19-0.76-1.79
						c5.16,12.29,9.07,25.1,11.57,38.19c0.65,3.4,1.2,6.82,1.66,10.25c-0.09-0.66-0.18-1.33-0.27-1.99
						c1.77,13.31,2.12,26.8,1.01,40.19c-0.26,3.09-0.59,6.16-1.01,9.23c0.09-0.66,0.18-1.33,0.27-1.99
						c-1.31,9.69-3.29,19.42-6.54,28.67c-0.19,0.55-0.39,1.09-0.6,1.63c-0.68,1.69-0.12,4.28,0.76,5.78
						c0.91,1.56,2.69,3.04,4.48,3.45c1.92,0.44,4.07,0.34,5.78-0.76C487.15,358.89,488.08,357.45,488.85,355.54L488.85,355.54z"/>
				</g>
			</g>
			<g>
				<g>
					<path class="st3" d="M691.41,391.22c7.58,0,15.15,0,22.73,0c14.21,0,28.42,0,42.63,0c7.77,0,15.54-0.1,23.31,0
						c0.54,0.01,1.07,0.03,1.61,0.06c0.66,0.04,1.32,0.1,1.99,0.16c0.4,0.04,0.79,0.1,1.18,0.13c1.03,0.09-2.18-0.33-1.13-0.15
						c0.27,0.04,0.53,0.08,0.8,0.12c2.26,0.35,4.5,0.83,6.69,1.46c1.28,0.36,2.54,0.77,3.79,1.23c0.62,0.23,1.24,0.56,1.87,0.73
						c-0.64-0.17-1.63-0.73-0.53-0.21c0.37,0.17,0.74,0.34,1.1,0.51c1.34,0.65,2.66,1.36,3.93,2.15c0.63,0.39,1.24,0.8,1.85,1.22
						c0.31,0.21,0.6,0.44,0.91,0.66c0.94,0.66-1.37-1.14-0.18-0.12c1.23,1.06,2.43,2.14,3.54,3.33c0.32,0.34,0.63,0.69,0.93,1.05
						c0.19,0.23,1.07,1.37,0.31,0.34c-0.76-1.03,0.1,0.15,0.28,0.4c0.28,0.4,0.56,0.8,0.82,1.21c1,1.54,1.78,3.16,2.59,4.8
						c0.35,0.71-0.31-0.75-0.31-0.74c-0.01,0.17,0.2,0.49,0.25,0.65c0.16,0.44,0.33,0.88,0.48,1.33c0.34,1,0.64,2.02,0.9,3.04
						c0.25,1,0.47,2,0.65,3.01c0.09,0.5,0.26,1.08,0.25,1.58c0.03-1.53-0.06-0.34,0.02,0.48c0.23,2.5,0.27,5.01,0.17,7.51
						c-0.05,1.2-0.13,2.4-0.25,3.6c-0.08,0.79-0.24,1.62-0.01,0.29c-0.11,0.64-0.2,1.28-0.32,1.92c-0.4,2.14-0.93,4.26-1.63,6.32
						c-0.16,0.47-0.32,0.93-0.5,1.39c-0.08,0.23-0.19,0.45-0.26,0.68c-0.25,0.76,0.28-0.67,0.3-0.68c-0.56,0.49-0.94,2.04-1.3,2.73
						c-0.85,1.63-1.83,3.18-2.89,4.69c-0.85,1.21-0.26-0.14,0.16-0.17c-0.16,0.01-0.67,0.82-0.79,0.97
						c-0.57,0.67-1.16,1.33-1.77,1.96c-1.13,1.17-2.34,2.25-3.59,3.29c-0.91,0.76-0.35,0.09,0.33-0.25
						c-0.31,0.16-0.61,0.45-0.9,0.66c-0.64,0.46-1.29,0.89-1.96,1.31c-1.22,0.77-2.47,1.48-3.75,2.14c-0.58,0.3-1.17,0.58-1.76,0.86
						c-0.29,0.13-0.58,0.25-0.87,0.39c-0.99,0.47,1.86-0.74,0.52-0.22c-1.11,0.43-2.22,0.86-3.35,1.23
						c-1.77,0.58-3.58,1.07-5.41,1.45c-0.6,0.12-1.2,0.23-1.8,0.33c-1.78,0.32,1.91-0.05,0.92-0.12c-0.11-0.01-0.24,0.02-0.36,0.02
						c-2.77-0.06-5.54,0-8.31,0c-6.31,0-12.62,0-18.94,0c-9.23,0-18.46,0-27.7,0c-11.59,0-23.18,0-34.76,0c-13.2,0-26.4,0-39.6,0
						c-14.24,0-28.47,0-42.71,0c-14.72,0-29.44,0-44.16,0c-14.43,0-28.86,0-43.28,0c-13.58,0-27.16,0-40.75,0
						c-12.17,0-24.33,0-36.5,0c-10,0-20,0-29.99,0c-7.27,0-14.54,0-21.81,0c-3.92,0-7.85,0-11.77,0c-0.49,0-0.99,0-1.48,0
						c-4.05,0-7.5,3.44-7.5,7.5c0,15.59,0,31.18,0,46.77c0,24.81,0,49.62,0,74.43c0,5.64,0,11.29,0,16.93c0,4.05,3.44,7.5,7.5,7.5
						c6.53,0,13.05,0,19.58,0c16.84,0,33.69,0,50.53,0c23.45,0,46.89,0,70.34,0c25.98,0,51.96,0,77.95,0c24.69,0,49.37,0,74.06,0
						c19.5,0,38.99,0,58.49,0c10.42,0,20.83,0,31.25,0c8.28,0,16.51-0.91,24.38-3.65c11.29-3.92,21-10.65,28.25-20.19
						c9.75-12.83,13.1-29.41,13.21-45.23c0.27-38.08,0-76.16,0-114.24c0-1.96,0-3.93,0-5.89c0-3.92-3.45-7.68-7.5-7.5
						c-4.06,0.18-7.5,3.3-7.5,7.5c0,27.72,0,55.44,0,83.16c0,12.32,0.08,24.65,0,36.97c-0.02,2.33-0.1,4.66-0.27,6.98
						c-0.07,1-0.16,2-0.27,2.99c-0.06,0.58-0.14,1.16-0.2,1.74c0.23-2.01,0-0.07-0.05,0.27c-0.59,3.8-1.46,7.56-2.66,11.22
						c-0.3,0.91-0.62,1.82-0.96,2.72c-0.11,0.29-0.23,0.58-0.34,0.88c-0.59,1.57,0.72-1.59,0.04-0.09
						c-0.73,1.62-1.49,3.21-2.36,4.76c-0.68,1.22-1.41,2.41-2.2,3.57c-0.41,0.62-0.85,1.22-1.29,1.82c-0.7,0.98,0.27,0.24,0.33-0.41
						c-0.03,0.31-0.78,0.97-0.99,1.22c-1.76,2.1-3.7,4.04-5.79,5.81c-0.42,0.36-1.03,0.7-1.38,1.13c1.15-1.39,1.07-0.81,0.4-0.32
						c-0.28,0.2-0.56,0.41-0.85,0.61c-1.02,0.72-2.07,1.4-3.14,2.04c-2.04,1.22-4.15,2.25-6.31,3.23c-1.19,0.54,1.87-0.74,0.65-0.28
						c-0.28,0.11-0.56,0.23-0.85,0.34c-0.46,0.18-0.93,0.35-1.4,0.52c-1,0.36-2,0.69-3.02,0.99c-1.93,0.58-3.89,1.06-5.87,1.45
						c-0.77,0.15-1.53,0.29-2.31,0.41c-0.43,0.07-0.87,0.11-1.29,0.19c-0.23,0.04,2.34-0.28,1.37-0.19c-0.27,0.03-0.53,0.07-0.8,0.1
						c-2.37,0.27-4.74,0.37-7.13,0.35c-8.14-0.05-16.27,0-24.41,0c-17.82,0-35.64,0-53.46,0c-23.79,0-47.57,0-71.36,0
						c-25.89,0-51.78,0-77.66,0c-24.1,0-48.2,0-72.3,0c-18.67,0-37.35,0-56.02,0c-9.23,0-18.45,0-27.68,0c-0.41,0-0.81,0-1.22,0
						c2.5,2.5,5,5,7.5,7.5c0-15.59,0-31.18,0-46.77c0-24.81,0-49.62,0-74.43c0-5.64,0-11.29,0-16.93c-2.5,2.5-5,5-7.5,7.5
						c2.1,0,4.2,0,6.3,0c5.83,0,11.65,0,17.48,0c8.96,0,17.92,0,26.88,0c11.42,0,22.83,0,34.25,0c13.15,0,26.3,0,39.44,0
						c14.36,0,28.72,0,43.08,0c14.85,0,29.71,0,44.56,0c14.62,0,29.24,0,43.86,0c13.88,0,27.76,0,41.64,0c12.41,0,24.82,0,37.23,0
						c10.29,0,20.57,0,30.86,0c7.48,0,14.96,0,22.44,0c4.09,0,8.18,0,12.28,0c3.36,0,6.68-0.65,9.91-1.56
						c12.98-3.62,24.91-11.82,31.44-23.8c4.85-8.9,6.76-19.27,6.34-29.34c-0.38-9.07-2.7-18.44-8.13-25.86
						c-7.86-10.77-20.04-17.23-33.09-19.28c-5.1-0.8-9.9-0.88-15.03-0.88c-12.69,0-25.38,0-38.07,0c-12.62,0-25.25,0-37.87,0
						c-2.08,0-4.16,0-6.25,0c-3.92,0-7.68,3.45-7.5,7.5C684.09,387.79,687.21,391.22,691.41,391.22L691.41,391.22z"/>
				</g>
			</g>
			<g>
				<g>
					<path class="st3" d="M436.99,469.97c0,8.66,0,17.32,0,25.99c0,13.7,0,27.4,0,41.1c0,3.15,0,6.3,0,9.45
						c0,3.92,3.45,7.68,7.5,7.5c4.06-0.18,7.5-3.3,7.5-7.5c0-8.66,0-17.32,0-25.99c0-13.7,0-27.4,0-41.1c0-3.15,0-6.3,0-9.45
						c0-3.92-3.45-7.68-7.5-7.5C440.43,462.65,436.99,465.76,436.99,469.97L436.99,469.97z"/>
				</g>
			</g>
			<g>
				<g>
					<path class="st3" d="M760.17,469.97c0,8.66,0,17.32,0,25.99c0,13.7,0,27.4,0,41.1c0,3.15,0,6.3,0,9.45
						c0,3.92,3.45,7.68,7.5,7.5c4.06-0.18,7.5-3.3,7.5-7.5c0-8.66,0-17.32,0-25.99c0-13.7,0-27.4,0-41.1c0-3.15,0-6.3,0-9.45
						c0-3.92-3.45-7.68-7.5-7.5C763.61,462.65,760.17,465.76,760.17,469.97L760.17,469.97z"/>
				</g>
			</g>
			<g>
				<g>
					<path class="st3" d="M501.51,469.97c0,8.66,0,17.32,0,25.99c0,13.7,0,27.4,0,41.1c0,3.15,0,6.3,0,9.45
						c0,3.92,3.45,7.68,7.5,7.5c4.06-0.18,7.5-3.3,7.5-7.5c0-8.66,0-17.32,0-25.99c0-13.7,0-27.4,0-41.1c0-3.15,0-6.3,0-9.45
						c0-3.92-3.45-7.68-7.5-7.5C504.95,462.65,501.51,465.76,501.51,469.97L501.51,469.97z"/>
				</g>
			</g>
			<g>
				<g>
					<path class="st3" d="M695.27,469.97c0,8.66,0,17.32,0,25.99c0,13.7,0,27.4,0,41.1c0,3.15,0,6.3,0,9.45
						c0,3.92,3.45,7.68,7.5,7.5c4.06-0.18,7.5-3.3,7.5-7.5c0-8.66,0-17.32,0-25.99c0-13.7,0-27.4,0-41.1c0-3.15,0-6.3,0-9.45
						c0-3.92-3.45-7.68-7.5-7.5C698.71,462.65,695.27,465.76,695.27,469.97L695.27,469.97z"/>
				</g>
			</g>
			<g>
				<g>
					<path class="st3" d="M562.4,469.97c0,8.66,0,17.32,0,25.99c0,13.7,0,27.4,0,41.1c0,3.15,0,6.3,0,9.45c0,3.92,3.45,7.68,7.5,7.5
						c4.06-0.18,7.5-3.3,7.5-7.5c0-8.66,0-17.32,0-25.99c0-13.7,0-27.4,0-41.1c0-3.15,0-6.3,0-9.45c0-3.92-3.45-7.68-7.5-7.5
						C565.83,462.65,562.4,465.76,562.4,469.97L562.4,469.97z"/>
				</g>
			</g>
			<g>
				<g>
					<path class="st3" d="M626.92,469.97c0,8.66,0,17.32,0,25.99c0,13.7,0,27.4,0,41.1c0,3.15,0,6.3,0,9.45
						c0,3.92,3.45,7.68,7.5,7.5c4.06-0.18,7.5-3.3,7.5-7.5c0-8.66,0-17.32,0-25.99c0-13.7,0-27.4,0-41.1c0-3.15,0-6.3,0-9.45
						c0-3.92-3.45-7.68-7.5-7.5C630.36,462.65,626.92,465.76,626.92,469.97L626.92,469.97z"/>
				</g>
			</g>
		</g>
	</g>
</g>
</svg>
