<?xml version="1.0" encoding="utf-8"?>
<!-- Generator: Adobe Illustrator 24.2.3, SVG Export Plug-In . SVG Version: 6.00 Build 0)  -->
<svg version="1.1" id="Capa_1" xmlns="http://www.w3.org/2000/svg" xmlns:xlink="http://www.w3.org/1999/xlink" x="0px" y="0px"
	 viewBox="0 0 1080 1080" style="enable-background:new 0 0 1080 1080;" xml:space="preserve">
<style type="text/css">
	.st0{opacity:0.4;}
	.st1{fill:#A8A9AD;}
	.st2{fill:#29AAE3;}
	.st3{fill:#093548;}
	.st4{fill:none;stroke:#093548;stroke-width:8;stroke-linecap:round;stroke-miterlimit:10;}
	.st5{fill:none;stroke:#093548;stroke-width:8;stroke-linecap:round;stroke-miterlimit:10;stroke-dasharray:35.2576,35.2576;}
	.st6{opacity:0.2;}
	.st7{fill:#9291A1;}
	.st8{fill:#FFFFFF;}
	.st9{fill:url(#SVGID_1_);}
	.st10{fill:url(#SVGID_2_);}
	.st11{fill:url(#SVGID_3_);}
	.st12{fill:url(#SVGID_4_);}
	.st13{fill:url(#SVGID_5_);}
	.st14{fill:url(#SVGID_6_);}
	.st15{fill:url(#SVGID_7_);}
	.st16{fill:url(#SVGID_8_);}
	.st17{fill:url(#SVGID_9_);}
	.st18{fill:url(#SVGID_10_);}
	.st19{fill:url(#SVGID_11_);}
</style>
<g class="st6">
	<path class="st2" d="M422.21,699.51h-0.91V542.44c0-37.15-30.39-67.54-67.54-67.54h-88.23c-37.15,0-67.54,30.39-67.54,67.54v157.07
		h-0.91c-18.07,0-32.85,14.78-32.85,32.85v40.77c0,18.07,14.78,32.85,32.85,32.85h225.12c18.07,0,32.85-14.78,32.85-32.85v-40.77
		C455.06,714.29,440.28,699.51,422.21,699.51z"/>
</g>
<g class="st6">
	<path class="st2" d="M835.21,699.51h-0.91V542.44c0-37.15-30.39-67.54-67.54-67.54h-88.23c-37.15,0-67.54,30.39-67.54,67.54v157.07
		h-0.91c-18.07,0-32.85,14.78-32.85,32.85v40.77c0,18.07,14.78,32.85,32.85,32.85h225.12c18.07,0,32.85-14.78,32.85-32.85v-40.77
		C868.06,714.29,853.28,699.51,835.21,699.51z"/>
</g>
<g class="st6">
	<circle class="st2" cx="519.65" cy="273.43" r="136.32"/>
</g>
<g>
	<g>
		<g>
			<path class="st3" d="M669.27,273.52c-0.01,6.08-0.41,12.16-1.2,18.19c0.11-0.8,0.21-1.6,0.32-2.39
				c-1.61,11.93-4.78,23.61-9.44,34.71c0.3-0.72,0.6-1.43,0.91-2.15c-4.58,10.83-10.55,21.04-17.73,30.36
				c0.47-0.61,0.94-1.21,1.41-1.82c-7.16,9.24-15.46,17.54-24.7,24.7c0.61-0.47,1.21-0.94,1.82-1.41
				c-9.32,7.18-19.53,13.14-30.36,17.73c0.72-0.3,1.43-0.6,2.15-0.91c-11.1,4.66-22.78,7.83-34.71,9.44c0.8-0.11,1.6-0.21,2.39-0.32
				c-12.07,1.59-24.31,1.59-36.38,0c0.8,0.11,1.6,0.21,2.39,0.32c-11.93-1.61-23.61-4.78-34.71-9.44c0.72,0.3,1.43,0.6,2.15,0.91
				c-10.83-4.58-21.04-10.55-30.36-17.73c0.61,0.47,1.21,0.94,1.82,1.41c-9.24-7.16-17.54-15.46-24.7-24.7
				c0.47,0.61,0.94,1.21,1.41,1.82c-7.18-9.32-13.14-19.53-17.73-30.36c0.3,0.72,0.6,1.43,0.91,2.15
				c-4.66-11.1-7.83-22.78-9.44-34.71c0.11,0.8,0.21,1.6,0.32,2.39c-1.59-12.07-1.59-24.31,0-36.38c-0.11,0.8-0.21,1.6-0.32,2.39
				c1.61-11.93,4.78-23.61,9.44-34.71c-0.3,0.72-0.6,1.43-0.91,2.15c4.58-10.83,10.55-21.04,17.73-30.36
				c-0.47,0.61-0.94,1.21-1.41,1.82c7.16-9.24,15.46-17.54,24.7-24.7c-0.61,0.47-1.21,0.94-1.82,1.41
				c9.32-7.18,19.53-13.14,30.36-17.73c-0.72,0.3-1.43,0.6-2.15,0.91c11.1-4.66,22.78-7.83,34.71-9.44c-0.8,0.11-1.6,0.21-2.39,0.32
				c12.07-1.59,24.31-1.59,36.38,0c-0.8-0.11-1.6-0.21-2.39-0.32c11.93,1.61,23.61,4.78,34.71,9.44c-0.72-0.3-1.43-0.6-2.15-0.91
				c10.83,4.58,21.04,10.55,30.36,17.73c-0.61-0.47-1.21-0.94-1.82-1.41c9.24,7.16,17.54,15.46,24.7,24.7
				c-0.47-0.61-0.94-1.21-1.41-1.82c7.18,9.32,13.14,19.53,17.73,30.36c-0.3-0.72-0.6-1.43-0.91-2.15
				c4.66,11.1,7.83,22.78,9.44,34.71c-0.11-0.8-0.21-1.6-0.32-2.39C668.86,261.37,669.26,267.44,669.27,273.52
				c0.01,4.71,4.13,9.22,9,9c4.87-0.22,9.01-3.95,9-9c-0.02-15.04-2.31-30.23-6.96-44.54c-4.49-13.83-11-27.09-19.44-38.94
				c-8.84-12.42-19.32-23.19-31.41-32.46c-11.57-8.86-24.47-15.73-38.14-20.75c-14.06-5.16-29.04-7.95-44-8.53
				c-15.1-0.59-30.46,1.25-45.01,5.37c-14,3.97-27.55,10.1-39.71,18.09c-12.08,7.94-23.1,17.61-32.3,28.78
				c-9.72,11.8-17.4,24.72-23.2,38.86c-5.68,13.83-8.91,28.54-10.06,43.43c-1.18,15.15,0.17,30.58,3.75,45.34
				c3.44,14.18,9.16,27.97,16.72,40.45c7.48,12.35,16.86,23.71,27.66,33.29c10.82,9.6,22.99,17.72,36.19,23.68
				c6.97,3.15,14.12,5.87,21.49,7.93c7.59,2.12,15.33,3.49,23.15,4.4c15.17,1.77,30.59,0.92,45.54-2.11
				c14.37-2.91,28.35-8.19,41.15-15.32c12.62-7.02,24.29-16.06,34.26-26.51c9.95-10.43,18.48-22.38,24.9-35.29
				c6.58-13.22,11.29-27.38,13.52-41.99c1.18-7.68,1.88-15.4,1.9-23.18c0.01-4.71-4.14-9.22-9-9
				C673.39,264.74,669.28,268.48,669.27,273.52z"/>
		</g>
	</g>
	<g>
		<g>
			<path class="st3" d="M533.6,213.15c0,7.58,0,15.15,0,22.73c0,11.17,0,22.34,0,33.51c0,4.06-0.44,7.94,2.72,11.23
				c1.77,1.84,3.61,3.61,5.42,5.42c8.13,8.13,16.25,16.25,24.38,24.38c5.95,5.95,11.85,11.96,17.85,17.85c0.1,0.1,0.2,0.2,0.3,0.3
				c3.33,3.33,9.44,3.58,12.73,0c3.3-3.59,3.56-9.17,0-12.73c-5.4-5.4-10.8-10.8-16.2-16.2c-8.64-8.64-17.28-17.28-25.92-25.92
				c-1.97-1.97-3.95-3.95-5.92-5.92c0.88,2.12,1.76,4.24,2.64,6.36c0-6.86,0-13.72,0-20.57c0-10.98,0-21.95,0-32.93
				c0-2.51,0-5.01,0-7.52c0-4.71-4.14-9.22-9-9C537.72,204.37,533.6,208.11,533.6,213.15L533.6,213.15z"/>
		</g>
	</g>
	<g>
		<g>
			<g>
				<path class="st3" d="M446.13,801.08c-2.04,0-4.08,0-6.13,0c-5.55,0-11.1,0-16.66,0c-8.2,0-16.4,0-24.6,0
					c-9.99,0-19.98,0-29.96,0c-10.91,0-21.83,0-32.74,0c-10.98,0-21.96,0-32.93,0c-10.18,0-20.36,0-30.54,0c-8.52,0-17.04,0-25.56,0
					c-6,0-12,0-18,0c-2.62,0-5.24,0.01-7.85,0c-1.54-0.01-3.06-0.1-4.58-0.3c0.8,0.11,1.6,0.21,2.39,0.32
					c-2.87-0.41-5.64-1.17-8.31-2.29c0.72,0.3,1.43,0.6,2.15,0.91c-2.6-1.12-5.03-2.55-7.29-4.28c0.61,0.47,1.21,0.94,1.82,1.41
					c-2.22-1.74-4.2-3.72-5.94-5.94c0.47,0.61,0.94,1.21,1.41,1.82c-1.72-2.25-3.15-4.68-4.28-7.29c0.3,0.72,0.6,1.43,0.91,2.15
					c-1.12-2.67-1.88-5.45-2.29-8.31c0.11,0.8,0.21,1.6,0.32,2.39c-0.75-5.76-0.3-11.79-0.3-17.58c0-7.93,0-15.86,0-23.79
					c0-2.77-0.06-5.53,0.3-8.28c-0.11,0.8-0.21,1.6-0.32,2.39c0.41-2.87,1.17-5.64,2.29-8.31c-0.3,0.72-0.6,1.43-0.91,2.15
					c1.12-2.6,2.55-5.03,4.28-7.29c-0.47,0.61-0.94,1.21-1.41,1.82c1.74-2.22,3.72-4.2,5.94-5.94c-0.61,0.47-1.21,0.94-1.82,1.41
					c2.25-1.72,4.68-3.15,7.29-4.28c-0.72,0.3-1.43,0.6-2.15,0.91c2.67-1.12,5.45-1.88,8.31-2.29c-0.8,0.11-1.6,0.21-2.39,0.32
					c3.17-0.41,6.39-0.3,9.58-0.3c5.34,0,10.68,0,16.02,0c8.14,0,16.29,0,24.43,0c9.99,0,19.98,0,29.97,0c10.98,0,21.96,0,32.94,0
					c11.09,0,22.18,0,33.26,0c10.31,0,20.62,0,30.93,0c8.65,0,17.3,0,25.95,0c6.1,0,12.21,0,18.31,0c2.68,0,5.35-0.01,8.03,0
					c1.54,0.01,3.06,0.1,4.58,0.3c-0.8-0.11-1.6-0.21-2.39-0.32c2.87,0.41,5.64,1.17,8.31,2.29c-0.72-0.3-1.43-0.6-2.15-0.91
					c2.6,1.12,5.03,2.55,7.29,4.28c-0.61-0.47-1.21-0.94-1.82-1.41c2.22,1.74,4.2,3.72,5.94,5.94c-0.47-0.61-0.94-1.21-1.41-1.82
					c1.72,2.25,3.15,4.68,4.28,7.29c-0.3-0.72-0.6-1.43-0.91-2.15c1.12,2.67,1.88,5.45,2.29,8.31c-0.11-0.8-0.21-1.6-0.32-2.39
					c0.75,5.76,0.3,11.79,0.3,17.58c0,7.93,0,15.86,0,23.79c0,2.77,0.06,5.53-0.3,8.28c0.11-0.8,0.21-1.6,0.32-2.39
					c-0.41,2.87-1.17,5.64-2.29,8.31c0.3-0.72,0.6-1.43,0.91-2.15c-1.12,2.6-2.55,5.03-4.28,7.29c0.47-0.61,0.94-1.21,1.41-1.82
					c-1.74,2.22-3.72,4.2-5.94,5.94c0.61-0.47,1.21-0.94,1.82-1.41c-2.25,1.72-4.68,3.15-7.29,4.28c0.72-0.3,1.43-0.6,2.15-0.91
					c-2.67,1.12-5.45,1.88-8.31,2.29c0.8-0.11,1.6-0.21,2.39-0.32C449.1,800.97,447.62,801.07,446.13,801.08
					c-4.71,0.03-9.22,4.12-9,9c0.22,4.85,3.96,9.03,9,9c6.74-0.04,13.22-1.69,19.23-4.72c5.83-2.94,10.61-7.39,14.53-12.55
					c5.67-7.47,8.1-16.65,8.1-25.93c0-12.53,0-25.06,0-37.59c0-9.04-2.05-18.05-7.41-25.49c-7.75-10.76-19.48-17.48-32.81-18.15
					c-4.27-0.21-8.58-0.04-12.85-0.04c-10.04,0-20.09,0-30.13,0c-13.96,0-27.91,0-41.87,0c-15.47,0-30.95,0-46.42,0
					c-14.6,0-29.19,0-43.79,0c-11.32,0-22.65,0-33.97,0c-5.66,0-11.31,0-16.97,0c-7.18,0-14.12,1.63-20.49,4.98
					c-10.69,5.63-19,16.54-21.23,28.46c-1.09,5.85-0.88,11.71-0.88,17.63c0,7.36,0,14.72,0,22.07c0,5.87-0.21,11.67,0.81,17.49
					c2.09,11.96,10.34,22.92,20.96,28.67c6.42,3.47,13.5,5.16,20.79,5.16c1.93,0,3.86,0,5.79,0c8.74,0,17.47,0,26.21,0
					c13.23,0,26.46,0,39.69,0c15.33,0,30.65,0,45.98,0c15.03,0,30.06,0,45.09,0c12.34,0,24.67,0,37.01,0c7.25,0,14.5,0,21.75,0
					c0.97,0,1.94,0,2.91,0c4.71,0,9.22-4.14,9-9C454.91,805.2,451.18,801.08,446.13,801.08z"/>
			</g>
		</g>
		<g>
			<g>
				<path class="st3" d="M230.92,703.59c0-5.49,0-10.98,0-16.48c0-13.08,0-26.16,0-39.23c0-15.53,0-31.05,0-46.58
					c0-12.94,0-25.89,0-38.83c0-5.66-0.08-11.32,0.01-16.97c0.04-2.66,0.25-5.32,0.6-7.96c-0.11,0.8-0.21,1.6-0.32,2.39
					c0.81-5.92,2.4-11.7,4.73-17.21c-0.3,0.72-0.6,1.43-0.91,2.15c2.26-5.28,5.17-10.25,8.66-14.81c-0.47,0.61-0.94,1.21-1.41,1.82
					c3.63-4.69,7.83-8.9,12.52-12.52c-0.61,0.47-1.21,0.94-1.82,1.41c4.56-3.49,9.53-6.4,14.81-8.66c-0.72,0.3-1.43,0.6-2.15,0.91
					c5.51-2.32,11.28-3.91,17.21-4.73c-0.8,0.11-1.6,0.21-2.39,0.32c5.14-0.68,10.27-0.6,15.44-0.6c7.34,0,14.68,0,22.02,0
					c9.34,0,18.67,0,28.01,0c7.77,0,15.54,0,23.31,0c4.21,0,8.46-0.13,12.67,0.13c1.61,0.1,3.22,0.26,4.82,0.47
					c-0.8-0.11-1.6-0.21-2.39-0.32c5.92,0.81,11.7,2.4,17.21,4.73c-0.72-0.3-1.43-0.6-2.15-0.91c5.28,2.26,10.25,5.17,14.81,8.66
					c-0.61-0.47-1.21-0.94-1.82-1.41c4.69,3.63,8.9,7.83,12.52,12.52c-0.47-0.61-0.94-1.21-1.41-1.82c3.49,4.56,6.4,9.53,8.66,14.81
					c-0.3-0.72-0.6-1.43-0.91-2.15c2.32,5.51,3.91,11.28,4.73,17.21c-0.11-0.8-0.21-1.6-0.32-2.39c0.94,7.1,0.6,14.4,0.6,21.54
					c0,12.34,0,24.68,0,37.02c0,15.49,0,30.97,0,46.46c0,13.6,0,27.2,0,40.8c0,6.65-0.09,13.31,0,19.97c0,0.09,0,0.18,0,0.28
					c0,4.71,4.14,9.22,9,9c4.88-0.22,9-3.95,9-9c0-3.53,0-7.06,0-10.59c0-8.92,0-17.84,0-26.76c0-11.81,0-23.62,0-35.43
					c0-12.19,0-24.39,0-36.58c0-10.05,0-20.1,0-30.15c0-5.47,0-10.95,0-16.42c0-13.46-3.18-26.65-9.77-38.43
					c-9.05-16.18-23.92-28.43-41.25-34.8c-8.11-2.98-16.91-4.4-25.54-4.42c-1.8,0-3.6,0-5.4,0c-9.92,0-19.84,0-29.76,0
					c-11.85,0-23.69,0-35.54,0c-5.83,0-11.67-0.01-17.5,0c-18.71,0.04-36.66,7.06-50.71,19.33c-6.65,5.81-12.35,12.99-16.54,20.76
					c-4.68,8.66-7.45,17.88-8.71,27.6c-0.7,5.41-0.58,10.84-0.58,16.28c0,8.14,0,16.29,0,24.43c0,11.53,0,23.06,0,34.58
					c0,12.27,0,24.53,0,36.8c0,10.62,0,21.25,0,31.87c0,6.44,0,12.88,0,19.32c0,0.87,0,1.74,0,2.61c0,4.71,4.14,9.22,9,9
					C226.79,712.37,230.92,708.63,230.92,703.59L230.92,703.59z"/>
			</g>
		</g>
		<g>
			<g>
				<path class="st3" d="M324.57,810.08c0,4.13,0,8.26,0,12.39c0,9.92,0,19.84,0,29.76c0,12,0,24,0,36.01c0,10.38,0,20.75,0,31.13
					c0,5.04-0.09,10.09,0,15.13c0,0.07,0,0.14,0,0.21c0,4.71,4.14,9.22,9,9c4.88-0.22,9-3.95,9-9c0-4.13,0-8.26,0-12.39
					c0-9.92,0-19.84,0-29.76c0-12,0-24,0-36.01c0-10.38,0-20.75,0-31.13c0-5.04,0.09-10.09,0-15.13c0-0.07,0-0.14,0-0.21
					c0-4.71-4.14-9.22-9-9C328.69,801.29,324.57,805.03,324.57,810.08L324.57,810.08z"/>
			</g>
		</g>
	</g>
	<g>
		<g>
			<path class="st3" d="M188.16,951.8c6.32,0,12.63,0,18.95,0c17.04,0,34.07,0,51.11,0c25.26,0,50.51,0,75.77,0
				c30.82,0,61.63,0,92.45,0c33.63,0,67.27,0,100.9,0c34.18,0,68.36,0,102.54,0c31.65,0,63.31,0,94.96,0c26.84,0,53.69,0,80.53,0
				c19.3,0,38.6,0,57.9,0c9.12,0,18.25,0.15,27.37,0c0.4-0.01,0.8,0,1.2,0c11.58,0,11.6-18,0-18c-6.32,0-12.63,0-18.95,0
				c-17.04,0-34.07,0-51.11,0c-25.26,0-50.51,0-75.77,0c-30.82,0-61.63,0-92.45,0c-33.63,0-67.27,0-100.9,0
				c-34.18,0-68.36,0-102.54,0c-31.65,0-63.31,0-94.96,0c-26.84,0-53.69,0-80.53,0c-19.3,0-38.6,0-57.9,0
				c-9.12,0-18.25-0.15-27.37,0c-0.4,0.01-0.8,0-1.2,0C176.58,933.8,176.56,951.8,188.16,951.8L188.16,951.8z"/>
		</g>
	</g>
	<g>
		<g>
			<g>
				<path class="st3" d="M858.85,801.08c-2.04,0-4.08,0-6.13,0c-5.55,0-11.1,0-16.66,0c-8.2,0-16.4,0-24.6,0
					c-9.99,0-19.98,0-29.96,0c-10.91,0-21.83,0-32.74,0c-10.98,0-21.96,0-32.93,0c-10.18,0-20.36,0-30.54,0c-8.52,0-17.04,0-25.56,0
					c-6,0-12,0-18,0c-2.62,0-5.24,0.01-7.85,0c-1.54-0.01-3.06-0.1-4.58-0.3c0.8,0.11,1.6,0.21,2.39,0.32
					c-2.87-0.41-5.64-1.17-8.31-2.29c0.72,0.3,1.43,0.6,2.15,0.91c-2.6-1.12-5.03-2.55-7.29-4.28c0.61,0.47,1.21,0.94,1.82,1.41
					c-2.22-1.74-4.2-3.72-5.94-5.94c0.47,0.61,0.94,1.21,1.41,1.82c-1.72-2.25-3.15-4.68-4.28-7.29c0.3,0.72,0.6,1.43,0.91,2.15
					c-1.12-2.67-1.88-5.45-2.29-8.31c0.11,0.8,0.21,1.6,0.32,2.39c-0.75-5.76-0.3-11.79-0.3-17.58c0-7.93,0-15.86,0-23.79
					c0-2.77-0.06-5.53,0.3-8.28c-0.11,0.8-0.21,1.6-0.32,2.39c0.41-2.87,1.17-5.64,2.29-8.31c-0.3,0.72-0.6,1.43-0.91,2.15
					c1.12-2.6,2.55-5.03,4.28-7.29c-0.47,0.61-0.94,1.21-1.41,1.82c1.74-2.22,3.72-4.2,5.94-5.94c-0.61,0.47-1.21,0.94-1.82,1.41
					c2.25-1.72,4.68-3.15,7.29-4.28c-0.72,0.3-1.43,0.6-2.15,0.91c2.67-1.12,5.45-1.88,8.31-2.29c-0.8,0.11-1.6,0.21-2.39,0.32
					c3.17-0.41,6.39-0.3,9.58-0.3c5.34,0,10.68,0,16.02,0c8.14,0,16.29,0,24.43,0c9.99,0,19.98,0,29.97,0c10.98,0,21.96,0,32.94,0
					c11.09,0,22.18,0,33.26,0c10.31,0,20.62,0,30.93,0c8.65,0,17.3,0,25.95,0c6.1,0,12.21,0,18.31,0c2.68,0,5.35-0.01,8.03,0
					c1.54,0.01,3.06,0.1,4.58,0.3c-0.8-0.11-1.6-0.21-2.39-0.32c2.87,0.41,5.64,1.17,8.31,2.29c-0.72-0.3-1.43-0.6-2.15-0.91
					c2.6,1.12,5.03,2.55,7.29,4.28c-0.61-0.47-1.21-0.94-1.82-1.41c2.22,1.74,4.2,3.72,5.94,5.94c-0.47-0.61-0.94-1.21-1.41-1.82
					c1.72,2.25,3.15,4.68,4.28,7.29c-0.3-0.72-0.6-1.43-0.91-2.15c1.12,2.67,1.88,5.45,2.29,8.31c-0.11-0.8-0.21-1.6-0.32-2.39
					c0.75,5.76,0.3,11.79,0.3,17.58c0,7.93,0,15.86,0,23.79c0,2.77,0.06,5.53-0.3,8.28c0.11-0.8,0.21-1.6,0.32-2.39
					c-0.41,2.87-1.17,5.64-2.29,8.31c0.3-0.72,0.6-1.43,0.91-2.15c-1.12,2.6-2.55,5.03-4.28,7.29c0.47-0.61,0.94-1.21,1.41-1.82
					c-1.74,2.22-3.72,4.2-5.94,5.94c0.61-0.47,1.21-0.94,1.82-1.41c-2.25,1.72-4.68,3.15-7.29,4.28c0.72-0.3,1.43-0.6,2.15-0.91
					c-2.67,1.12-5.45,1.88-8.31,2.29c0.8-0.11,1.6-0.21,2.39-0.32C861.82,800.97,860.34,801.07,858.85,801.08
					c-4.71,0.03-9.22,4.12-9,9c0.22,4.85,3.96,9.03,9,9c6.74-0.04,13.22-1.69,19.23-4.72c5.83-2.94,10.61-7.39,14.53-12.55
					c5.67-7.47,8.1-16.65,8.1-25.93c0-12.53,0-25.06,0-37.59c0-9.04-2.05-18.05-7.41-25.49c-7.75-10.76-19.48-17.48-32.81-18.15
					c-4.27-0.21-8.58-0.04-12.85-0.04c-10.04,0-20.09,0-30.13,0c-13.96,0-27.91,0-41.87,0c-15.47,0-30.95,0-46.42,0
					c-14.6,0-29.19,0-43.79,0c-11.32,0-22.65,0-33.97,0c-5.66,0-11.31,0-16.97,0c-7.18,0-14.12,1.63-20.49,4.98
					c-10.69,5.63-19,16.54-21.23,28.46c-1.09,5.85-0.88,11.71-0.88,17.63c0,7.36,0,14.72,0,22.07c0,5.87-0.21,11.67,0.81,17.49
					c2.09,11.96,10.34,22.92,20.96,28.67c6.42,3.47,13.5,5.16,20.79,5.16c1.93,0,3.86,0,5.79,0c8.74,0,17.47,0,26.21,0
					c13.23,0,26.46,0,39.69,0c15.33,0,30.65,0,45.98,0c15.03,0,30.06,0,45.09,0c12.34,0,24.67,0,37.01,0c7.25,0,14.5,0,21.75,0
					c0.97,0,1.94,0,2.91,0c4.71,0,9.22-4.14,9-9C867.63,805.2,863.9,801.08,858.85,801.08z"/>
			</g>
		</g>
		<g>
			<g>
				<path class="st3" d="M643.64,703.59c0-5.49,0-10.98,0-16.48c0-13.08,0-26.16,0-39.23c0-15.53,0-31.05,0-46.58
					c0-12.94,0-25.89,0-38.83c0-5.66-0.08-11.32,0.01-16.97c0.04-2.66,0.25-5.32,0.6-7.96c-0.11,0.8-0.21,1.6-0.32,2.39
					c0.81-5.92,2.4-11.7,4.73-17.21c-0.3,0.72-0.6,1.43-0.91,2.15c2.26-5.28,5.17-10.25,8.66-14.81c-0.47,0.61-0.94,1.21-1.41,1.82
					c3.63-4.69,7.83-8.9,12.52-12.52c-0.61,0.47-1.21,0.94-1.82,1.41c4.56-3.49,9.53-6.4,14.81-8.66c-0.72,0.3-1.43,0.6-2.15,0.91
					c5.51-2.32,11.28-3.91,17.21-4.73c-0.8,0.11-1.6,0.21-2.39,0.32c5.14-0.68,10.27-0.6,15.44-0.6c7.34,0,14.68,0,22.02,0
					c9.34,0,18.67,0,28.01,0c7.77,0,15.54,0,23.31,0c4.21,0,8.46-0.13,12.67,0.13c1.61,0.1,3.22,0.26,4.82,0.47
					c-0.8-0.11-1.6-0.21-2.39-0.32c5.92,0.81,11.7,2.4,17.21,4.73c-0.72-0.3-1.43-0.6-2.15-0.91c5.28,2.26,10.25,5.17,14.81,8.66
					c-0.61-0.47-1.21-0.94-1.82-1.41c4.69,3.63,8.9,7.83,12.52,12.52c-0.47-0.61-0.94-1.21-1.41-1.82c3.49,4.56,6.4,9.53,8.66,14.81
					c-0.3-0.72-0.6-1.43-0.91-2.15c2.32,5.51,3.91,11.28,4.73,17.21c-0.11-0.8-0.21-1.6-0.32-2.39c0.94,7.1,0.6,14.4,0.6,21.54
					c0,12.34,0,24.68,0,37.02c0,15.49,0,30.97,0,46.46c0,13.6,0,27.2,0,40.8c0,6.65-0.09,13.31,0,19.97c0,0.09,0,0.18,0,0.28
					c0,4.71,4.14,9.22,9,9c4.88-0.22,9-3.95,9-9c0-3.53,0-7.06,0-10.59c0-8.92,0-17.84,0-26.76c0-11.81,0-23.62,0-35.43
					c0-12.19,0-24.39,0-36.58c0-10.05,0-20.1,0-30.15c0-5.47,0-10.95,0-16.42c0-13.46-3.18-26.65-9.77-38.43
					c-9.05-16.18-23.92-28.43-41.25-34.8c-8.11-2.98-16.91-4.4-25.54-4.42c-1.8,0-3.6,0-5.4,0c-9.92,0-19.84,0-29.76,0
					c-11.85,0-23.69,0-35.54,0c-5.83,0-11.67-0.01-17.5,0c-18.71,0.04-36.66,7.06-50.71,19.33c-6.65,5.81-12.35,12.99-16.54,20.76
					c-4.68,8.66-7.45,17.88-8.71,27.6c-0.7,5.41-0.58,10.84-0.58,16.28c0,8.14,0,16.29,0,24.43c0,11.53,0,23.06,0,34.58
					c0,12.27,0,24.53,0,36.8c0,10.62,0,21.25,0,31.87c0,6.44,0,12.88,0,19.32c0,0.87,0,1.74,0,2.61c0,4.71,4.14,9.22,9,9
					C639.51,712.37,643.64,708.63,643.64,703.59L643.64,703.59z"/>
			</g>
		</g>
		<g>
			<g>
				<path class="st3" d="M737.29,810.08c0,4.13,0,8.26,0,12.39c0,9.92,0,19.84,0,29.76c0,12,0,24,0,36.01c0,10.38,0,20.75,0,31.13
					c0,5.04-0.09,10.09,0,15.13c0,0.07,0,0.14,0,0.21c0,4.71,4.14,9.22,9,9c4.88-0.22,9-3.95,9-9c0-4.13,0-8.26,0-12.39
					c0-9.92,0-19.84,0-29.76c0-12,0-24,0-36.01c0-10.38,0-20.75,0-31.13c0-5.04,0.09-10.09,0-15.13c0-0.07,0-0.14,0-0.21
					c0-4.71-4.14-9.22-9-9C741.41,801.29,737.29,805.03,737.29,810.08L737.29,810.08z"/>
			</g>
		</g>
	</g>
</g>
</svg>
