<?xml version="1.0" encoding="utf-8"?>
<!-- Generator: Adobe Illustrator 24.2.3, SVG Export Plug-In . SVG Version: 6.00 Build 0)  -->
<svg version="1.1" id="Capa_1" xmlns="http://www.w3.org/2000/svg" xmlns:xlink="http://www.w3.org/1999/xlink" x="0px" y="0px"
	 viewBox="0 0 5556 1080" style="enable-background:new 0 0 5556 1080;" xml:space="preserve">
<style type="text/css">
	.st0{opacity:0.4;}
	.st1{fill:#A8A9AD;}
	.st2{fill:#29AAE3;}
	.st3{fill:#093548;}
	.st4{fill:none;stroke:#093548;stroke-width:8;stroke-linecap:round;stroke-miterlimit:10;}
	.st5{fill:none;stroke:#093548;stroke-width:8;stroke-linecap:round;stroke-miterlimit:10;stroke-dasharray:35.2576,35.2576;}
	.st6{opacity:0.2;}
	.st7{fill:#9291A1;}
	.st8{fill:#FFFFFF;}
	.st9{fill:url(#SVGID_1_);}
	.st10{fill:url(#SVGID_2_);}
	.st11{fill:url(#SVGID_3_);}
	.st12{fill:url(#SVGID_4_);}
	.st13{fill:url(#SVGID_5_);}
	.st14{fill:url(#SVGID_6_);}
	.st15{fill:url(#SVGID_7_);}
	.st16{fill:url(#SVGID_8_);}
	.st17{fill:url(#SVGID_9_);}
	.st18{fill:url(#SVGID_10_);}
	.st19{fill:url(#SVGID_11_);}
</style>
<g>
	<path class="st8" d="M1014.37,276.79c-146.73,0-265.68,112.04-265.68,250.24c0,138.21,118.95,250.24,265.68,250.24
		c146.73,0,265.68-112.04,265.68-250.24C1280.05,388.83,1161.1,276.79,1014.37,276.79z M1077.7,592.38c-2.28,1.5-2.91,3.08-2.9,5.7
		c0.09,27.16,0.06,54.32,0.05,81.48c0,7.19-3.45,10.8-10.48,10.81c-38.55,0.02-77.11,0.02-115.66,0c-7.26,0-10.86-3.76-10.87-11.35
		c-0.02-25.92-0.01-51.84-0.01-77.76v-4.29c-6.63-0.62-13.16-1.01-19.63-1.89c-18.33-2.5-35.5-8.1-49.28-21.31
		c-14.25-13.67-20.93-30.47-20.21-50.61c0.6-16.83,0.15-33.71,0.16-50.56c0.01-12.8,1.95-14.76,14.7-14.76h71.74h4.58v-4.91
		c0-26.04,0-52.09,0-78.13c0-7.59,3.43-11.08,11-11.08c37.82-0.02,75.64-0.02,113.46,0c7.67,0,11.08,3.55,11.08,11.41
		c0,21.58,0.02,43.15-0.01,64.73c-0.01,7.64-7.13,12.01-13.84,8.52c-3.59-1.87-4.61-5.11-4.6-9c0.05-17.49,0.02-34.97,0.02-52.46
		v-4.23h-98.71v16.7c0,21.95,0,43.9,0,65.85c0,7.96-3.5,11.46-11.44,11.46c-24.89,0.01-49.78,0-74.67,0h-4.13
		c-0.31,0.52-0.53,0.72-0.53,0.93c-0.12,17.23-0.96,34.5-0.13,51.68c1,20.59,12.69,33.91,31.16,41.36
		c13.93,5.62,28.56,7.48,43.39,7.11c10.81-0.27,14.62,2.4,14.41,14.74c-0.42,25.04-0.13,50.1-0.13,75.15v3.65h100
		c0.05-1.12,0.16-2.42,0.16-3.72c0.01-23.44-0.02-46.88,0.05-70.32c0.01-2.3-0.53-3.75-2.53-5.14c-7.86-5.48-10.92-15.24-7.92-24.27
		c2.99-8.99,10.9-14.64,20.37-14.54c9.11,0.1,17.03,6.09,19.74,14.93C1088.91,577.32,1085.62,587.18,1077.7,592.38z M1117.12,584.97
		c-1.25,5.05-5.87,7.51-10.82,6.4c-4.43-0.99-7.03-5.04-6.87-9.97c0.18-5.55,0.68-11.21-0.15-16.64
		c-2.21-14.48-13.19-23.48-29.21-24.68c-1.94-0.15-3.9-0.11-5.84-0.15c-5.58-0.11-9.55-3.87-9.86-9.35
		c-0.27-4.79,3.61-8.88,8.94-9.44c28.39-2.97,52.2,16.93,54.8,45.79c0.18,1.97,0.31,3.95,0.54,6.87
		C1118.25,576.92,1118.09,581.05,1117.12,584.97z M1148.57,582.42c-0.19,7.53-7.29,11.58-13.51,8.18c-3.13-1.71-4.91-4.33-4.82-8.1
		c0.08-3.22,0.02-6.44,0.02-9.66c0.29-0.03,0.59-0.05,0.88-0.08c-0.85-6.86-1.16-13.83-2.64-20.55c-4.39-20.03-16.92-32.57-35.86-39
		c-9.15-3.11-18.49-4.14-28.06-3.79c-5.71,0.21-9.83-3.36-10.29-8.8c-0.42-5.02,3.23-9.62,8.84-9.86
		c21.57-0.95,41.67,3.88,59.12,17.37c15.67,12.11,23.3,28.98,25.61,48.37C1148.87,565.04,1148.78,573.78,1148.57,582.42z
		 M1179.53,581.39c-0.51,6.1-4.53,10.29-9.71,9.86c-4.45-0.36-9.51-4.24-8.75-10.71c0.46-3.92,0.42-7.91,0.6-11.64
		c-0.09-16.6-2.24-32.58-9.71-47.37c-10.5-20.77-27.95-32.46-49.49-38.62c-12.53-3.59-25.33-4.98-38.33-4.35
		c-4.76,0.23-8.76-2.92-9.72-7.69c-0.89-4.45,1.66-9.27,6.33-10.28c4.1-0.89,8.45-0.96,12.68-0.84c19.98,0.57,39.12,4.8,56.93,14.34
		c27.66,14.83,42.34,38.89,47.6,69.55C1180.09,556.14,1180.59,568.73,1179.53,581.39z"/>
	<path class="st8" d="M584.25,489.2v279.45h-75.38V493.07c0-40.26-12.73-74.32-38.18-102.18c-25.46-27.87-58.04-41.8-97.74-41.8
		c-39.72,0-72.29,13.81-97.74,41.41c-25.46,27.61-38.18,61.81-38.18,102.57v275.58h-77.67V156.33h77.67v178.05
		c25.44-20.13,47.57-34.06,66.39-41.8c22.89-10.32,48.33-15.48,76.31-15.48c56.98,0,105.31,20.78,145,62.32
		C564.4,380.96,584.25,430.89,584.25,489.2"/>
	<path class="st8" d="M1444.69,768.65v-80.51h325.15c18.78,0,35.03-6.58,48.73-19.74c13.7-13.16,20.56-29.28,20.56-48.38
		c0-19.09-6.73-35.22-20.18-48.38c-13.46-13.16-29.83-19.74-49.11-19.74h-197.22c-51.28,0-89.6-21.93-114.98-65.8
		c-12.18-21.15-18.27-43.86-18.27-68.12c0-36.64,12.81-68.12,38.45-94.44c25.63-26.32,56.73-39.48,93.28-39.48h331.24v78.19h-328.3
		c-15.72,0-29.15,5.47-40.29,16.38c-11.15,10.91-16.72,24.17-16.72,39.74c0,16.11,5.57,29.62,16.72,40.53
		c11.15,10.91,24.58,16.37,40.29,16.37h200.65c57.76,0,100.32,24.52,127.69,73.54c12.66,22.71,19,46.97,19,72.77
		c0,43.35-14.6,78.71-43.79,106.05c-29.2,27.36-64.85,41.03-106.98,41.03H1444.69z"/>
	<path class="st8" d="M2480.27,637.83c-20.82,41.29-50.52,73.42-89.09,96.38c-38.58,22.97-81.23,34.45-127.92,34.45h-115.74v161.02
		h-73.86V284.06h185.8c68.53,0,127.04,23.36,175.52,70.06c48.47,46.72,72.72,104.64,72.72,173.79
		C2507.68,566.1,2498.55,602.74,2480.27,637.83 M2147.51,698.21h105.85c48.73,0,89.97-16.12,123.74-48.38
		c33.75-32.25,50.64-72.89,50.64-121.92c0-48.5-16.5-88.37-49.5-119.6c-33.01-31.22-73.86-46.83-122.59-46.83h-108.13V698.21z"/>
	<path class="st8" d="M2761.24,768.65h-77.67V277.09h77.67V768.65z M2685.86,196.58c0-10.32,3.68-19.22,11.04-26.71
		c7.35-7.47,16.11-11.23,26.27-11.23c10.66,0,19.67,3.75,27.03,11.23c7.35,7.49,11.04,16.39,11.04,26.71
		c0,10.84-3.68,20.01-11.04,27.48c-7.37,7.49-16.37,11.22-27.03,11.22c-10.16,0-18.92-3.74-26.27-11.22
		C2689.53,216.59,2685.86,207.42,2685.86,196.58"/>
	<path class="st8" d="M2937.9,156.33h75.39v127.73h165.24v71.99h-165.24v238.66c0,7.21,2.16,17.77,6.47,31.68
		c4.31,13.91,8.49,23.68,12.56,29.34c19.8,28.33,54.83,42.48,105.08,42.48h28.17h28.18v70.44c-3.05,0-19.3,0.27-48.73,0.78
		c-21.83,0.52-39.6,0.52-53.3,0c-19.3-1.55-35.79-4.38-49.49-8.5c-30.97-8.76-56.1-26.54-75.39-53.34
		c-19.3-26.8-28.93-56.69-28.93-89.69V156.33z"/>
	<path class="st8" d="M3770.17,489.2c-14.22-93.4-71.58-140.12-172.09-140.12c-50.26,0-93.54,17.3-129.83,51.86
		c-36.3,34.58-54.19,76.64-53.68,126.18c0.5,48.51,17.63,89.8,51.4,123.86c33.76,34.06,74.49,51.09,122.21,51.09
		c40.61,0,79.19-7.74,115.74-23.22c42.64-18.58,69.79-43.61,81.48-75.09l51.02,50.32c-20.82,39.75-54.07,70.19-99.75,91.34
		c-41.63,20.13-87.83,30.19-138.58,30.19c-71.08,0-131.87-23.87-182.38-71.61c-50.52-47.73-75.76-106.7-75.76-176.89
		c0-69.67,25.38-128.76,76.15-177.27c50.75-48.5,111.42-72.77,181.99-72.77c76.15,0.52,135.79,18.07,178.94,52.64
		c51.27,40.77,76.91,104,76.91,189.66c0,10.33-0.27,21.17-0.76,32.51h-365.5v-61.93h281.74L3770.17,489.2z"/>
	<rect x="4022.21" y="156.33" class="st8" width="77.67" height="612.32"/>
	<path class="st8" d="M4701.44,489.2c-14.22-93.4-71.58-140.12-172.09-140.12c-50.26,0-93.54,17.3-129.83,51.86
		c-36.3,34.58-54.19,76.64-53.68,126.18c0.5,48.51,17.63,89.8,51.4,123.86c33.76,34.06,74.49,51.09,122.22,51.09
		c40.61,0,79.19-7.74,115.74-23.22c42.64-18.58,69.79-43.61,81.48-75.09l51.02,50.32c-20.82,39.75-54.06,70.19-99.75,91.34
		c-41.63,20.13-87.83,30.19-138.58,30.19c-71.08,0-131.87-23.87-182.38-71.61c-50.52-47.73-75.76-106.7-75.76-176.89
		c0-69.67,25.38-128.76,76.15-177.27c50.75-48.5,111.42-72.77,181.99-72.77c76.15,0.52,135.79,18.07,178.94,52.64
		c51.27,40.77,76.91,104,76.91,189.66c0,10.33-0.26,21.17-0.77,32.51h-365.5v-61.93h281.74L4701.44,489.2z"/>
	<path class="st8" d="M5328.88,420.3c-43.15-47.47-91.13-71.22-143.92-71.22c-47.21,0-87.83,17.55-121.83,52.64
		c-34.02,35.1-51.02,76.9-51.02,125.41c0,47.99,17,89.16,51.02,123.47c34.01,34.33,74.62,51.48,121.83,51.48
		c36.04,0,68.65-9.8,97.85-29.42c29.18-19.61,49.87-46.18,62.06-79.73l51.78,50.32c-46.2,88.25-113.21,132.37-201.03,132.37
		c-72.6,0-133.25-22.7-181.99-68.12c-50.77-46.96-76.15-107.08-76.15-180.37c0-70.7,24.1-130.05,72.34-178.05
		c48.22-47.99,107.62-71.99,178.18-71.99c86.81,0,153.82,33.81,201.03,101.41L5328.88,420.3z"/>
</g>
</svg>
