<?xml version="1.0" encoding="utf-8"?>
<!-- Generator: Adobe Illustrator 24.2.3, SVG Export Plug-In . SVG Version: 6.00 Build 0)  -->
<svg version="1.1" id="Capa_1" xmlns="http://www.w3.org/2000/svg" xmlns:xlink="http://www.w3.org/1999/xlink" x="0px" y="0px"
	 viewBox="0 0 1080 1080" style="enable-background:new 0 0 1080 1080;" xml:space="preserve">
<style type="text/css">
	.st0{opacity:0.4;}
	.st1{fill:#A8A9AD;}
	.st2{fill:#29AAE3;}
	.st3{fill:#093548;}
	.st4{fill:none;stroke:#093548;stroke-width:8;stroke-linecap:round;stroke-miterlimit:10;}
	.st5{fill:none;stroke:#093548;stroke-width:8;stroke-linecap:round;stroke-miterlimit:10;stroke-dasharray:35.2576,35.2576;}
	.st6{opacity:0.2;}
	.st7{fill:#9291A1;}
	.st8{fill:#FFFFFF;}
	.st9{fill:url(#SVGID_1_);}
	.st10{fill:url(#SVGID_2_);}
	.st11{fill:url(#SVGID_3_);}
	.st12{fill:url(#SVGID_4_);}
	.st13{fill:url(#SVGID_5_);}
	.st14{fill:url(#SVGID_6_);}
	.st15{fill:url(#SVGID_7_);}
	.st16{fill:url(#SVGID_8_);}
	.st17{fill:url(#SVGID_9_);}
	.st18{fill:url(#SVGID_10_);}
	.st19{fill:url(#SVGID_11_);}
</style>
<g>
	<g>
		<g>
			<g class="st0">
				<path class="st1" d="M567.75,213.51c0,0,96.01-78.12,147.5,10.53c51.49,88.65-31.03,185.49-31.03,185.49l-14.65,18.59
					c-152.08,173.22-269.39,0.01-269.39,0.01l-15.16-18.6c0,0-82.52-96.84-31.03-185.49s147.5-10.53,147.5-10.53l33.05,20.76
					L567.75,213.51z"/>
			</g>
			<g>
				<g>
					<path class="st3" d="M694.65,544.52c0.29,13.43,4.52,26.91,12.53,37.76c8.21,11.12,19.24,19.46,32.32,24.02
						c12.82,4.47,27.34,4.63,40.31,0.66c12.5-3.83,24.03-11.41,32.2-21.66c4.51-5.66,8-11.67,10.66-18.4
						c2.49-6.3,3.81-13.04,4.25-19.79c0.86-13.47-2.72-27.34-9.97-38.72c-7.05-11.07-17.39-20.2-29.49-25.36
						c-6.83-2.92-13.74-4.71-21.15-5.42c-6.87-0.66-13.89-0.08-20.62,1.42c-12.7,2.84-24.65,9.77-33.45,19.35
						c-8.92,9.71-15.01,22.05-16.8,35.14C694.92,537.19,694.59,540.82,694.65,544.52c0.06,3.92,3.41,7.68,7.5,7.5
						c4.01-0.18,7.57-3.3,7.5-7.5c-0.05-3.01,0.12-6.02,0.51-9.01c-0.09,0.66-0.18,1.33-0.27,1.99c0.71-5.22,2.09-10.31,4.14-15.16
						c-0.25,0.6-0.5,1.19-0.76,1.79c1.14-2.67,2.46-5.25,3.98-7.72c0.74-1.2,1.52-2.38,2.35-3.53c0.19-0.26,0.38-0.53,0.58-0.79
						c0.19-0.26,0.96-1.25,0.1-0.15c-0.89,1.15,0.01,0,0.22-0.26c0.24-0.29,0.48-0.59,0.73-0.88c1.85-2.19,3.87-4.25,6.02-6.15
						c0.49-0.43,0.98-0.85,1.49-1.26c0.29-0.24,0.59-0.48,0.89-0.71c1.15-0.92-1.25,0.93-0.36,0.28c1.14-0.83,2.29-1.65,3.48-2.42
						c2.77-1.78,5.68-3.31,8.7-4.6c-0.6,0.25-1.19,0.5-1.79,0.76c4.77-2.01,9.76-3.37,14.88-4.09c-0.66,0.09-1.33,0.18-1.99,0.27
						c5.31-0.71,10.68-0.72,15.99-0.02c-0.66-0.09-1.33-0.18-1.99-0.27c5.15,0.71,10.18,2.07,14.98,4.08
						c-0.6-0.25-1.19-0.5-1.79-0.76c2.7,1.15,5.32,2.48,7.83,4.01c1.22,0.74,2.42,1.53,3.58,2.36c0.31,0.22,0.62,0.45,0.93,0.68
						c0.13,0.1,0.26,0.2,0.4,0.3c0.62,0.45-1.03-0.74-0.86-0.67c0.63,0.27,1.26,1.01,1.79,1.45c2.22,1.87,4.31,3.91,6.23,6.08
						c0.47,0.53,0.93,1.08,1.39,1.63c0.21,0.25,0.41,0.51,0.62,0.77c0.7,0.86-1.15-1.54-0.27-0.35c0.88,1.19,1.74,2.4,2.54,3.65
						c1.79,2.79,3.33,5.73,4.63,8.79c-0.25-0.6-0.5-1.19-0.76-1.79c1.96,4.69,3.3,9.59,4,14.63c-0.09-0.66-0.18-1.33-0.27-1.99
						c0.69,5.18,0.69,10.42,0.02,15.61c0.09-0.66,0.18-1.33,0.27-1.99c-0.71,5.24-2.11,10.36-4.16,15.23
						c0.25-0.6,0.5-1.19,0.76-1.79c-1.15,2.69-2.49,5.29-4.02,7.79c-0.75,1.22-1.54,2.4-2.37,3.56c-0.22,0.31-0.45,0.62-0.68,0.93
						c-0.1,0.13-0.2,0.26-0.3,0.39c-0.43,0.6,0.71-1.01,0.67-0.87c-0.14,0.57-1.07,1.33-1.45,1.78c-1.87,2.21-3.91,4.29-6.09,6.21
						c-0.53,0.47-1.08,0.93-1.63,1.38c-0.25,0.21-0.51,0.41-0.77,0.62c-0.86,0.69,1.54-1.15,0.35-0.27
						c-1.19,0.88-2.4,1.74-3.65,2.54c-2.79,1.79-5.73,3.33-8.78,4.63c0.6-0.25,1.19-0.5,1.79-0.76c-4.79,2.01-9.81,3.39-14.96,4.1
						c0.66-0.09,1.33-0.18,1.99-0.27c-5.17,0.68-10.4,0.7-15.58,0.03c0.66,0.09,1.33,0.18,1.99,0.27
						c-5.11-0.69-10.09-2.04-14.85-4.03c0.6,0.25,1.19,0.5,1.79,0.76c-2.68-1.14-5.28-2.46-7.76-3.98c-1.21-0.74-2.4-1.53-3.55-2.35
						c-0.31-0.22-0.62-0.45-0.93-0.68c-0.13-0.1-0.26-0.2-0.39-0.3c-0.59-0.43,1.01,0.71,0.87,0.67c-0.56-0.13-1.33-1.07-1.78-1.44
						c-2.21-1.87-4.28-3.9-6.19-6.07c-0.47-0.53-0.93-1.07-1.38-1.62c-0.21-0.25-0.41-0.51-0.62-0.77
						c-0.69-0.86,1.15,1.54,0.27,0.35c-0.88-1.19-1.73-2.4-2.53-3.65c-1.79-2.79-3.32-5.73-4.62-8.78c0.25,0.6,0.5,1.19,0.76,1.79
						c-2.01-4.8-3.39-9.83-4.11-14.98c0.09,0.66,0.18,1.33,0.27,1.99c-0.31-2.31-0.49-4.63-0.54-6.97c-0.08-3.92-3.39-7.68-7.5-7.5
						C698.16,537.2,694.56,540.32,694.65,544.52z"/>
				</g>
			</g>
			<g>
				<g>
					<path class="st3" d="M780.78,543.61c0.01,1.37-0.08,2.74-0.25,4.1c0.09-0.66,0.18-1.33,0.27-1.99
						c-0.34,2.39-0.96,4.71-1.88,6.95c0.25-0.6,0.5-1.19,0.76-1.79c-0.67,1.56-1.47,3.07-2.42,4.48c-0.23,0.35-0.5,0.68-0.73,1.03
						c1.41-2.11,0.61-0.78,0.19-0.28c-0.51,0.6-1.04,1.18-1.6,1.74c-0.56,0.56-1.15,1.09-1.75,1.59c-1.39,1.15,1.28-0.91,0.27-0.2
						c-0.35,0.24-0.69,0.49-1.04,0.73c-1.43,0.95-2.95,1.74-4.53,2.41c0.6-0.25,1.19-0.5,1.79-0.76c-2.26,0.92-4.62,1.55-7.04,1.89
						c0.66-0.09,1.33-0.18,1.99-0.27c-2.54,0.33-5.09,0.34-7.63,0.03c0.66,0.09,1.33,0.18,1.99,0.27c-2.45-0.33-4.83-0.97-7.13-1.91
						c0.6,0.25,1.19,0.5,1.79,0.76c-1.61-0.68-3.16-1.5-4.61-2.47c-0.36-0.24-0.71-0.5-1.06-0.75c-1.01-0.72,1.64,1.34,0.24,0.17
						c-0.62-0.52-1.22-1.06-1.79-1.64c-0.57-0.57-1.12-1.17-1.64-1.79c-1.17-1.4,0.89,1.26,0.17,0.25c-0.25-0.35-0.51-0.7-0.75-1.06
						c-0.97-1.45-1.78-2.99-2.46-4.6c0.25,0.6,0.5,1.19,0.76,1.79c-0.89-2.18-1.49-4.43-1.82-6.76c0.09,0.66,0.18,1.33,0.27,1.99
						c-0.31-2.43-0.31-4.87,0.01-7.3c-0.09,0.66-0.18,1.33-0.27,1.99c0.34-2.39,0.98-4.7,1.91-6.93c-0.25,0.6-0.5,1.19-0.76,1.79
						c0.71-1.66,1.56-3.26,2.57-4.77c0.25-0.37,0.52-0.74,0.78-1.1c0.73-1.02-1.32,1.62-0.13,0.19c0.54-0.65,1.11-1.27,1.7-1.87
						c0.59-0.6,1.21-1.17,1.85-1.71c0.49-0.41,1.88-1.25-0.2,0.13c0.37-0.25,0.72-0.53,1.09-0.78c1.49-1,3.06-1.85,4.71-2.55
						c-0.6,0.25-1.19,0.5-1.79,0.76c2.09-0.86,4.26-1.46,6.5-1.77c-0.66,0.09-1.33,0.18-1.99,0.27c2.4-0.31,4.81-0.28,7.21,0.02
						c-0.66-0.09-1.33-0.18-1.99-0.27c2.52,0.34,4.96,0.99,7.31,1.96c-0.6-0.25-1.19-0.5-1.79-0.76c1.57,0.67,3.08,1.47,4.5,2.42
						c0.35,0.23,0.69,0.48,1.04,0.73c1.01,0.71-1.66-1.35-0.27-0.2c0.65,0.54,1.27,1.11,1.87,1.7c0.6,0.6,1.16,1.22,1.7,1.87
						c1.15,1.39-0.91-1.28-0.2-0.27c0.24,0.35,0.49,0.69,0.73,1.04c0.95,1.43,1.74,2.94,2.41,4.51c-0.25-0.6-0.5-1.19-0.76-1.79
						c0.93,2.25,1.56,4.59,1.91,7c-0.09-0.66-0.18-1.33-0.27-1.99C780.67,541.09,780.76,542.35,780.78,543.61
						c0.06,3.92,3.4,7.68,7.5,7.5c4.01-0.18,7.57-3.3,7.5-7.5c-0.11-6.87-2.02-13.92-5.98-19.6c-4.27-6.13-9.97-10.51-16.93-13.2
						c-13.3-5.14-29.29-0.9-38.35,10.09c-5,6.08-8,13.15-8.57,21.03c-0.5,6.93,1.41,14.3,5.12,20.17
						c3.63,5.74,8.92,10.52,15.17,13.21c7.25,3.12,14.96,3.91,22.7,2.26c13.36-2.85,24.38-14.29,26.3-27.88
						c0.29-2.03,0.53-4.04,0.52-6.09c-0.02-3.92-3.44-7.68-7.5-7.5C784.23,536.29,780.76,539.41,780.78,543.61z"/>
				</g>
			</g>
			<g>
				<g>
					<path class="st3" d="M419.9,443.69c1.05,1.54,2.18,3.03,3.31,4.51c3.41,4.45,6.96,8.79,10.69,12.98
						c4.88,5.47,10.03,10.7,15.42,15.67c6.98,6.43,14.38,12.42,22.13,17.9c8.12,5.75,16.68,10.86,25.67,15.13
						c10.12,4.81,20.71,8.7,31.65,11.15c11.7,2.62,23.79,3.79,35.77,3.19c13.35-0.67,26.62-3.29,39.23-7.7
						c14.9-5.21,28.99-12.57,42.03-21.43c16.12-10.95,30.84-23.9,44.31-37.95c3.74-3.9,7.39-7.89,10.95-11.95
						c2.59-2.94,3.12-7.75,0-10.61c-2.84-2.6-7.84-3.15-10.61,0c-7.97,9.07-16.35,17.79-25.24,25.96
						c-4.01,3.69-8.12,7.26-12.35,10.7c-0.96,0.78-1.92,1.55-2.89,2.32c-0.51,0.4-1.02,0.8-1.52,1.19c-0.36,0.28-1.13,0.8,0.5-0.39
						c-0.34,0.25-0.67,0.52-1.01,0.77c-1.99,1.51-4.01,3-6.05,4.44c-7.49,5.32-15.32,10.17-23.49,14.39
						c-3.71,1.91-7.5,3.67-11.33,5.32c2.47-1.07,0.6-0.26,0.06-0.03c-0.47,0.19-0.94,0.38-1.42,0.57c-0.94,0.37-1.88,0.74-2.82,1.09
						c-1.85,0.69-3.72,1.35-5.59,1.97c-7.93,2.62-16.09,4.53-24.37,5.64c0.66-0.09,1.33-0.18,1.99-0.27
						c-11.03,1.46-22.21,1.46-33.23-0.01c0.66,0.09,1.33,0.18,1.99,0.27c-6.71-0.91-13.34-2.35-19.83-4.28
						c-3.13-0.93-6.22-1.97-9.28-3.12c-1.53-0.57-3.04-1.17-4.55-1.79c-0.61-0.25-2.09-0.91,0.53,0.23
						c-0.38-0.16-0.76-0.33-1.14-0.49c-0.76-0.33-1.51-0.66-2.26-1.01c-11.04-5.01-21.47-11.32-31.22-18.51
						c-0.6-0.44-1.19-0.88-1.78-1.33c-0.64-0.49-2.89-2.24-0.4-0.3c-1.08-0.85-2.16-1.69-3.23-2.55c-2.12-1.71-4.21-3.46-6.26-5.26
						c-3.73-3.26-7.35-6.65-10.86-10.15c-5.43-5.42-10.59-11.12-15.42-17.08c-0.83-1.02-1.64-2.05-2.44-3.08
						c-0.62-0.79,1.46,1.9,0.84,1.09c-0.07-0.09-0.14-0.18-0.21-0.27c-0.17-0.22-0.33-0.44-0.5-0.65c-0.29-0.39-0.59-0.78-0.88-1.17
						c-0.63-0.85-1.24-1.71-1.86-2.58c-0.03-0.04-0.05-0.07-0.08-0.11c-2.2-3.24-6.7-4.99-10.26-2.69
						C419.36,435.51,417.54,440.22,419.9,443.69L419.9,443.69z"/>
				</g>
			</g>
			<g>
				<g>
					<path class="st3" d="M546.86,515.47c-0.23,1.28-0.43,2.57-0.63,3.86c-0.63,4.16-1.18,8.34-1.66,12.53
						c-0.61,5.3-1.09,10.62-1.45,15.94c-0.45,6.68-0.72,13.37-0.79,20.06c-0.07,7.58,0.11,15.17,0.6,22.73
						c0.56,8.61,1.53,17.2,2.93,25.72c1.33,8.09,3.12,16.12,5.51,23.97c2.53,8.29,5.75,16.44,9.73,24.14
						c3.9,7.55,8.7,14.63,14.28,21.04c5.64,6.48,12.3,12.13,19.57,16.7c7.81,4.91,16.53,8.53,25.45,10.85
						c10.68,2.77,21.77,3.71,32.77,3.58c13.82-0.16,27.75-1.46,41.25-4.55c10.6-2.42,21.01-6.11,30.58-11.3
						c7.8-4.23,15.11-9.65,21.28-16.04c5.35-5.55,10-11.91,13.56-18.75c3.19-6.13,5.69-12.67,7.38-19.37
						c1.49-5.93,2.39-12.03,2.83-18.13c0.3-4.24,0.34-8.5,0.09-12.75c-0.18-3.07-0.53-6.12-1-9.16c-0.05-0.32-0.1-0.64-0.16-0.96
						c-0.75-3.86-5.58-6.42-9.23-5.24c-4.11,1.33-6.04,5.09-5.24,9.23c0.13,0.69,0.23,1.39,0.33,2.09
						c-0.09-0.66-0.18-1.33-0.27-1.99c0.78,5.82,0.91,11.74,0.56,17.59c-0.14,2.4-0.37,4.8-0.69,7.18c0.09-0.66,0.18-1.33,0.27-1.99
						c-0.78,5.79-2.09,11.51-3.99,17.03c-0.58,1.7-1.23,3.37-1.92,5.03c0.25-0.6,0.5-1.19,0.76-1.79c-1.33,3.15-2.86,6.21-4.59,9.15
						c-0.91,1.54-1.87,3.04-2.89,4.51c-0.52,0.75-1.05,1.49-1.6,2.23c-0.13,0.17-0.26,0.34-0.39,0.52c-0.68,0.9,1.27-1.63,0.66-0.86
						c-0.31,0.39-0.62,0.78-0.93,1.17c-2.44,3-5.12,5.8-7.99,8.38c-0.76,0.68-1.54,1.35-2.33,2.01c-0.4,0.33-0.8,0.66-1.21,0.98
						c-0.19,0.15-0.39,0.3-0.58,0.45c-0.57,0.46,1.37-1.05,1.1-0.85c-0.14,0.1-0.28,0.21-0.42,0.32c-1.73,1.32-3.51,2.56-5.34,3.73
						c-4.49,2.88-9.25,5.34-14.16,7.42c0.6-0.25,1.19-0.5,1.79-0.76c-10.93,4.61-22.55,7.37-34.28,8.97
						c0.66-0.09,1.33-0.18,1.99-0.27c-11.95,1.6-24.22,2.29-36.26,1.52c-2.65-0.17-5.3-0.43-7.93-0.78
						c0.66,0.09,1.33,0.18,1.99,0.27c-8.21-1.11-16.27-3.17-23.91-6.38c0.6,0.25,1.19,0.5,1.79,0.76
						c-4.35-1.84-8.55-4.05-12.51-6.62c-0.93-0.61-1.85-1.23-2.76-1.87c-0.45-0.32-0.9-0.64-1.34-0.97
						c-0.22-0.16-0.44-0.33-0.66-0.5c-1.14-0.86,1.66,1.31,0.54,0.42c-1.74-1.38-3.43-2.81-5.06-4.32
						c-3.25-3.01-6.25-6.28-8.99-9.76c-0.17-0.21-0.33-0.43-0.5-0.64c1.75,2.23,0.95,1.23,0.56,0.71c-0.35-0.46-0.69-0.92-1.03-1.38
						c-0.66-0.9-1.3-1.81-1.92-2.74c-1.25-1.85-2.44-3.75-3.57-5.68c-2.55-4.37-4.79-8.92-6.76-13.58c0.25,0.6,0.5,1.19,0.76,1.79
						c-4.62-10.98-7.75-22.54-9.87-34.25c-0.6-3.29-1.11-6.58-1.56-9.89c0.09,0.66,0.18,1.33,0.27,1.99
						c-1.71-12.75-2.39-25.64-2.33-38.5c0.05-10.51,0.6-21.01,1.61-31.47c0.39-4.1,0.86-8.19,1.41-12.28
						c-0.09,0.66-0.18,1.33-0.27,1.99c0.35-2.6,0.73-5.19,1.17-7.78c0.02-0.14,0.05-0.29,0.08-0.43c0.37-2.02,0.31-3.95-0.76-5.78
						c-0.91-1.56-2.69-3.04-4.48-3.45C552.41,509.4,547.61,511.35,546.86,515.47L546.86,515.47z"/>
				</g>
			</g>
			<g>
				<g>
					<path class="st3" d="M416.52,416c-0.69-0.81-1.36-1.65-2.02-2.49c-0.17-0.22-0.34-0.43-0.51-0.65
						c-0.97-1.24,1.26,1.63,0.55,0.71c-0.42-0.55-0.85-1.11-1.26-1.66c-1.03-1.37-2.03-2.75-3.03-4.14
						c-5.96-8.36-11.39-17.11-16.27-26.14c-3.57-6.62-6.84-13.4-9.76-20.32c0.25,0.6,0.5,1.19,0.76,1.79
						c-4.87-11.58-8.78-23.59-11.3-35.9c-0.75-3.64-1.37-7.31-1.87-10.99c0.09,0.66,0.18,1.33,0.27,1.99
						c-1.61-12.14-1.77-24.45-0.15-36.59c-0.09,0.66-0.18,1.33-0.27,1.99c1.47-10.82,4.35-21.4,8.59-31.47
						c-0.25,0.6-0.5,1.19-0.76,1.79c2.11-4.98,4.54-9.82,7.26-14.5c1.31-2.24,2.68-4.44,4.13-6.59c0.67-1,1.37-2,2.07-2.98
						c0.35-0.48,0.7-0.96,1.05-1.43c0.18-0.23,0.35-0.47,0.53-0.7c0.35-0.46,0.14-0.19-0.64,0.83c0.14-0.18,0.28-0.36,0.43-0.55
						c2.77-3.52,5.78-6.86,9.05-9.92c1.55-1.46,3.16-2.85,4.83-4.18c0.15-0.12,0.31-0.24,0.47-0.37c0.99-0.79-1.6,1.21-0.58,0.45
						c0.35-0.26,0.7-0.53,1.06-0.78c0.82-0.59,1.64-1.17,2.48-1.73c3.59-2.39,7.4-4.44,11.37-6.12c-0.6,0.25-1.19,0.5-1.79,0.76
						c5.58-2.33,11.43-3.9,17.42-4.72c-0.66,0.09-1.33,0.18-1.99,0.27c7.35-0.98,14.8-0.84,22.14,0.13
						c-0.66-0.09-1.33-0.18-1.99-0.27c8.39,1.14,16.61,3.34,24.55,6.26c2.17,0.8,4.31,1.65,6.44,2.54c-0.6-0.25-1.19-0.5-1.79-0.76
						c7.76,3.28,15.26,7.18,22.45,11.56c4.53,2.76,8.97,5.7,13.22,8.88c0.32,0.24,0.64,0.48,0.96,0.72c1.17,0.89-1.9-1.49-0.78-0.61
						c0.19,0.15,0.38,0.29,0.56,0.44c1.59,1.29,3.17,2.2,5.3,2.2c1.84,0,4.04-0.82,5.3-2.2c2.52-2.74,3.25-7.96,0-10.61
						c-3.6-2.93-7.42-5.62-11.3-8.18c-8.03-5.3-16.47-10-25.26-13.92c-12.16-5.43-24.68-9.4-37.91-11.12
						c-13.31-1.73-27.28-0.65-39.84,4.28c-7.72,3.03-14.61,7.1-21.1,12.25c-6.89,5.48-12.68,12.15-17.8,19.28
						c-11.32,15.78-19.01,34.57-22.11,53.73c-2.94,18.18-2.2,36.52,1.46,54.55c3.21,15.81,8.72,31.08,15.53,45.69
						c5.24,11.25,11.37,22.1,18.25,32.43c3.88,5.83,7.99,11.54,12.43,16.96c0.18,0.22,0.37,0.45,0.56,0.67c2.55,3,8.02,2.82,10.61,0
						C419.45,423.42,419.24,419.2,416.52,416L416.52,416z"/>
				</g>
			</g>
			<g>
				<g>
					<path class="st3" d="M715.72,426.61c3.3-3.88,6.33-8.03,9.27-12.19c6.46-9.16,12.3-18.76,17.46-28.71
						c7.16-13.78,13.15-28.29,17.27-43.27c4.62-16.78,6.98-34.44,5.88-51.85c-1.25-19.7-6.74-38.83-16.29-56.13
						c-8.54-15.47-20.39-29.7-35.91-38.52c-12.47-7.09-26.84-10.34-41.15-9.92c-12.89,0.38-25.66,3.37-37.67,7.96
						c-10.35,3.96-20.31,8.89-29.74,14.7c-5.38,3.31-10.58,6.9-15.55,10.8c-0.21,0.16-0.42,0.33-0.63,0.5
						c-1.4,1.14-2.2,3.58-2.2,5.3c0,1.84,0.82,4.04,2.2,5.3c1.43,1.31,3.31,2.29,5.3,2.2c2.1-0.09,3.68-0.88,5.3-2.2
						c0.15-0.12,0.29-0.23,0.44-0.35c0.08-0.06,0.16-0.12,0.24-0.18c0.86-0.68-1.57,1.21-1.17,0.9c0.25-0.19,0.51-0.39,0.76-0.58
						c1.62-1.23,3.28-2.41,4.95-3.57c5.65-3.9,11.53-7.48,17.58-10.72c4.44-2.37,8.97-4.55,13.61-6.51c-0.6,0.25-1.19,0.5-1.79,0.76
						c7.66-3.23,15.58-5.85,23.72-7.55c2.41-0.5,4.83-0.92,7.27-1.25c-0.66,0.09-1.33,0.18-1.99,0.27
						c7.34-0.98,14.79-1.12,22.14-0.13c-0.66-0.09-1.33-0.18-1.99-0.27c5.99,0.82,11.84,2.38,17.42,4.72
						c-0.6-0.25-1.19-0.5-1.79-0.76c3.49,1.48,6.86,3.24,10.06,5.27c1.66,1.06,3.27,2.19,4.85,3.37c1.01,0.76-1.58-1.24-0.58-0.45
						c0.16,0.12,0.31,0.24,0.47,0.37c0.39,0.31,0.78,0.62,1.16,0.94c0.86,0.71,1.7,1.44,2.53,2.19c3.28,2.97,6.32,6.2,9.11,9.63
						c0.36,0.44,0.72,0.89,1.07,1.34c1.19,1.51-1.06-1.41,0.1,0.14c0.79,1.05,1.56,2.11,2.31,3.18c1.42,2.04,2.78,4.13,4.07,6.27
						c3.17,5.24,5.96,10.7,8.35,16.33c-0.25-0.6-0.5-1.19-0.76-1.79c4.24,10.07,7.12,20.65,8.59,31.47
						c-0.09-0.66-0.18-1.33-0.27-1.99c1.62,12.15,1.46,24.45-0.15,36.59c0.09-0.66,0.18-1.33,0.27-1.99
						c-1.72,12.77-5.01,25.3-9.43,37.4c-1.17,3.2-2.42,6.36-3.74,9.5c0.25-0.6,0.5-1.19,0.76-1.79
						c-4.9,11.61-10.76,22.8-17.41,33.51c-2.48,3.99-5.07,7.92-7.77,11.76c-1.04,1.48-2.1,2.95-3.18,4.4c-0.45,0.6-0.9,1.2-1.35,1.8
						c-0.19,0.25-0.38,0.5-0.58,0.75c-0.86,1.13,1.51-1.94,0.52-0.67c-0.83,1.06-1.65,2.12-2.52,3.14c-1.31,1.54-2.2,3.22-2.2,5.3
						c0,1.84,0.82,4.04,2.2,5.3C707.91,429.18,713,429.8,715.72,426.61L715.72,426.61z"/>
				</g>
			</g>
			<g>
				<g>
					<path class="st3" d="M568.92,308.15c4.39-4.92,8.55-10.01,13.7-14.17c0.26-0.21,0.53-0.42,0.8-0.64
						c-1.03,0.79-1.31,1.01-0.85,0.66c0.13-0.1,0.27-0.2,0.4-0.31c0.54-0.4,1.08-0.79,1.63-1.18c1.08-0.75,2.19-1.47,3.32-2.15
						c2.28-1.37,4.66-2.58,7.12-3.61c-0.6,0.25-1.19,0.5-1.79,0.76c4.24-1.77,8.68-2.99,13.24-3.61c-0.66,0.09-1.33,0.18-1.99,0.27
						c4.32-0.56,8.68-0.57,13-0.01c-0.66-0.09-1.33-0.18-1.99-0.27c4.4,0.59,8.69,1.76,12.78,3.48c-0.6-0.25-1.19-0.5-1.79-0.76
						c2.39,1.02,4.71,2.21,6.93,3.57c1.12,0.69,2.22,1.43,3.29,2.21c0.25,0.18,0.49,0.37,0.74,0.55c0.94,0.69-1.45-1.15-0.54-0.42
						c0.56,0.46,1.13,0.91,1.68,1.38c2.05,1.76,3.96,3.67,5.73,5.71c0.46,0.53,0.91,1.07,1.36,1.62c0.18,0.23,0.5,0.51,0.61,0.77
						c0.07,0.16-1.12-1.49-0.67-0.86c0.13,0.18,0.27,0.35,0.4,0.53c0.86,1.17,1.68,2.37,2.46,3.6c1.95,3.09,3.61,6.34,5.04,9.69
						c-0.25-0.6-0.5-1.19-0.76-1.79c2.27,5.41,3.9,11.06,4.7,16.88c-0.09-0.66-0.18-1.33-0.27-1.99c0.67,5.21,0.67,10.46,0,15.67
						c0.09-0.66,0.18-1.33,0.27-1.99c-0.84,6.15-2.58,12.11-4.99,17.83c0.25-0.6,0.5-1.19,0.76-1.79
						c-3.18,7.41-7.41,14.35-12.13,20.88c-0.57,0.79-1.15,1.57-1.73,2.34c-0.18,0.23-1.07,1.4-0.3,0.4c0.8-1.04-0.36,0.45-0.56,0.71
						c-1.2,1.51-2.43,3-3.69,4.47c-2.47,2.87-5.04,5.65-7.7,8.35c-5.44,5.5-11.24,10.62-17.26,15.46c-0.7,0.56-1.41,1.12-2.12,1.68
						c-0.38,0.3-0.76,0.6-1.15,0.9c-0.19,0.15-0.8,0.62,0.1-0.08c0.95-0.74,0.14-0.11-0.07,0.05c-1.55,1.18-3.1,2.35-4.67,3.51
						c-3.5,2.57-7.06,5.06-10.68,7.47c-4.11,2.74-8.28,5.38-12.48,7.98c-2.1,1.3-4.21,2.58-6.32,3.85c-1.97,1.19-3.93,2.6-6.05,3.5
						c0.6-0.25,1.19-0.5,1.79-0.76c-0.99,0.38-2,0.62-3.05,0.77c0.66-0.09,1.33-0.18,1.99-0.27c-0.94,0.11-1.86,0.13-2.8,0.03
						c0.66,0.09,1.33,0.18,1.99,0.27c-0.63-0.09-1.24-0.22-1.84-0.44c0.6,0.25,1.19,0.5,1.79,0.76
						c-7.78-3.41-15.35-7.54-22.75-11.71c-7.41-4.17-14.65-8.66-21.63-13.52c-1.7-1.18-3.38-2.39-5.04-3.62
						c-0.83-0.61-1.66-1.23-2.48-1.86c-0.21-0.16-1.81-1.39-0.72-0.55c0.91,0.7,0.3,0.23,0.1,0.08c-0.27-0.21-0.54-0.43-0.81-0.64
						c-3.37-2.65-6.65-5.41-9.84-8.27c-6.39-5.73-12.42-11.9-17.93-18.48c-0.73-0.88-1.45-1.76-2.16-2.66
						c-0.12-0.16-0.25-0.32-0.37-0.47c-0.9-1.15,0.84,1.11,0.32,0.41c-0.36-0.48-0.72-0.96-1.08-1.44
						c-1.33-1.81-2.61-3.66-3.81-5.55c-2.45-3.85-4.6-7.87-6.39-12.07c0.25,0.6,0.5,1.19,0.76,1.79c-2.34-5.56-3.97-11.38-4.8-17.36
						c0.09,0.66,0.18,1.33,0.27,1.99c-0.74-5.65-0.79-11.39-0.04-17.04c-0.09,0.66-0.18,1.33-0.27,1.99
						c0.72-5.26,2.13-10.4,4.18-15.3c-0.25,0.6-0.5,1.19-0.76,1.79c1.15-2.7,2.48-5.32,4-7.83c0.76-1.24,1.56-2.46,2.4-3.65
						c0.39-0.54,0.82-1.06,1.19-1.62c0.1-0.15-1.15,1.46-0.66,0.86c0.1-0.13,0.21-0.26,0.31-0.39c0.28-0.35,0.56-0.69,0.85-1.03
						c1.81-2.17,3.78-4.21,5.89-6.1c0.53-0.48,1.08-0.95,1.63-1.41c0.25-0.21,0.51-0.42,0.77-0.63c0.13-0.1,0.26-0.2,0.39-0.31
						c0.67-0.56-1.43,1.08-0.73,0.56c1.16-0.85,2.31-1.7,3.51-2.48c2.73-1.78,5.61-3.3,8.6-4.59c-0.6,0.25-1.19,0.5-1.79,0.76
						c4.42-1.86,9.05-3.15,13.8-3.81c-0.66,0.09-1.33,0.18-1.99,0.27c4.75-0.63,9.55-0.62,14.31-0.01
						c-0.66-0.09-1.33-0.18-1.99-0.27c4.65,0.63,9.16,1.86,13.49,3.66c-0.6-0.25-1.19-0.5-1.79-0.76c2.37,1.01,4.68,2.18,6.89,3.51
						c1.12,0.67,2.21,1.38,3.29,2.12c0.54,0.38,1.08,0.76,1.6,1.15c0.41,0.31,1.47,1.27-0.25-0.21c0.25,0.22,0.52,0.41,0.78,0.62
						c4.68,3.77,8.65,8.26,12.8,12.59C561.04,310.98,566.22,311.09,568.92,308.15c2.8-3.04,2.9-7.58,0-10.61
						c-4.1-4.28-8.03-8.72-12.65-12.46c-4.36-3.54-8.97-6.71-14.09-9.04c-10.06-4.6-21.28-6.74-32.32-5.38
						c-9.84,1.21-19.28,4.41-27.55,9.96c-8.14,5.47-15.03,12.61-20.15,20.98c-11.01,18.02-12.69,40.87-5.34,60.57
						c4.03,10.8,10.15,20.35,17.5,29.18c7.04,8.46,14.92,16.22,23.36,23.28c17.16,14.35,36.36,25.93,56.42,35.73
						c2.61,1.28,5.35,2.97,8.24,3.41c4.07,0.62,7.87,0.1,11.63-1.56c2.61-1.15,5.04-2.89,7.48-4.37c2.66-1.61,5.31-3.23,7.94-4.88
						c10.53-6.59,20.69-13.69,30.4-21.44c8.52-6.79,16.6-14.16,23.85-22.3c7.7-8.66,14.76-18.2,20.03-28.55
						c5.61-11.01,9.18-23.13,9.01-35.58c-0.16-12.19-3.76-24.32-9.78-34.89c-8.87-15.56-24.31-27.81-42.27-30.62
						c-8.95-1.4-18.04-0.98-26.73,1.74c-9.27,2.9-17.64,7.98-24.79,14.52c-3.93,3.59-7.28,7.73-10.82,11.69
						c-2.61,2.93-3.1,7.76,0,10.61C561.17,310.77,566.13,311.27,568.92,308.15z"/>
				</g>
			</g>
			<g>
				<g>
					<path class="st3" d="M496.29,369.57c6.46,0,12.91,0,19.37,0c0.93,0,1.86,0,2.79,0c-1.77-0.73-3.54-1.46-5.3-2.2
						c5.62,6.23,11.25,12.45,16.87,18.68c0.79,0.88,1.59,1.76,2.38,2.63c3.89,4.3,11.02,1.87,12.54-3.31
						c1.99-6.78,3.97-13.57,5.96-20.35c3.17-10.82,6.34-21.64,9.51-32.46c0.73-2.49,1.46-4.99,2.19-7.48c-4.82,0-9.64,0-14.46,0
						c2.09,8.65,4.19,17.29,6.28,25.94c3.33,13.78,6.67,27.55,10,41.33c0.76,3.15,1.53,6.31,2.29,9.46
						c0.74,3.07,4.04,5.65,7.23,5.51c3.39-0.15,6.21-2.24,7.23-5.51c3.02-9.69,6.05-19.38,9.07-29.07c0.43-1.37,0.86-2.74,1.28-4.12
						c-2.41,1.84-4.82,3.67-7.23,5.51c5.79,0,11.58,0,17.37,0c9.24,0,18.47,0,27.71,0c2.13,0,4.25,0,6.38,0
						c3.92,0,7.68-3.45,7.5-7.5c-0.18-4.06-3.3-7.5-7.5-7.5c-5.79,0-11.58,0-17.37,0c-9.24,0-18.47,0-27.71,0c-2.13,0-4.25,0-6.38,0
						c-3.39,0-6.25,2.34-7.23,5.51c-3.02,9.69-6.05,19.38-9.07,29.07c-0.43,1.37-0.86,2.74-1.28,4.12c4.82,0,9.64,0,14.46,0
						c-2.09-8.65-4.19-17.29-6.28-25.94c-3.33-13.78-6.67-27.55-10-41.33c-0.76-3.15-1.53-6.31-2.29-9.46
						c-0.74-3.07-4.04-5.65-7.23-5.51c-3.35,0.15-6.27,2.23-7.23,5.51c-1.99,6.78-3.97,13.57-5.96,20.35
						c-3.17,10.82-6.34,21.64-9.51,32.46c-0.73,2.49-1.46,4.99-2.19,7.48c4.18-1.1,8.36-2.21,12.54-3.31
						C538,372.54,533,367,528,361.47c-1.12-1.24-2.23-2.47-3.35-3.71c-1.67-1.85-3.56-3.08-6.29-3.18c-3.53-0.14-7.08,0-10.61,0
						c-3.82,0-7.64,0-11.45,0c-3.92,0-7.68,3.45-7.5,7.5C488.97,366.13,492.09,369.57,496.29,369.57L496.29,369.57z"/>
				</g>
			</g>
			<circle class="st3" cx="534" cy="230.99" r="18"/>
			<circle class="st3" cx="594" cy="230.99" r="18"/>
		</g>
	</g>
</g>
</svg>
