<?xml version="1.0" encoding="utf-8"?>
<!-- Generator: Adobe Illustrator 24.2.3, SVG Export Plug-In . SVG Version: 6.00 Build 0)  -->
<svg version="1.1" id="Capa_1" xmlns="http://www.w3.org/2000/svg" xmlns:xlink="http://www.w3.org/1999/xlink" x="0px" y="0px"
	 viewBox="0 0 1080 1080" style="enable-background:new 0 0 1080 1080;" xml:space="preserve">
<style type="text/css">
	.st0{opacity:0.4;}
	.st1{fill:#A8A9AD;}
	.st2{fill:#29AAE3;}
	.st3{fill:#093548;}
	.st4{fill:none;stroke:#093548;stroke-width:8;stroke-linecap:round;stroke-miterlimit:10;}
	.st5{fill:none;stroke:#093548;stroke-width:8;stroke-linecap:round;stroke-miterlimit:10;stroke-dasharray:35.2576,35.2576;}
	.st6{opacity:0.2;}
	.st7{fill:#9291A1;}
	.st8{fill:#FFFFFF;}
	.st9{fill:url(#SVGID_1_);}
	.st10{fill:url(#SVGID_2_);}
	.st11{fill:url(#SVGID_3_);}
	.st12{fill:url(#SVGID_4_);}
	.st13{fill:url(#SVGID_5_);}
	.st14{fill:url(#SVGID_6_);}
	.st15{fill:url(#SVGID_7_);}
	.st16{fill:url(#SVGID_8_);}
	.st17{fill:url(#SVGID_9_);}
	.st18{fill:url(#SVGID_10_);}
	.st19{fill:url(#SVGID_11_);}
</style>
<g>
	<g>
		<g>
			<g class="st6">
				<g>
					<path class="st2" d="M358.44,601.05c-67.97-2.1-101.48-68.09-79.54-120.99c5.51-13.27,16.91-24.08,25.43-36.13
						c2.08-2.95,5.23-6.54,4.93-9.54c-1.51-15.25-0.04-29.78,7.62-43.03c-26.07-26.2-32.25-52.89-19.69-83.58
						c13.13-32.08,46.46-54.19,81.79-54.25c3.94-0.01,7.88,0,11.78,0c1.08-8.94,1.09-17.79,3.33-26.04
						c7.6-27.98,34.81-48.68,68.39-50.73c12.79-0.78,26.44,0.57,38.61,4.41c21.54,6.8,33.2,25.07,33.21,47.64
						c0.09,139.7,0.13,279.4,0.09,419.11c-0.01,28.98-18.28,49.73-48.6,55.78c-64.47,12.87-123.96-34.03-126.56-99.74
						C359.19,603.26,358.86,602.58,358.44,601.05z"/>
				</g>
			</g>
			<g class="st0">
				<g>
					<path class="st1" d="M773.74,659.8c-2.6,65.72-62.09,112.61-126.56,99.74c-30.33-6.05-48.6-26.8-48.6-55.78
						c-0.04-139.7,0-279.4,0.09-419.11c0.01-22.57,11.67-40.84,33.21-47.64c12.17-3.84,25.82-5.2,38.61-4.41
						c33.57,2.05,60.79,22.75,68.39,50.73c2.24,8.25,2.25,17.1,3.33,26.04c3.9,0,7.84-0.01,11.78,0
						c35.33,0.06,68.66,22.17,81.79,54.25c12.56,30.69,6.39,57.38-19.69,83.58c7.66,13.26,9.13,27.78,7.62,43.03
						c-0.3,3,2.85,6.6,4.93,9.54c8.52,12.06,19.92,22.86,25.43,36.13c21.94,52.89-11.57,118.89-79.54,120.99
						C774.1,658.42,773.77,659.1,773.74,659.8z"/>
				</g>
			</g>
			<g>
				<g>
					<g>
						<path class="st3" d="M380.49,621.31c-2.23-0.08-4.46-0.21-6.68-0.42c-0.48-0.05-0.97-0.1-1.45-0.15
							c0.12,0.01-2.24-0.27-1.16-0.13c0.89,0.12-0.59-0.09-0.78-0.12c-0.7-0.11-1.41-0.22-2.11-0.34c-4.2-0.73-8.35-1.74-12.41-3.04
							c-1.8-0.58-3.59-1.22-5.35-1.91c-0.51-0.2-1.02-0.41-1.53-0.62c0.27,0.11,1.29,0.58-0.02-0.02c-0.99-0.46-1.98-0.9-2.96-1.38
							c-3.45-1.69-6.78-3.6-9.97-5.74c-0.87-0.58-1.73-1.19-2.58-1.8c-0.42-0.31-2.18-1.66-0.98-0.71
							c-1.54-1.22-3.05-2.49-4.51-3.81c-2.81-2.54-5.45-5.28-7.89-8.18c-0.52-0.62-1.03-1.26-1.55-1.89
							c-1.25-1.53,0.6,0.81-0.13-0.17c-0.3-0.41-0.61-0.81-0.91-1.22c-1.07-1.48-2.1-2.99-3.07-4.53c-2-3.16-3.8-6.45-5.38-9.84
							c-0.38-0.82-0.75-1.65-1.11-2.49c0.64,1.48-0.18-0.47-0.39-1.01c-0.73-1.88-1.4-3.79-2-5.71c-1.08-3.47-1.96-7.01-2.61-10.59
							c-0.16-0.9-0.31-1.8-0.45-2.7c-0.04-0.25-0.22-1.55-0.08-0.51c0.16,1.22-0.09-0.77-0.09-0.81c-0.2-1.82-0.35-3.64-0.45-5.46
							c-0.19-3.77-0.14-7.55,0.15-11.31c0.07-0.92,0.16-1.84,0.25-2.76c0.06-0.52,0.38-2.77,0.12-1.06c0.31-2.04,0.66-4.07,1.1-6.09
							c0.8-3.67,1.83-7.29,3.09-10.83c0.32-0.89,0.66-1.78,1-2.67c0.1-0.26,0.63-1.53,0.18-0.47c0.23-0.53,0.47-1.05,0.72-1.57
							c1.12-2.35,2.41-4.62,3.81-6.82c2.92-4.59,5.83-8.23,9.2-12.38c4.05-4.99,8.05-10.01,11.83-15.22c1.85-2.54,3.68-5,4.74-8
							c1.14-3.23,0.54-6.46,0.36-9.79c-0.65-12.22,0.98-23.55,6.98-34.14c1.65-2.91,1.19-6.7-1.17-9.09
							c-5.23-5.29-9.57-10.3-13.47-16.37c-3.73-5.79-6.07-10.56-7.87-16.49c-0.86-2.83-1.49-5.72-1.97-8.64
							c-0.39-2.35,0.08,1.45-0.11-0.92c-0.06-0.73-0.14-1.46-0.19-2.2c-0.12-1.72-0.17-3.45-0.14-5.17c0.02-1.5,0.09-2.99,0.22-4.48
							c0.06-0.75,0.14-1.51,0.22-2.26c0.02-0.19,0.21-1.46,0.03-0.28c0.51-3.38,1.26-6.72,2.2-10c3.4-11.77,9.49-22.71,17.76-31.58
							c2.07-2.22,4.25-4.34,6.54-6.34c1.14-1,2.31-1.98,3.51-2.92c-0.82,0.65,0.18-0.14,0.29-0.22c0.81-0.61,1.63-1.2,2.47-1.79
							c2.5-1.75,5.08-3.37,7.74-4.86c1.33-0.75,2.68-1.46,4.05-2.14c0.68-0.34,1.37-0.67,2.07-0.99c0.24-0.11,2.76-1.23,1.71-0.79
							c6.62-2.82,13.57-4.61,20.63-5.83c2.47-0.43-1.43,0.13,1.06-0.15c1.02-0.12,2.05-0.23,3.08-0.31c1.8-0.15,3.61-0.24,5.43-0.28
							c4.44-0.09,8.9-0.02,13.34-0.02c4.4,0,7.03-3.46,7.5-7.5c0.93-8.01,0.94-15.9,2.94-23.59c0.36-1.38,0.78-2.75,1.24-4.11
							c0.22-0.66,0.46-1.31,0.7-1.95c0.12-0.32,0.25-0.64,0.37-0.97c0.49-1.29-0.17,0.33,0.18-0.43c1.2-2.62,2.52-5.17,4.04-7.62
							c0.73-1.18,1.5-2.33,2.3-3.45c0.4-0.56,0.81-1.13,1.24-1.67c-0.8,1.04,0.81-0.96,1.01-1.19c1.89-2.23,3.93-4.34,6.09-6.31
							c1.05-0.96,2.12-1.88,3.23-2.78c0.28-0.22,0.55-0.45,0.84-0.67c-0.12,0.09-0.79,0.59-0.1,0.09c0.77-0.57,1.54-1.13,2.33-1.67
							c2.5-1.72,5.1-3.29,7.78-4.69c1.31-0.69,2.63-1.34,3.98-1.95c0.28-0.13,1.95-0.84,0.94-0.43c0.92-0.38,1.86-0.74,2.8-1.09
							c2.98-1.1,6.03-2.02,9.11-2.77c7.04-1.71,12.19-2.2,19.82-2.22c7.99-0.03,15.49,0.71,23.19,2.5
							c3.62,0.84,7.24,1.85,10.69,3.25c0.81,0.33,0.04,0.02-0.1-0.04c0.33,0.15,0.66,0.3,0.99,0.46c0.65,0.31,1.29,0.63,1.93,0.96
							c1.35,0.71,2.67,1.49,3.94,2.33c0.58,0.38,1.14,0.79,1.71,1.18c1.13,0.78-0.38-0.39,0.65,0.51c1.2,1.04,2.38,2.08,3.49,3.21
							c0.94,0.96,1.82,1.98,2.68,3.01c0.88,1.06-0.31-0.53,0.45,0.62c0.43,0.65,0.89,1.29,1.32,1.95c0.73,1.14,1.4,2.31,2.02,3.51
							c0.31,0.6,0.61,1.21,0.9,1.83c0.15,0.31,0.29,0.62,0.42,0.93c-0.44-0.99-0.03-0.08,0.15,0.43c1.02,2.74,1.84,5.54,2.41,8.41
							c0.14,0.7,0.26,1.41,0.38,2.12c0.24,1.41-0.02-0.54,0.12,0.89c0.16,1.73,0.3,3.46,0.34,5.19c0.1,4.19,0.02,8.38,0.03,12.57
							c0.01,8.95,0.01,17.9,0.02,26.85c0.02,35.8,0.04,71.61,0.05,107.41s0.02,71.61,0.03,107.41s0,71.61,0,107.41
							c0,17.9-0.01,35.8-0.01,53.7c0,3.65,0.07,7.31-0.24,10.95c-0.06,0.69-0.13,1.38-0.21,2.07c0.15-1.31-0.04,0.24-0.12,0.72
							c-0.24,1.44-0.53,2.86-0.88,4.28c-0.31,1.28-0.67,2.55-1.08,3.8c-0.2,0.62-0.41,1.24-0.64,1.85c-0.11,0.3-0.22,0.61-0.34,0.91
							c-0.07,0.18-0.75,1.8-0.35,0.89c0.31-0.71-0.42,0.89-0.55,1.15c-0.28,0.57-0.56,1.14-0.86,1.71
							c-0.64,1.22-1.33,2.41-2.07,3.57c-0.68,1.07-1.41,2.1-2.16,3.12c0.76-1.03-0.07,0.08-0.4,0.47c-0.54,0.65-1.1,1.29-1.67,1.91
							c-1.82,1.98-3.79,3.77-5.87,5.47c-0.66,0.54,0.14-0.1,0.23-0.17c-0.26,0.2-0.52,0.39-0.79,0.58
							c-0.54,0.38-1.07,0.77-1.62,1.13c-1.29,0.87-2.62,1.69-3.98,2.46c-1.19,0.67-2.4,1.31-3.64,1.9c-0.63,0.3-1.26,0.59-1.89,0.88
							c-0.78,0.36,0.05-0.01,0.18-0.06c-0.44,0.18-0.88,0.36-1.32,0.53c-5.91,2.29-12.06,3.68-18.31,4.65
							c-0.89,0.14,0.02,0.01,0.17-0.01c-0.36,0.05-0.73,0.09-1.09,0.14c-0.73,0.09-1.46,0.17-2.19,0.24
							c-1.69,0.17-3.38,0.3-5.07,0.39c-2.98,0.16-5.97,0.19-8.96,0.1c-3.06-0.09-6.1-0.37-9.15-0.68c-1.47-0.15,0.67,0.12-0.78-0.1
							c-0.69-0.1-1.38-0.21-2.07-0.32c-1.48-0.25-2.96-0.52-4.44-0.83c-5.71-1.2-11.33-2.87-16.76-5.01
							c-0.63-0.25-1.27-0.5-1.9-0.77c1.16,0.48-0.32-0.15-0.71-0.32c-1.45-0.65-2.88-1.32-4.3-2.03c-2.52-1.27-5-2.63-7.41-4.1
							c-2.5-1.52-4.95-3.14-7.31-4.87c-0.55-0.4-1.09-0.8-1.63-1.21c-0.68-0.51,0.08,0.06,0.18,0.14c-0.27-0.21-0.53-0.42-0.79-0.63
							c-1.14-0.92-2.27-1.85-3.37-2.81c-4.34-3.78-8.37-7.91-12.04-12.34c-0.43-0.52-0.86-1.05-1.28-1.58
							c-0.21-0.27-0.42-0.53-0.63-0.8c0.08,0.1,0.65,0.85,0.14,0.17c-0.95-1.28-1.88-2.56-2.78-3.88c-1.61-2.36-3.13-4.78-4.54-7.25
							c-1.48-2.6-2.85-5.26-4.11-7.98c-0.29-0.63-0.57-1.27-0.86-1.9c-0.58-1.28,0.19,0.53-0.33-0.78
							c-0.56-1.41-1.11-2.82-1.62-4.25c-2.04-5.71-3.59-11.59-4.63-17.56c-0.13-0.72-0.24-1.43-0.35-2.15
							c-0.06-0.38-0.29-2.13-0.14-0.9c-0.2-1.58-0.37-3.17-0.5-4.76c-0.28-3.34-0.4-6.5-1.35-9.74c-1.14-3.89-5.27-6.32-9.23-5.24
							c-3.87,1.06-6.38,5.33-5.24,9.23c0.04,0.13,0.67,1.99,0.62,2.02c0.1-0.06-0.13-1.95-0.07-0.36c0.01,0.37,0.04,0.75,0.06,1.12
							c0.1,1.73,0.23,3.45,0.41,5.18c0.37,3.57,0.86,7.14,1.52,10.66c1.17,6.29,2.89,12.48,5.17,18.46
							c4.65,12.22,11.18,23.39,19.58,33.42c15.99,19.09,38.83,32.62,63.25,37.48c25.48,5.08,55.63,2.63,76.78-13.71
							c9.97-7.71,17.25-18.31,20.77-30.43c1.83-6.3,2.58-12.95,2.59-19.5c0.02-9.3,0-18.6,0.01-27.91
							c0.01-37.38,0.01-74.77,0.01-112.15c0-37.38-0.01-74.77-0.02-112.15c-0.01-37.38-0.03-74.77-0.05-112.15
							c-0.01-18.45,0.29-36.92-0.04-55.37c-0.25-13.86-4.67-27.33-13.78-37.89c-9.6-11.14-23.64-16.52-37.81-18.92
							c-16.05-2.72-32.9-2.65-48.61,1.93c-25.88,7.56-48.93,27.6-55.18,54.54c-1.99,8.58-2.12,17.47-3.13,26.19c2.5-2.5,5-5,7.5-7.5
							c-7.68,0-15.36-0.24-22.99,0.76c-7.17,0.93-14.18,2.48-20.98,4.98c-13.4,4.93-25.72,12.54-35.9,22.58
							c-20.2,19.91-32.11,50.32-25.67,78.54c3.87,16.94,14.31,31.59,26.34,43.77c-0.39-3.03-0.78-6.06-1.17-9.09
							c-6.05,10.67-8.91,22.62-9.15,34.84c-0.06,2.91,0.03,5.82,0.24,8.72c0.01,0.17,0.23,3.9,0.29,3.91
							c-0.6-0.07,0.31-0.92,0.22-1.05c0.17,0.24-1.28,2.19-1.47,2.46c-3.07,4.54-6.03,8.26-9.43,12.45
							c-7.5,9.24-15.01,18.35-19.55,29.47c-3.23,7.91-5.14,16.13-6.17,24.6c-4.03,32.85,10.29,66.33,36.48,86.37
							c16.23,12.43,36.29,18.52,56.59,19.22c4.05,0.14,7.5-3.55,7.5-7.5C387.99,624.63,384.55,621.45,380.49,621.31z"/>
					</g>
				</g>
				<g>
					<g>
						<path class="st3" d="M550.4,321.1c-0.45,0.39-0.9,0.77-1.36,1.15c-0.21,0.17-0.99,0.78-0.02,0.03
							c0.98-0.75,0.19-0.15-0.03,0.01c-0.96,0.71-1.94,1.38-2.95,2.01c-1.98,1.23-4.04,2.3-6.18,3.22c0.6-0.25,1.19-0.5,1.79-0.76
							c-3.76,1.58-7.7,2.65-11.74,3.2c0.66-0.09,1.33-0.18,1.99-0.27c-3.92,0.49-7.86,0.49-11.77-0.01
							c0.66,0.09,1.33,0.18,1.99,0.27c-4.02-0.54-7.94-1.61-11.68-3.18c0.6,0.25,1.19,0.5,1.79,0.76c-2.63-1.13-5.16-2.49-7.53-4.09
							c-0.54-0.37-1.08-0.75-1.61-1.14c-1.36-1,0.8,0.65,0.35,0.28c-0.29-0.25-0.6-0.48-0.89-0.72c-1.05-0.87-2.06-1.8-3.02-2.76
							s-1.89-1.97-2.76-3.02c-0.21-0.25-0.41-0.51-0.62-0.76c-0.83-1.01,1.21,1.64,0.27,0.35c-0.42-0.58-0.84-1.15-1.23-1.74
							c-1.6-2.38-2.96-4.9-4.09-7.53c0.25,0.6,0.5,1.19,0.76,1.79c-1.58-3.74-2.64-7.66-3.18-11.68c0.09,0.66,0.18,1.33,0.27,1.99
							c-0.51-3.99-0.5-8.02,0.03-12.01c-0.09,0.66-0.18,1.33-0.27,1.99c0.55-3.93,1.6-7.75,3.13-11.41c-0.25,0.6-0.5,1.19-0.76,1.79
							c1.12-2.61,2.46-5.12,4.04-7.48c0.36-0.53,0.73-1.06,1.1-1.58c0.33-0.44,1.26-1.4-0.24,0.29c0.25-0.29,0.48-0.6,0.72-0.9
							c0.9-1.08,1.85-2.12,2.84-3.12c2.77-2.79,2.99-7.86,0-10.61c-2.98-2.74-7.65-2.98-10.61,0c-7.75,7.82-13.14,18.09-14.7,29.02
							c-1.53,10.75,0,21.32,4.66,31.14c8.33,17.58,26.79,29,46.1,29.44c13.29,0.31,26.05-4.67,36.02-13.35c2.97-2.58,2.84-8,0-10.61
							C557.84,318.19,553.57,318.34,550.4,321.1L550.4,321.1z"/>
					</g>
				</g>
				<g>
					<g>
						<path class="st3" d="M468.68,585.38c-0.45,0.39-0.9,0.77-1.36,1.15c-0.21,0.17-0.99,0.78-0.02,0.03
							c0.98-0.75,0.19-0.15-0.03,0.01c-0.96,0.71-1.94,1.38-2.95,2.01c-1.98,1.23-4.04,2.3-6.18,3.22c0.6-0.25,1.19-0.5,1.79-0.76
							c-3.76,1.58-7.7,2.65-11.74,3.2c0.66-0.09,1.33-0.18,1.99-0.27c-3.92,0.49-7.86,0.49-11.77-0.01
							c0.66,0.09,1.33,0.18,1.99,0.27c-4.02-0.54-7.94-1.61-11.68-3.18c0.6,0.25,1.19,0.5,1.79,0.76c-2.63-1.13-5.16-2.49-7.53-4.09
							c-0.54-0.37-1.08-0.75-1.61-1.14c-1.36-1,0.8,0.65,0.35,0.28c-0.29-0.25-0.6-0.48-0.89-0.72c-1.05-0.87-2.06-1.8-3.02-2.76
							s-1.89-1.97-2.76-3.02c-0.21-0.25-0.41-0.51-0.62-0.76c-0.83-1.01,1.21,1.64,0.27,0.35c-0.42-0.58-0.84-1.15-1.23-1.74
							c-1.6-2.38-2.96-4.9-4.09-7.53c0.25,0.6,0.5,1.19,0.76,1.79c-1.58-3.74-2.64-7.66-3.18-11.68c0.09,0.66,0.18,1.33,0.27,1.99
							c-0.51-3.99-0.5-8.02,0.03-12.01c-0.09,0.66-0.18,1.33-0.27,1.99c0.55-3.93,1.6-7.75,3.13-11.41c-0.25,0.6-0.5,1.19-0.76,1.79
							c1.12-2.61,2.46-5.12,4.04-7.48c0.36-0.53,0.73-1.06,1.1-1.58c0.33-0.44,1.26-1.4-0.24,0.29c0.25-0.29,0.48-0.6,0.72-0.9
							c0.9-1.08,1.85-2.12,2.84-3.12c2.77-2.79,2.99-7.86,0-10.61c-2.98-2.74-7.65-2.98-10.61,0c-7.75,7.82-13.14,18.09-14.7,29.02
							c-1.53,10.75,0,21.32,4.66,31.14c8.33,17.58,26.79,29,46.1,29.44c13.29,0.31,26.05-4.67,36.02-13.35c2.97-2.58,2.84-8,0-10.61
							C476.12,582.48,471.85,582.63,468.68,585.38L468.68,585.38z"/>
					</g>
				</g>
				<g>
					<g>
						<path class="st3" d="M484.47,668.85c-0.19-0.96-0.35-1.93-0.49-2.9c0.09,0.66,0.18,1.33,0.27,1.99
							c-0.44-3.51-0.43-7.04,0.03-10.55c-0.09,0.66-0.18,1.33-0.27,1.99c0.49-3.45,1.4-6.79,2.73-10.01
							c-0.25,0.6-0.5,1.19-0.76,1.79c1.12-2.65,2.5-5.18,4.14-7.53c0.38-0.54,1.86-2.31,0.17-0.29c0.37-0.44,0.72-0.89,1.09-1.33
							c0.81-0.95,1.67-1.86,2.56-2.72c0.85-0.82,1.73-1.6,2.64-2.34c0.94-0.76-0.35,0.29-0.6,0.45c0.28-0.18,0.54-0.4,0.8-0.6
							c0.45-0.33,0.91-0.64,1.37-0.95c2.03-1.34,4.17-2.48,6.4-3.44c-0.6,0.25-1.19,0.5-1.79,0.76c3.35-1.41,6.85-2.37,10.45-2.87
							c-0.66,0.09-1.33,0.18-1.99,0.27c3.52-0.46,7.06-0.46,10.58-0.01c-0.66-0.09-1.33-0.18-1.99-0.27
							c3.49,0.48,6.88,1.4,10.14,2.75c-0.6-0.25-1.19-0.5-1.79-0.76c2.24,0.95,4.4,2.08,6.44,3.41c0.55,0.36,1.09,0.73,1.62,1.11
							c0.41,0.3,1.52,1.24-0.27-0.24c0.2,0.16,0.41,0.32,0.61,0.48c1.04,0.85,2.04,1.75,3,2.7c0.9,0.89,1.75,1.83,2.55,2.81
							c0.11,0.14,0.46,0.69,0.59,0.73c-0.24-0.07-1.18-1.56-0.38-0.47c0.37,0.5,0.73,1.02,1.08,1.54c1.41,2.12,2.61,4.38,3.6,6.73
							c-0.25-0.6-0.5-1.19-0.76-1.79c0.66,1.6,1.23,3.24,1.69,4.91c1.05,3.78,5.36,6.49,9.23,5.24c3.86-1.25,6.37-5.18,5.24-9.23
							c-2.55-9.14-7.84-17.76-15.24-23.77c-4.18-3.4-8.55-5.98-13.54-8c-4.12-1.67-8.4-2.53-12.81-3
							c-17.47-1.87-34.83,7.08-44.33,21.63c-6.9,10.56-8.93,23.5-6.48,35.77c0.77,3.85,5.56,6.42,9.23,5.24
							C483.32,676.75,485.29,672.98,484.47,668.85L484.47,668.85z"/>
					</g>
				</g>
				<g>
					<g>
						<path class="st3" d="M470.79,356.43c0.97,0.62,1.92,1.27,2.84,1.95c0.42,0.32,1.23,1.04-0.51-0.4
							c0.19,0.15,0.38,0.3,0.57,0.45c0.42,0.34,0.84,0.69,1.25,1.05c1.73,1.51,3.34,3.14,4.83,4.89c0.35,0.41,0.69,0.84,1.03,1.26
							c0.63,0.78-0.46-0.53-0.51-0.66c0.1,0.24,0.38,0.52,0.54,0.73c0.67,0.93,1.31,1.89,1.92,2.87c1.21,1.97,2.27,4.04,3.18,6.16
							c-0.25-0.6-0.5-1.19-0.76-1.79c1.59,3.79,2.67,7.76,3.23,11.84c-0.09-0.66-0.18-1.33-0.27-1.99
							c0.53,4.11,0.53,8.26-0.01,12.37c0.09-0.66,0.18-1.33,0.27-1.99c-0.56,4.01-1.62,7.91-3.18,11.65c0.25-0.6,0.5-1.19,0.76-1.79
							c-1.16,2.73-2.56,5.35-4.22,7.81c-0.4,0.59-0.81,1.16-1.23,1.74c-0.93,1.29,1.1-1.37,0.28-0.35
							c-0.21,0.25-0.41,0.51-0.62,0.76c-0.94,1.13-1.93,2.22-2.96,3.26s-2.13,2.03-3.26,2.96c-0.25,0.21-0.51,0.41-0.76,0.62
							c-1.01,0.82,1.47-1.1,0.48-0.38c-0.62,0.45-1.23,0.9-1.87,1.32c-2.46,1.65-5.08,3.06-7.81,4.22c0.6-0.25,1.19-0.5,1.79-0.76
							c-3.74,1.56-7.64,2.62-11.65,3.18c0.66-0.09,1.33-0.18,1.99-0.27c-4.08,0.53-8.19,0.54-12.27,0.03
							c0.66,0.09,1.33,0.18,1.99,0.27c-4.13-0.56-8.14-1.65-11.98-3.26c0.6,0.25,1.19,0.5,1.79,0.76c-2.42-1.04-4.75-2.26-6.96-3.69
							c-0.5-0.32-0.99-0.65-1.48-1c-0.29-0.2-0.58-0.41-0.87-0.62c-0.25-0.18-1.16-0.88-0.09-0.06c1.06,0.82,0.16,0.12-0.08-0.08
							c-0.28-0.22-0.55-0.45-0.82-0.68c-0.5-0.42-0.98-0.85-1.46-1.3c-0.91-0.84-1.79-1.73-2.64-2.64
							c-0.44-0.48-0.87-0.97-1.29-1.47c-0.42-0.5-1.8-2.41-0.28-0.28c-1.53-2.14-2.98-4.28-4.22-6.62
							c-1.83-3.47-6.96-4.82-10.26-2.69c-3.53,2.28-4.65,6.55-2.69,10.26c6.2,11.74,16.69,20.56,29.04,25.24
							c11.63,4.41,25.37,4.37,36.97-0.12c11.48-4.44,21.25-12.37,27.55-23.01c6.6-11.14,8.65-24.2,6.53-36.89
							c-2.46-14.76-11.77-27.83-24.28-35.82c-3.31-2.12-8.42-0.79-10.26,2.69C466.14,349.88,467.26,354.17,470.79,356.43
							L470.79,356.43z"/>
					</g>
				</g>
				<g>
					<g>
						<path class="st3" d="M389.54,485.9c-2.7,0.89-5.47,1.53-8.28,1.93c0.66-0.09,1.33-0.18,1.99-0.27
							c-4.1,0.55-8.24,0.56-12.35,0.04c0.66,0.09,1.33,0.18,1.99,0.27c-4.03-0.55-7.94-1.6-11.7-3.15c0.6,0.25,1.19,0.5,1.79,0.76
							c-2.97-1.25-5.81-2.79-8.46-4.63c-0.34-0.23-0.67-0.47-1-0.72c-0.47-0.34-1.35-1.3,0.2,0.17c-0.5-0.48-1.09-0.88-1.62-1.33
							c-1.08-0.93-2.12-1.91-3.11-2.94c-0.93-0.97-1.82-1.98-2.67-3.02c-0.34-0.42-1.11-1.54,0.32,0.42
							c-0.2-0.28-0.42-0.55-0.62-0.83c-0.4-0.56-0.8-1.13-1.17-1.7c-1.5-2.28-2.78-4.7-3.86-7.21c0.25,0.6,0.5,1.19,0.76,1.79
							c-1.62-3.84-2.72-7.85-3.28-11.98c0.09,0.66,0.18,1.33,0.27,1.99c-0.54-4.12-0.53-8.28,0.01-12.4
							c-0.09,0.66-0.18,1.33-0.27,1.99c0.57-4.06,1.66-8.01,3.25-11.78c-0.25,0.6-0.5,1.19-0.76,1.79c1.08-2.51,2.37-4.93,3.87-7.22
							c0.39-0.6,0.8-1.18,1.21-1.76c0.17-0.24,0.37-0.47,0.53-0.72c-1.31,1.92-0.65,0.83-0.29,0.38c0.98-1.22,2.02-2.39,3.12-3.5
							c1.04-1.06,2.13-2.06,3.27-3.01c0.29-0.25,0.59-0.48,0.89-0.73c0.7-0.57-1.46,1.09-0.46,0.36c0.61-0.45,1.23-0.89,1.86-1.32
							c2.49-1.68,5.14-3.09,7.9-4.26c-0.6,0.25-1.19,0.5-1.79,0.76c3.77-1.56,7.71-2.62,11.75-3.18c-0.66,0.09-1.33,0.18-1.99,0.27
							c4.04-0.52,8.11-0.53,12.15-0.01c-0.66-0.09-1.33-0.18-1.99-0.27c1.1,0.15,2.2,0.33,3.29,0.55c1.99,0.4,3.98,0.3,5.78-0.76
							c1.56-0.91,3.04-2.69,3.45-4.48c0.85-3.73-1.13-8.4-5.24-9.23c-12.96-2.61-26.46-0.71-37.99,5.87
							c-11.34,6.47-19.86,17.09-24.14,29.37c-3.77,10.83-3.77,23.26-0.07,34.12c4.12,12.09,12.32,22.42,23.27,29.04
							c13.11,7.93,29.63,9.78,44.18,5.01c3.72-1.22,6.53-5.24,5.24-9.23C397.56,487.42,393.53,484.59,389.54,485.9L389.54,485.9z"/>
					</g>
				</g>
				<g>
					<g>
						<path class="st3" d="M549.01,443.96c-0.28,0.39-0.57,0.76-0.84,1.15c1.43-2.06,0.45-0.59,0.07-0.13
							c-0.6,0.72-1.22,1.41-1.86,2.08c-1.19,1.24-2.47,2.38-3.81,3.48c-0.97,0.8,1.67-1.24,0.17-0.14
							c-0.36,0.27-0.73,0.53-1.11,0.78c-0.65,0.44-1.32,0.86-1.99,1.26c-1.54,0.91-3.13,1.71-4.78,2.41c0.6-0.25,1.19-0.5,1.79-0.76
							c-3.28,1.37-6.71,2.29-10.23,2.77c0.66-0.09,1.33-0.18,1.99-0.27c-3.42,0.43-6.87,0.43-10.29-0.01
							c0.66,0.09,1.33,0.18,1.99,0.27c-3.48-0.48-6.86-1.4-10.1-2.75c0.6,0.25,1.19,0.5,1.79,0.76c-2.14-0.92-4.2-2.01-6.15-3.28
							c-0.51-0.33-1.01-0.67-1.5-1.03c-0.27-0.19-0.53-0.39-0.79-0.58c-0.69-0.51,1.53,1.26,0.44,0.33
							c-0.98-0.84-1.95-1.67-2.87-2.57c-0.9-0.89-1.76-1.82-2.56-2.8c-0.16-0.19-0.32-0.39-0.48-0.58c-0.92-1.12,1.1,1.5,0.26,0.33
							c-0.33-0.46-0.66-0.91-0.97-1.37c-1.41-2.1-2.61-4.34-3.6-6.67c0.25,0.6,0.5,1.19,0.76,1.79c-1.37-3.28-2.29-6.71-2.77-10.24
							c0.09,0.66,0.18,1.33,0.27,1.99c-0.43-3.41-0.43-6.85,0.01-10.26c0.23-1.77-1-4.11-2.2-5.3c-1.3-1.3-3.44-2.28-5.3-2.2
							c-1.94,0.09-3.95,0.72-5.3,2.2c-1.44,1.57-1.93,3.21-2.2,5.3c-1.07,8.43,0.55,16.89,3.93,24.62
							c3.46,7.91,9.36,14.52,16.43,19.4c12.4,8.57,29.35,10.43,43.29,4.69c4.56-1.88,8.55-4.2,12.42-7.27
							c3.53-2.8,6.44-6.16,9.05-9.83c1.07-1.5,1.23-4.07,0.76-5.78c-0.48-1.74-1.82-3.63-3.45-4.48
							C555.41,439.23,551.44,440.54,549.01,443.96L549.01,443.96z"/>
					</g>
				</g>
				<g>
					<g>
						<path class="st3" d="M424.19,323.79c-0.73-0.4-1.45-0.83-2.15-1.28c-0.3-0.2-0.59-0.4-0.89-0.6c-0.53-0.37-1.68-1.55,0.09,0.1
							c-1.14-1.06-2.33-2.01-3.39-3.17c-0.24-0.26-0.48-0.53-0.71-0.8c-0.18-0.22-1.2-1.51-0.31-0.35c0.89,1.15-0.1-0.16-0.27-0.39
							c-0.21-0.29-0.41-0.59-0.6-0.89c-0.92-1.42-1.71-2.91-2.38-4.46c0.25,0.6,0.5,1.19,0.76,1.79c-1.06-2.52-1.78-5.14-2.15-7.85
							c0.09,0.66,0.18,1.33,0.27,1.99c-0.34-2.7-0.34-5.4,0.02-8.09c-0.09,0.66-0.18,1.33-0.27,1.99c0.37-2.54,1.04-5.01,2.02-7.38
							c-0.25,0.6-0.5,1.19-0.76,1.79c0.73-1.71,1.59-3.36,2.61-4.92c0.27-0.41,0.55-0.81,0.84-1.21c0.85-1.2-1.12,1.35-0.18,0.23
							c0.63-0.75,1.27-1.48,1.96-2.18c0.65-0.66,1.33-1.28,2.04-1.88c0.17-0.14,0.34-0.27,0.51-0.41c0.79-0.65-0.74,0.57-0.74,0.57
							c0.01-0.21,1.02-0.73,1.2-0.85c1.6-1.08,3.31-1.99,5.08-2.75c-0.6,0.25-1.19,0.5-1.79,0.76c2.41-1,4.92-1.69,7.5-2.06
							c-0.66,0.09-1.33,0.18-1.99,0.27c2.72-0.36,5.45-0.37,8.17-0.02c-0.66-0.09-1.33-0.18-1.99-0.27
							c2.57,0.36,5.05,1.04,7.45,2.02c-0.6-0.25-1.19-0.5-1.79-0.76c1.39,0.59,2.74,1.27,4.04,2.05c0.67,0.41,1.32,0.84,1.96,1.3
							c0.48,0.35,1.32,1.23-0.37-0.3c0.27,0.24,0.56,0.45,0.83,0.69c1.1,0.94,2.13,1.95,3.08,3.04c0.24,0.27,0.46,0.55,0.7,0.83
							c0.89,1.04-1.03-1.42-0.29-0.37c0.49,0.69,0.97,1.39,1.42,2.11c2.07,3.33,6.79,4.93,10.26,2.69c3.34-2.15,4.91-6.7,2.69-10.26
							c-4.95-7.96-12.63-13.93-21.65-16.57c-8.96-2.62-18.49-1.54-26.87,2.38c-7.18,3.36-13.41,9.55-16.9,16.66
							c-4.01,8.16-5.12,17.37-2.91,26.22c2.48,9.93,9.31,18.65,18.27,23.57c3.44,1.89,8.34,0.95,10.26-2.69
							C428.73,330.53,427.86,325.81,424.19,323.79L424.19,323.79z"/>
					</g>
				</g>
				<g>
					<g>
						<path class="st3" d="M513.23,496.08c0.77,0.77,1.5,1.57,2.2,2.41c0.2,0.24,0.44,0.48,0.61,0.75c-0.09-0.15-1.06-1.42-0.47-0.6
							c0.34,0.47,0.68,0.94,1,1.42c1.26,1.88,2.32,3.88,3.22,5.96c-0.25-0.6-0.5-1.19-0.76-1.79c1.22,2.93,2.06,5.99,2.5,9.14
							c-0.09-0.66-0.18-1.33-0.27-1.99c0.42,3.24,0.43,6.51,0,9.75c0.09-0.66,0.18-1.33,0.27-1.99c-0.44,3.13-1.26,6.17-2.47,9.09
							c0.25-0.6,0.5-1.19,0.76-1.79c-0.91,2.13-2,4.17-3.29,6.1c-0.3,0.45-0.63,0.9-0.95,1.34c-0.68,0.95,1.03-1.28,0.48-0.61
							c-0.17,0.21-0.34,0.43-0.51,0.64c-0.73,0.88-1.5,1.73-2.31,2.54c-0.77,0.77-1.58,1.51-2.42,2.21
							c-0.21,0.17-0.42,0.34-0.63,0.52c-1.03,0.85,1.57-1.14,0.48-0.37c-0.45,0.32-0.89,0.64-1.34,0.95
							c-1.92,1.29-3.97,2.38-6.1,3.29c0.6-0.25,1.19-0.5,1.79-0.76c-2.92,1.21-5.96,2.04-9.09,2.47c0.66-0.09,1.33-0.18,1.99-0.27
							c-3.26,0.42-6.54,0.42-9.79-0.01c0.66,0.09,1.33,0.18,1.99,0.27c-3.17-0.45-6.26-1.3-9.21-2.55c0.6,0.25,1.19,0.5,1.79,0.76
							c-2.05-0.89-4.02-1.95-5.88-3.19c-0.46-0.31-0.91-0.64-1.36-0.96c-1.1-0.77,1.5,1.22,0.46,0.36
							c-0.17-0.14-0.35-0.28-0.52-0.42c-0.9-0.74-1.76-1.53-2.58-2.35c-0.78-0.79-1.53-1.61-2.23-2.46
							c-0.12-0.15-0.49-0.48-0.52-0.65c0.04,0.19,1.21,1.64,0.47,0.59c-0.32-0.45-0.65-0.9-0.96-1.36
							c-1.28-1.91-2.36-3.93-3.26-6.04c0.25,0.6,0.5,1.19,0.76,1.79c-1.19-2.85-2.01-5.83-2.46-8.88c-0.25-1.73-2.01-3.64-3.45-4.48
							c-1.61-0.94-3.98-1.34-5.78-0.76c-1.81,0.59-3.57,1.71-4.48,3.45c-1.01,1.9-1.07,3.67-0.76,5.78
							c1.44,9.83,6.79,19.37,14.39,25.77c8.17,6.89,18.47,10.88,29.23,10.67c10.59-0.21,20.64-4.27,28.53-11.28
							c7.95-7.07,12.65-16.93,13.97-27.38c1.65-13.03-3.24-26.36-12.43-35.64c-2.76-2.79-7.88-2.97-10.61,0
							C510.47,488.48,510.28,493.1,513.23,496.08L513.23,496.08z"/>
					</g>
				</g>
				<g>
					<g>
						<path class="st3" d="M421.82,587.36c-4.85-1.14-10.14-0.81-14.96,0.25c-10.35,2.26-18.83,9.43-24.34,18.28
							c-4.64,7.45-7.33,16.13-8.91,24.72c-0.37,2.02-0.31,3.95,0.76,5.78c0.91,1.56,2.69,3.04,4.48,3.45
							c3.68,0.84,8.47-1.11,9.23-5.24c1.01-5.5,2.46-10.92,4.63-16.08c-0.25,0.6-0.5,1.19-0.76,1.79c1.13-2.65,2.45-5.22,4.03-7.63
							c0.33-0.5,0.67-1,1.02-1.49c0.19-0.27,0.4-0.53,0.6-0.81c-1.55,2.23-0.83,1.06-0.42,0.56c0.71-0.87,1.46-1.71,2.24-2.52
							c0.73-0.75,1.5-1.46,2.3-2.13c0.21-0.18,0.43-0.35,0.64-0.52c0.83-0.68-1.86,1.38-0.71,0.56c0.37-0.27,0.75-0.54,1.13-0.8
							c1.52-1.02,3.14-1.89,4.82-2.61c-0.6,0.25-1.19,0.5-1.79,0.76c2.38-0.99,4.87-1.67,7.42-2.02c-0.66,0.09-1.33,0.18-1.99,0.27
							c2.44-0.32,4.94-0.36,7.38-0.03c-0.66-0.09-1.33-0.18-1.99-0.27c0.4,0.06,0.81,0.11,1.21,0.21c3.81,0.9,8.3-1.19,9.23-5.24
							C427.93,592.74,425.9,588.32,421.82,587.36L421.82,587.36z"/>
					</g>
				</g>
				<g>
					<g>
						<path class="st3" d="M749.57,631.71c-0.13,3.09-0.38,6.17-0.75,9.24c-0.11,0.89,0.01-0.03,0.03-0.18
							c-0.05,0.36-0.1,0.72-0.16,1.08c-0.13,0.84-0.26,1.68-0.41,2.51c-0.27,1.54-0.57,3.07-0.91,4.6
							c-1.27,5.77-3.03,11.4-5.22,16.88c-0.13,0.32-0.26,0.65-0.4,0.97c0.12-0.29,0.54-1.21-0.06,0.13
							c-0.29,0.63-0.56,1.27-0.86,1.9c-0.63,1.36-1.29,2.71-1.97,4.04c-1.31,2.55-2.73,5.04-4.24,7.47
							c-1.51,2.42-3.12,4.76-4.81,7.05c-0.11,0.15-0.97,1.29-0.44,0.6c0.48-0.63-0.2,0.26-0.25,0.32c-0.42,0.53-0.85,1.06-1.28,1.59
							c-0.93,1.14-1.89,2.25-2.87,3.35c-3.83,4.29-8.02,8.26-12.5,11.86c-0.32,0.26-1.59,1.24-0.61,0.49
							c-0.54,0.41-1.08,0.81-1.62,1.21c-1.18,0.87-2.38,1.71-3.6,2.52c-2.34,1.57-4.75,3.04-7.21,4.42
							c-2.57,1.44-5.19,2.76-7.87,3.98c-0.62,0.28-1.24,0.56-1.87,0.82c1.15-0.5-0.33,0.13-0.72,0.29
							c-1.37,0.55-2.76,1.07-4.15,1.56c-5.53,1.94-11.22,3.42-16.99,4.41c-0.69,0.12-1.37,0.23-2.06,0.33
							c-0.45,0.07-2.07,0.27-0.78,0.11c-1.51,0.18-3.03,0.34-4.54,0.47c-2.95,0.24-5.91,0.35-8.87,0.34
							c-3.13-0.01-6.26-0.16-9.38-0.44c-1.46-0.13-2.92-0.29-4.37-0.48c1.22,0.17-0.56-0.1-0.93-0.16
							c-0.86-0.14-1.71-0.28-2.57-0.44c-3.09-0.56-6.15-1.27-9.16-2.17c-1.51-0.45-3-0.95-4.48-1.5c-0.67-0.25-1.33-0.51-1.99-0.77
							c-0.81-0.33,0.04,0.02,0.17,0.07c-0.43-0.19-0.85-0.38-1.27-0.57c-2.57-1.19-5.07-2.55-7.45-4.08
							c-1.11-0.71-2.19-1.48-3.26-2.25c-0.69-0.5,0.13,0.11,0.22,0.18c-0.25-0.2-0.51-0.4-0.76-0.61c-0.58-0.48-1.16-0.97-1.72-1.47
							c-2.07-1.85-3.93-3.88-5.72-6c-0.91-1.08,0.43,0.68-0.37-0.49c-0.36-0.52-0.74-1.03-1.09-1.55c-0.77-1.14-1.49-2.31-2.16-3.51
							c-0.62-1.11-1.19-2.25-1.74-3.4c-0.14-0.29-0.27-0.58-0.4-0.87c0.04,0.1,0.45,1.11,0.13,0.31c-0.32-0.8-0.63-1.61-0.92-2.42
							c-0.91-2.6-1.62-5.27-2.14-7.98c-0.13-0.67-0.23-1.34-0.35-2.01c-0.25-1.45,0.04,0.74-0.09-0.73
							c-0.13-1.52-0.27-3.03-0.33-4.56c-0.16-4.17-0.05-8.35-0.05-12.52c0-8.78,0-17.55-0.01-26.33
							c-0.01-35.63-0.01-71.26-0.01-106.88s0.01-71.26,0.02-106.88s0.03-71.26,0.05-106.88c0.01-17.73,0.02-35.45,0.03-53.18
							c0-4.11-0.12-8.24,0.1-12.34c0.04-0.74,0.09-1.48,0.16-2.22c0.03-0.35,0.23-2.12,0.15-1.55c-0.08,0.57,0.19-1.17,0.25-1.5
							c0.15-0.82,0.31-1.64,0.5-2.45c0.31-1.37,0.67-2.73,1.09-4.07c0.21-0.66,0.43-1.32,0.66-1.97c0.12-0.32,0.24-0.65,0.36-0.97
							c0.05-0.13,0.57-1.42,0.27-0.69c-0.25,0.58,0.47-1,0.6-1.28c0.3-0.61,0.6-1.21,0.92-1.81c0.75-1.38,1.56-2.73,2.45-4.03
							c0.17-0.26,1.17-1.66,0.79-1.15c-0.38,0.51,0.68-0.84,0.88-1.07c0.94-1.11,1.94-2.18,2.99-3.19c0.98-0.94,2-1.84,3.06-2.69
							c-0.94,0.76,0.36-0.25,0.68-0.48c0.66-0.47,1.34-0.92,2.03-1.35c1.3-0.82,2.64-1.57,4.01-2.25c0.65-0.32,1.3-0.63,1.96-0.93
							c-1.04,0.47,0.94-0.37,1.28-0.49c3.47-1.29,7.08-2.24,10.7-3.03c7.64-1.66,15.26-2.29,23.22-2.17
							c7.39,0.11,12.16,0.63,19.14,2.39c3.2,0.81,6.34,1.8,9.42,2.98c0.36,0.14,1.88,0.75,1.53,0.6c-0.35-0.15,1.14,0.51,1.49,0.67
							c1.45,0.67,2.88,1.38,4.29,2.14c2.77,1.49,5.45,3.15,8.02,4.97c0.58,0.42,1.16,0.84,1.74,1.27c-0.91-0.68,0.46,0.38,0.73,0.59
							c1.19,0.97,2.35,1.98,3.47,3.03c2.14,1.99,4.15,4.12,6.02,6.36c0.24,0.29,1.29,1.6,0.56,0.66c0.42,0.55,0.83,1.11,1.24,1.67
							c0.94,1.31,1.83,2.66,2.66,4.04c0.72,1.18,1.39,2.38,2.03,3.61c0.32,0.61,0.63,1.23,0.92,1.85c0.15,0.31,0.29,0.63,0.44,0.94
							c0.06,0.12,0.62,1.4,0.32,0.68c-0.24-0.56,0.41,1.04,0.53,1.35c0.25,0.65,0.48,1.3,0.7,1.95c0.51,1.5,0.97,3.03,1.36,4.57
							c1.88,7.51,1.91,15.29,2.82,23.13c0.47,4.03,3.06,7.5,7.5,7.5c14.57,0,25.68,0.07,39.26,4.94
							c10.38,3.72,21.3,10.55,29.46,18.45c4.82,4.67,8.04,8.58,11.33,13.68c1.65,2.55,3.16,5.19,4.52,7.91
							c1.73,3.47,2.27,4.79,3.58,8.54c1.07,3.07,1.99,6.19,2.7,9.36c0.81,3.58,1.02,4.89,1.27,7.89c0.24,2.96,0.29,5.95,0.12,8.92
							c-0.04,0.73-0.1,1.47-0.17,2.2c-0.01,0.11-0.29,2.51-0.07,0.92c-0.23,1.7-0.55,3.39-0.94,5.06c-0.78,3.4-1.84,6.75-3.16,9.98
							c0.52-1.28-0.47,1.04-0.46,1.03c-0.43,0.95-0.89,1.88-1.36,2.81c-0.85,1.66-1.76,3.29-2.72,4.89
							c-4.23,7-8.95,12.55-14.78,18.45c-2.36,2.39-2.82,6.18-1.17,9.09c5.3,9.35,7.23,19.34,7.12,30.01
							c-0.03,2.62-0.17,5.23-0.39,7.84c-0.29,3.35,0.44,6.32,2.06,9.27c2.6,4.75,6.43,9.15,9.78,13.38
							c6.7,8.48,13.67,15.98,18.37,25.84c0.25,0.52,0.49,1.04,0.72,1.57c-0.43-0.99-0.01,0.01,0.06,0.18
							c0.37,0.99,0.76,1.97,1.12,2.96c0.63,1.78,1.21,3.57,1.73,5.39c1.06,3.71,1.63,7.47,2.42,11.23c0.23,1.11-0.13-1.29-0.02-0.16
							c0.05,0.51,0.12,1.02,0.18,1.53c0.09,0.82,0.17,1.63,0.23,2.45c0.16,2.04,0.26,4.08,0.28,6.12c0.04,3.66-0.15,7.32-0.56,10.96
							c-0.05,0.4-0.1,0.81-0.14,1.21c0.21-1.73,0.04-0.32-0.03,0.11c-0.14,0.9-0.29,1.8-0.45,2.7c-0.33,1.79-0.71,3.57-1.14,5.34
							c-0.89,3.63-2.02,7.2-3.36,10.68c-0.16,0.41-1.2,2.93-0.5,1.29c-0.32,0.74-0.65,1.48-0.99,2.21
							c-0.85,1.83-1.76,3.64-2.73,5.41c-1.75,3.2-3.71,6.28-5.85,9.23c-0.24,0.33-0.48,0.65-0.72,0.98
							c-1.16,1.59,0.63-0.78-0.13,0.17c-0.57,0.72-1.15,1.43-1.74,2.13c-1.18,1.41-2.41,2.77-3.69,4.1
							c-2.65,2.76-5.48,5.31-8.47,7.69c-0.97,0.77,1.41-1.03-0.22,0.16c-0.51,0.37-1.01,0.75-1.52,1.11
							c-0.85,0.61-1.72,1.21-2.6,1.78c-1.77,1.17-3.59,2.27-5.44,3.3c-1.88,1.05-3.81,2.02-5.77,2.93c-0.5,0.23-0.99,0.45-1.49,0.67
							c-0.49,0.21-0.4,0.18,0.28-0.11c-0.3,0.13-0.61,0.25-0.92,0.37c-1.03,0.4-2.06,0.81-3.11,1.18c-4.41,1.58-8.94,2.81-13.54,3.7
							c-1.16,0.22-2.33,0.43-3.49,0.61c-0.47,0.07-0.94,0.14-1.42,0.21c1.52-0.21-0.57,0.06-0.88,0.09c-2.7,0.3-5.42,0.48-8.13,0.57
							c-3.36,0.12-6.28,2.26-7.23,5.51C750.13,628.5,749.79,629.93,749.57,631.71c-0.49,4.03,3.8,7.5,7.5,7.5
							c4.46,0,7.01-3.46,7.5-7.5c-0.33,2.67,0.37-0.4,0.52-0.91c-2.41,1.84-4.82,3.67-7.23,5.51c18.25-0.63,36.44-5.57,51.74-15.74
							c13.77-9.16,25.11-21.95,32.26-36.89c7.05-14.72,10.54-31.13,9.57-47.45c-0.49-8.29-1.96-16.59-4.59-24.47
							c-3.56-10.7-9.33-19.67-16.28-28.46c-3.83-4.84-7.93-9.6-11.34-14.31c-0.54-0.75-5.38-6.66-4.91-7.24
							c0.22-0.28-0.19,1.79,0.22,0.72c0.27-0.72,0.15-1.87,0.21-2.65c0.13-1.69,0.23-3.39,0.28-5.08
							c0.41-13.74-2.31-27.39-9.13-39.41c-0.39,3.03-0.78,6.06-1.17,9.09c10.89-11.02,20.26-23.85,24.98-38.76
							c4.3-13.57,3.98-28.21,0.18-41.85c-7.69-27.59-28.03-50.54-54.32-61.83c-7.44-3.19-15.12-5.64-23.13-6.88
							c-8.96-1.39-17.85-1.3-26.9-1.3c2.5,2.5,5,5,7.5,7.5c-1.03-8.87-1.14-17.93-3.24-26.65c-1.55-6.42-4.2-12.72-7.56-18.4
							c-6.76-11.43-16.75-20.9-28.24-27.51c-12.53-7.2-26.72-11-41.11-11.76c-16.31-0.87-34.22,1.15-48.99,8.53
							c-12.21,6.1-21.17,16.89-25.83,29.61c-2.32,6.34-3.39,13.22-3.55,19.96c-0.21,9.1-0.03,18.22-0.03,27.31
							c-0.02,37.21-0.04,74.41-0.05,111.62c-0.01,37.21-0.02,74.41-0.03,111.62c-0.01,37.21-0.01,74.41,0,111.62
							c0,18.6,0.01,37.21,0.01,55.81c0,13.06,2.38,25.96,9.57,37.09c14.85,22.96,42.92,31.23,69.03,30.95
							c25.8-0.28,50.64-9.53,70.6-25.78c19.51-15.89,33.29-38.79,38.45-63.4c1.39-6.64,2.22-13.42,2.51-20.19
							c0.17-4.05-3.57-7.5-7.5-7.5C752.87,624.21,749.75,627.65,749.57,631.71z"/>
					</g>
				</g>
				<g>
					<g>
						<path class="st3" d="M577.34,331.71c9.12,7.93,20.33,12.62,32.43,13.29c9.86,0.54,19.93-1.92,28.51-6.8
							c17.02-9.66,27.67-28.92,26.43-48.51c-0.81-12.9-6.17-25.05-15.29-34.25c-2.77-2.79-7.87-2.98-10.61,0
							c-2.76,3-2.95,7.63,0,10.61c0.99,1,1.94,2.04,2.84,3.12c0.03,0.04,0.74,0.88,0.72,0.9c0.01-0.01-1.24-1.65-0.36-0.45
							c0.42,0.57,0.83,1.14,1.22,1.73c1.58,2.36,2.92,4.87,4.04,7.48c-0.25-0.6-0.5-1.19-0.76-1.79c1.53,3.66,2.57,7.48,3.13,11.41
							c-0.09-0.66-0.18-1.33-0.27-1.99c0.52,3.99,0.53,8.02,0.03,12.01c0.09-0.66,0.18-1.33,0.27-1.99
							c-0.54,4.02-1.61,7.94-3.18,11.68c0.25-0.6,0.5-1.19,0.76-1.79c-1.13,2.63-2.49,5.16-4.09,7.53
							c-0.37,0.54-0.75,1.08-1.14,1.61c-1,1.36,0.65-0.8,0.28-0.35c-0.25,0.29-0.48,0.6-0.72,0.89c-0.87,1.05-1.8,2.06-2.76,3.02
							s-1.97,1.89-3.02,2.76c-0.25,0.21-0.51,0.41-0.76,0.62c-1.01,0.83,1.64-1.21,0.35-0.27c-0.58,0.42-1.15,0.84-1.74,1.23
							c-2.38,1.6-4.9,2.96-7.53,4.09c0.6-0.25,1.19-0.5,1.79-0.76c-3.74,1.58-7.66,2.64-11.68,3.18c0.66-0.09,1.33-0.18,1.99-0.27
							c-3.92,0.5-7.86,0.5-11.77,0.01c0.66,0.09,1.33,0.18,1.99,0.27c-4.05-0.55-7.98-1.62-11.74-3.2c0.6,0.25,1.19,0.5,1.79,0.76
							c-2.14-0.92-4.21-1.99-6.18-3.22c-0.95-0.59-1.88-1.22-2.79-1.89c-0.17-0.12-0.53-0.3-0.63-0.47c0.08,0.13,1.38,1.1,0.58,0.44
							c-0.51-0.42-1.02-0.84-1.51-1.27c-1.52-1.32-3.24-2.2-5.3-2.2c-1.84,0-4.04,0.82-5.3,2.2
							C574.75,323.92,574.18,328.96,577.34,331.71L577.34,331.71z"/>
					</g>
				</g>
				<g>
					<g>
						<path class="st3" d="M659.06,595.99c9.12,7.93,20.33,12.62,32.43,13.29c9.86,0.54,19.93-1.92,28.51-6.8
							c17.02-9.66,27.67-28.92,26.43-48.51c-0.81-12.9-6.17-25.05-15.29-34.24c-2.77-2.79-7.87-2.98-10.61,0
							c-2.76,3-2.95,7.63,0,10.61c0.99,1,1.94,2.04,2.84,3.12c0.03,0.04,0.74,0.88,0.72,0.9c0.01-0.01-1.24-1.65-0.36-0.45
							c0.42,0.57,0.83,1.14,1.22,1.73c1.58,2.36,2.92,4.87,4.04,7.48c-0.25-0.6-0.5-1.19-0.76-1.79c1.53,3.66,2.57,7.48,3.13,11.41
							c-0.09-0.66-0.18-1.33-0.27-1.99c0.52,3.99,0.53,8.02,0.03,12.01c0.09-0.66,0.18-1.33,0.27-1.99
							c-0.54,4.02-1.61,7.94-3.18,11.68c0.25-0.6,0.5-1.19,0.76-1.79c-1.13,2.63-2.49,5.16-4.09,7.53
							c-0.37,0.54-0.75,1.08-1.14,1.61c-1,1.36,0.65-0.8,0.28-0.35c-0.25,0.29-0.48,0.6-0.72,0.89c-0.87,1.05-1.8,2.06-2.76,3.02
							s-1.97,1.89-3.02,2.76c-0.25,0.21-0.51,0.41-0.76,0.62c-1.01,0.83,1.64-1.21,0.35-0.27c-0.58,0.42-1.15,0.84-1.74,1.23
							c-2.38,1.6-4.9,2.96-7.53,4.09c0.6-0.25,1.19-0.5,1.79-0.76c-3.74,1.58-7.66,2.64-11.68,3.18c0.66-0.09,1.33-0.18,1.99-0.27
							c-3.92,0.5-7.86,0.5-11.77,0.01c0.66,0.09,1.33,0.18,1.99,0.27c-4.05-0.55-7.98-1.62-11.74-3.2c0.6,0.25,1.19,0.5,1.79,0.76
							c-2.14-0.92-4.21-1.99-6.18-3.22c-0.95-0.59-1.88-1.22-2.79-1.89c-0.17-0.12-0.53-0.3-0.63-0.47c0.08,0.13,1.38,1.1,0.58,0.44
							c-0.51-0.42-1.02-0.84-1.51-1.27c-1.52-1.32-3.24-2.2-5.3-2.2c-1.84,0-4.04,0.82-5.3,2.2
							C656.47,588.21,655.9,593.24,659.06,595.99L659.06,595.99z"/>
					</g>
				</g>
				<g>
					<g>
						<path class="st3" d="M668.34,672.84c2.25-11.24,0.72-22.75-4.76-32.87c-4.18-7.73-10.71-14.34-18.38-18.63
							c-15.47-8.64-35.35-8.1-50.01,2.05c-9.34,6.47-16.18,15.84-19.25,26.82c-1.05,3.78,1.3,8.33,5.24,9.23
							c3.98,0.91,8.1-1.19,9.23-5.24c0.47-1.67,1.03-3.3,1.69-4.91c-0.25,0.6-0.5,1.19-0.76,1.79c0.97-2.29,2.13-4.49,3.5-6.57
							c0.34-0.52,0.7-1.04,1.07-1.54c0.31-0.43,1.24-1.48-0.26,0.32c0.16-0.19,0.31-0.39,0.47-0.59c0.84-1.03,1.73-2.01,2.67-2.95
							c0.91-0.9,1.86-1.77,2.85-2.58c0.14-0.12,0.6-0.6,0.76-0.61c-0.26,0.02-1.53,1.15-0.43,0.35c0.53-0.39,1.07-0.76,1.61-1.12
							c2.09-1.37,4.3-2.54,6.6-3.51c-0.6,0.25-1.19,0.5-1.79,0.76c3.25-1.35,6.65-2.27,10.14-2.75c-0.66,0.09-1.33,0.18-1.99,0.27
							c3.52-0.45,7.06-0.45,10.58,0.01c-0.66-0.09-1.33-0.18-1.99-0.27c3.6,0.5,7.1,1.46,10.45,2.87c-0.6-0.25-1.19-0.5-1.79-0.76
							c2.18,0.94,4.28,2.05,6.26,3.35c0.51,0.33,1.01,0.68,1.51,1.04c0.23,0.16,0.45,0.33,0.67,0.5c0.71,0.52-1.51-1.2-0.59-0.45
							c0.96,0.78,1.89,1.59,2.77,2.45c0.86,0.83,1.67,1.69,2.45,2.6c0.41,0.47,0.77,1.01,1.2,1.46c-0.22-0.24-1.16-1.54-0.44-0.55
							c0.17,0.23,0.34,0.47,0.51,0.7c1.69,2.4,3.09,4.98,4.24,7.68c-0.25-0.6-0.5-1.19-0.76-1.79c1.33,3.22,2.24,6.57,2.73,10.01
							c-0.09-0.66-0.18-1.33-0.27-1.99c0.46,3.51,0.47,7.04,0.03,10.55c0.09-0.66,0.18-1.33,0.27-1.99
							c-0.13,0.97-0.29,1.94-0.49,2.9c-0.4,1.99-0.3,3.98,0.76,5.78c0.91,1.56,2.69,3.04,4.48,3.45
							C662.84,678.93,667.52,676.95,668.34,672.84L668.34,672.84z"/>
					</g>
				</g>
				<g>
					<g>
						<path class="st3" d="M659.98,343.48c-11.31,7.23-19.81,18.42-23.32,31.42c-3.43,12.74-1.93,26.31,3.86,38.1
							c5.08,10.35,14.01,19.2,24.44,24.13c11.73,5.55,25.08,6.97,37.66,3.53c14.09-3.85,26.37-13.68,33.19-26.59
							c1.83-3.47,1-8.31-2.69-10.26c-3.47-1.83-8.3-1.01-10.26,2.69c-0.61,1.16-1.27,2.3-1.97,3.41c-0.7,1.1-1.57,2.11-2.25,3.21
							c0.18-0.3,1.17-1.49,0.4-0.54c-0.19,0.23-0.37,0.46-0.56,0.69c-0.42,0.5-0.85,0.99-1.29,1.47c-0.88,0.96-1.8,1.89-2.76,2.77
							c-0.92,0.85-1.89,1.62-2.84,2.42c1.99-1.69,0.2-0.17-0.34,0.21c-0.53,0.38-1.08,0.74-1.62,1.1c-2.21,1.43-4.54,2.65-6.96,3.69
							c0.6-0.25,1.19-0.5,1.79-0.76c-3.84,1.61-7.85,2.7-11.98,3.26c0.66-0.09,1.33-0.18,1.99-0.27c-4.08,0.52-8.19,0.51-12.27-0.03
							c0.66,0.09,1.33,0.18,1.99,0.27c-4.01-0.56-7.91-1.62-11.65-3.18c0.6,0.25,1.19,0.5,1.79,0.76c-2.73-1.16-5.35-2.56-7.81-4.22
							c-0.59-0.4-1.16-0.81-1.74-1.23c-1.29-0.93,1.37,1.1,0.35,0.28c-0.25-0.21-0.51-0.41-0.76-0.62
							c-1.13-0.94-2.22-1.93-3.26-2.96c-1.04-1.04-2.03-2.13-2.96-3.26c-0.21-0.25-0.41-0.51-0.62-0.76
							c-0.82-1.01,1.1,1.47,0.38,0.48c-0.45-0.62-0.9-1.23-1.32-1.87c-1.65-2.46-3.06-5.08-4.22-7.81c0.25,0.6,0.5,1.19,0.76,1.79
							c-1.56-3.74-2.62-7.64-3.18-11.65c0.09,0.66,0.18,1.33,0.27,1.99c-0.54-4.11-0.54-8.26-0.01-12.37
							c-0.09,0.66-0.18,1.33-0.27,1.99c0.56-4.08,1.64-8.04,3.23-11.84c-0.25,0.6-0.5,1.19-0.76,1.79c0.89-2.07,1.91-4.08,3.09-6.01
							c0.6-0.98,1.24-1.94,1.91-2.88c0.18-0.25,0.36-0.49,0.54-0.73c0.52-0.73-1.07,1.35-0.51,0.65c0.38-0.47,0.75-0.94,1.15-1.4
							c1.45-1.7,3.01-3.3,4.69-4.77c0.41-0.36,0.82-0.71,1.24-1.05c0.23-0.18,0.45-0.42,0.71-0.57c-0.12,0.07-1.46,1.1-0.66,0.51
							c0.98-0.72,1.97-1.41,2.99-2.06c3.3-2.11,4.95-6.76,2.69-10.26C668.11,342.86,663.52,341.22,659.98,343.48L659.98,343.48z"/>
					</g>
				</g>
				<g>
					<g>
						<path class="st3" d="M744.82,500.36c13.16,4.31,27.46,3.11,39.93-2.74c11.1-5.21,20.5-14.82,25.43-26.06
							c4.9-11.2,6.18-23.54,3.2-35.46c-3.15-12.55-11.01-23.4-21.49-30.85c-12.04-8.55-27.46-11.2-41.81-8.3
							c-3.85,0.78-6.43,5.56-5.24,9.23c1.32,4.09,5.1,6.07,9.23,5.24c1.09-0.22,2.19-0.4,3.29-0.55c-0.66,0.09-1.33,0.18-1.99,0.27
							c4.04-0.51,8.11-0.51,12.15,0.01c-0.66-0.09-1.33-0.18-1.99-0.27c4.04,0.56,7.98,1.62,11.75,3.18
							c-0.6-0.25-1.19-0.5-1.79-0.76c2.71,1.15,5.3,2.53,7.75,4.16c0.63,0.42,1.25,0.86,1.86,1.31c0.98,0.72-0.1-0.14-0.46-0.36
							c0.32,0.2,0.6,0.48,0.89,0.72c1.19,0.99,2.33,2.03,3.42,3.14c1.06,1.07,2.06,2.2,3.01,3.36c0.19,0.23,1.05,1.34,0.19,0.23
							c-0.82-1.06-0.12-0.15,0.06,0.1c0.42,0.58,0.83,1.16,1.22,1.75c1.55,2.33,2.86,4.8,3.97,7.37c-0.25-0.6-0.5-1.19-0.76-1.79
							c1.59,3.78,2.68,7.73,3.25,11.78c-0.09-0.66-0.18-1.33-0.27-1.99c0.55,4.12,0.55,8.28,0.01,12.4
							c0.09-0.66,0.18-1.33,0.27-1.99c-0.57,4.13-1.67,8.14-3.28,11.98c0.25-0.6,0.5-1.19,0.76-1.79c-1.08,2.51-2.36,4.92-3.86,7.21
							c-0.38,0.58-0.77,1.14-1.17,1.7c-0.19,0.27-0.38,0.62-0.62,0.83c0.23-0.21,1.19-1.52,0.42-0.56c-0.88,1.09-1.8,2.15-2.78,3.16
							c-0.95,0.98-1.94,1.93-2.97,2.82c-0.57,0.5-1.17,0.96-1.75,1.45c1.71-1.45,0.6-0.47,0.2-0.17c-0.33,0.24-0.67,0.48-1,0.72
							c-2.65,1.84-5.49,3.38-8.46,4.63c0.6-0.25,1.19-0.5,1.79-0.76c-3.76,1.55-7.67,2.6-11.7,3.15c0.66-0.09,1.33-0.18,1.99-0.27
							c-4.11,0.52-8.24,0.51-12.35-0.04c0.66,0.09,1.33,0.18,1.99,0.27c-2.82-0.4-5.58-1.04-8.28-1.93
							c-3.73-1.22-8.36,1.42-9.23,5.24C738.64,495.26,740.82,499.05,744.82,500.36L744.82,500.36z"/>
					</g>
				</g>
				<g>
					<g>
						<path class="st3" d="M576.39,451.53c4.59,6.46,10.51,11.98,17.7,15.45c6.98,3.37,14.69,5.22,22.47,4.92
							c16.5-0.63,32.17-10.11,39.82-24.87c4.29-8.27,6.3-17.84,5.12-27.12c-0.26-2.07-0.66-3.77-2.2-5.3c-1.3-1.3-3.44-2.28-5.3-2.2
							c-1.94,0.09-3.95,0.72-5.3,2.2c-1.25,1.36-2.44,3.38-2.2,5.3c0.44,3.41,0.44,6.85,0.01,10.26c0.09-0.66,0.18-1.33,0.27-1.99
							c-0.48,3.53-1.4,6.95-2.77,10.24c0.25-0.6,0.5-1.19,0.76-1.79c-0.97,2.27-2.13,4.45-3.5,6.51c-0.35,0.52-0.71,1.02-1.07,1.53
							c-0.72,1,0.94-1.17,0.37-0.47c-0.2,0.24-0.39,0.49-0.59,0.73c-0.81,0.97-1.67,1.91-2.56,2.8c-0.92,0.91-1.88,1.75-2.87,2.57
							c-0.79,0.66,0.51-0.32,0.6-0.45c-0.15,0.23-0.72,0.54-0.95,0.7c-0.44,0.32-0.9,0.63-1.35,0.93c-2,1.31-4.11,2.44-6.3,3.38
							c0.6-0.25,1.19-0.5,1.79-0.76c-3.24,1.36-6.62,2.28-10.1,2.75c0.66-0.09,1.33-0.18,1.99-0.27c-3.42,0.44-6.87,0.44-10.29,0.01
							c0.66,0.09,1.33,0.18,1.99,0.27c-3.52-0.48-6.95-1.4-10.23-2.77c0.6,0.25,1.19,0.5,1.79,0.76c-1.64-0.7-3.24-1.5-4.78-2.41
							c-0.68-0.4-1.34-0.82-1.99-1.26c-0.37-0.25-0.74-0.51-1.11-0.78c-1.51-1.1,1.14,0.94,0.17,0.14
							c-1.33-1.09-2.61-2.23-3.81-3.48c-0.65-0.67-1.27-1.37-1.86-2.08c-0.38-0.46-1.36-1.92,0.07,0.13
							c-0.27-0.39-0.57-0.76-0.84-1.15c-1.16-1.63-2.5-2.9-4.48-3.45c-1.8-0.49-4.19-0.27-5.78,0.76
							C575.91,443.31,573.96,448.11,576.39,451.53L576.39,451.53z"/>
					</g>
				</g>
				<g>
					<g>
						<path class="st3" d="M721.73,336.74c8.21-4.51,14.27-11.97,17.41-20.74c2.83-7.92,2.73-17.33-0.37-25.15
							c-3.19-8.07-8.7-14.94-16.25-19.33c-7.97-4.64-17.32-5.98-26.34-4.3c-10.17,1.9-19.11,8.55-24.53,17.25
							c-2.08,3.34-0.82,8.41,2.69,10.26c3.68,1.94,8.05,0.87,10.26-2.69c0.42-0.67,0.85-1.32,1.31-1.96
							c0.93-1.27-0.8,0.97-0.29,0.37c0.23-0.28,0.46-0.56,0.69-0.83c0.98-1.14,2.05-2.2,3.2-3.18c0.27-0.23,0.56-0.45,0.83-0.69
							c-1.78,1.52-0.82,0.63-0.37,0.3c0.59-0.42,1.19-0.82,1.8-1.2c1.34-0.83,2.74-1.53,4.19-2.15c-0.6,0.25-1.19,0.5-1.79,0.76
							c2.4-0.98,4.89-1.65,7.45-2.02c-0.66,0.09-1.33,0.18-1.99,0.27c2.72-0.35,5.45-0.34,8.17,0.02c-0.66-0.09-1.33-0.18-1.99-0.27
							c2.59,0.37,5.09,1.06,7.5,2.06c-0.6-0.25-1.19-0.5-1.79-0.76c1.72,0.74,3.38,1.62,4.94,2.66c0.41,0.27,0.8,0.58,1.21,0.85
							c0.71,0.47-1.39-1.13-0.74-0.58c0.17,0.14,0.34,0.27,0.51,0.41c0.76,0.62,1.48,1.29,2.17,1.98c0.65,0.66,1.27,1.34,1.86,2.05
							c0.06,0.07,0.42,0.42,0.41,0.51c0,0-1.17-1.58-0.58-0.74c0.28,0.4,0.57,0.8,0.84,1.2c1.06,1.6,1.96,3.29,2.7,5.05
							c-0.25-0.6-0.5-1.19-0.76-1.79c0.98,2.37,1.65,4.84,2.02,7.38c-0.09-0.66-0.18-1.33-0.27-1.99c0.36,2.69,0.36,5.4,0.02,8.09
							c0.09-0.66,0.18-1.33,0.27-1.99c-0.38,2.71-1.09,5.33-2.15,7.85c0.25-0.6,0.5-1.19,0.76-1.79c-0.68,1.55-1.46,3.04-2.38,4.46
							c-0.39,0.6-0.84,1.17-1.23,1.76c1.36-2.05,0.46-0.59,0.05-0.12c-0.23,0.27-0.47,0.54-0.71,0.8c-1.05,1.15-2.21,2.15-3.39,3.17
							c1.82-1.58,0.72-0.55,0.24-0.2c-0.34,0.24-0.68,0.48-1.03,0.71c-0.7,0.46-1.42,0.88-2.15,1.28
							c-3.44,1.89-4.85,6.92-2.69,10.26C713.72,337.54,718.05,338.76,721.73,336.74L721.73,336.74z"/>
					</g>
				</g>
				<g>
					<g>
						<path class="st3" d="M614.51,485.47c-8.45,8.54-13.29,20.49-12.71,32.54c0.51,10.53,4.69,20.51,11.91,28.2
							c3.33,3.54,7.39,6.61,11.74,8.78c5.01,2.5,10.12,3.91,15.67,4.55c10.04,1.16,20.9-1.69,29.09-7.62
							c9.4-6.81,16.3-16.97,18-28.58c0.3-2.08,0.35-3.89-0.76-5.78c-0.91-1.56-2.69-3.04-4.48-3.45c-1.92-0.44-4.08-0.34-5.78,0.76
							c-1.52,0.98-3.17,2.6-3.45,4.48c-0.45,3.06-1.27,6.03-2.46,8.88c0.25-0.6,0.5-1.19,0.76-1.79c-0.88,2.06-1.93,4.04-3.16,5.9
							c-0.31,0.46-0.62,0.92-0.95,1.37c-0.34,0.46-1.2,1.36,0.37-0.46c-0.14,0.17-0.28,0.35-0.42,0.52
							c-0.74,0.9-1.52,1.76-2.34,2.59c-0.78,0.79-1.6,1.53-2.45,2.25c-0.21,0.18-0.43,0.35-0.64,0.53c-0.91,0.74,1.32-0.96,0.6-0.46
							c-0.46,0.31-0.9,0.65-1.36,0.97c-1.9,1.29-3.92,2.38-6.02,3.29c0.6-0.25,1.19-0.5,1.79-0.76c-2.95,1.25-6.04,2.1-9.21,2.55
							c0.66-0.09,1.33-0.18,1.99-0.27c-3.26,0.43-6.54,0.43-9.79,0.01c0.66,0.09,1.33,0.18,1.99,0.27
							c-3.13-0.44-6.17-1.26-9.09-2.47c0.6,0.25,1.19,0.5,1.79,0.76c-2.13-0.91-4.17-2-6.1-3.29c-0.45-0.3-0.9-0.63-1.34-0.95
							c-0.95-0.68,1.28,1.03,0.61,0.48c-0.21-0.17-0.43-0.34-0.64-0.51c-0.88-0.73-1.73-1.5-2.54-2.31
							c-0.77-0.77-1.51-1.58-2.21-2.42c-0.17-0.21-0.34-0.42-0.52-0.63c-0.85-1.03,1.14,1.57,0.37,0.48
							c-0.32-0.45-0.64-0.89-0.95-1.34c-1.29-1.92-2.38-3.97-3.29-6.1c0.25,0.6,0.5,1.19,0.76,1.79c-1.21-2.92-2.04-5.96-2.47-9.09
							c0.09,0.66,0.18,1.33,0.27,1.99c-0.42-3.24-0.42-6.51,0-9.75c-0.09,0.66-0.18,1.33-0.27,1.99c0.45-3.15,1.28-6.2,2.5-9.14
							c-0.25,0.6-0.5,1.19-0.76,1.79c0.89-2.08,1.96-4.08,3.22-5.96c0.29-0.43,0.58-0.85,0.88-1.26c0.31-0.42,1.06-1.22-0.36,0.45
							c0.17-0.2,0.32-0.4,0.48-0.6c0.73-0.89,1.51-1.74,2.33-2.56c2.76-2.79,3-7.86,0-10.61
							C622.13,482.73,617.46,482.49,614.51,485.47L614.51,485.47z"/>
					</g>
				</g>
				<g>
					<g>
						<path class="st3" d="M720.52,601.82c0.4-0.09,0.8-0.15,1.21-0.21c-0.66,0.09-1.33,0.18-1.99,0.27
							c2.45-0.33,4.94-0.29,7.38,0.03c-0.66-0.09-1.33-0.18-1.99-0.27c2.55,0.35,5.04,1.02,7.42,2.02c-0.6-0.25-1.19-0.5-1.79-0.76
							c1.69,0.72,3.3,1.59,4.82,2.61c0.38,0.26,0.76,0.53,1.13,0.8c1.15,0.83-1.54-1.23-0.71-0.56c0.21,0.18,0.43,0.35,0.64,0.52
							c0.8,0.67,1.57,1.38,2.3,2.13c0.79,0.8,1.54,1.64,2.24,2.52c0.41,0.51,1.13,1.67-0.42-0.56c0.19,0.27,0.4,0.54,0.6,0.81
							c0.35,0.49,0.69,0.99,1.02,1.49c1.58,2.41,2.89,4.98,4.03,7.63c-0.25-0.6-0.5-1.19-0.76-1.79c2.17,5.16,3.62,10.58,4.63,16.08
							c0.32,1.76,1.96,3.61,3.45,4.48c1.61,0.94,3.98,1.34,5.78,0.76c4.14-1.34,6-5.08,5.24-9.23c-1.45-7.91-3.87-15.77-7.8-22.82
							c-3.11-5.59-7.26-10.34-12.35-14.18c-6.23-4.7-14.37-7.15-22.16-6.93c-1.96,0.06-3.99,0.24-5.9,0.69
							c-3.82,0.9-6.45,5.47-5.24,9.23C712.58,600.57,716.42,602.79,720.52,601.82L720.52,601.82z"/>
					</g>
				</g>
			</g>
		</g>
	</g>
</g>
</svg>
