<?xml version="1.0" encoding="utf-8"?>
<!-- Generator: Adobe Illustrator 24.2.3, SVG Export Plug-In . SVG Version: 6.00 Build 0)  -->
<svg version="1.1" id="Capa_1" xmlns="http://www.w3.org/2000/svg" xmlns:xlink="http://www.w3.org/1999/xlink" x="0px" y="0px"
	 viewBox="0 0 1080 1080" style="enable-background:new 0 0 1080 1080;" xml:space="preserve">
<style type="text/css">
	.st0{opacity:0.4;}
	.st1{fill:#A8A9AD;}
	.st2{fill:#29AAE3;}
	.st3{fill:#093548;}
	.st4{fill:none;stroke:#093548;stroke-width:8;stroke-linecap:round;stroke-miterlimit:10;}
	.st5{fill:none;stroke:#093548;stroke-width:8;stroke-linecap:round;stroke-miterlimit:10;stroke-dasharray:35.2576,35.2576;}
	.st6{opacity:0.2;}
	.st7{fill:#9291A1;}
	.st8{fill:#FFFFFF;}
	.st9{fill:url(#SVGID_1_);}
	.st10{fill:url(#SVGID_2_);}
	.st11{fill:url(#SVGID_3_);}
	.st12{fill:url(#SVGID_4_);}
	.st13{fill:url(#SVGID_5_);}
	.st14{fill:url(#SVGID_6_);}
	.st15{fill:url(#SVGID_7_);}
	.st16{fill:url(#SVGID_8_);}
	.st17{fill:url(#SVGID_9_);}
	.st18{fill:url(#SVGID_10_);}
	.st19{fill:url(#SVGID_11_);}
</style>
<g>
	<g>
		<g>
			<g class="st6">
				<path class="st2" d="M517.17,360.77c-3.71-2.24-7.27-4.66-10.67-7.24c-14.48-11-29.13-21.62-46-28.96
					c-26.19-11.4-52.74-13.11-79.37-2.94c-39.36,15.03-61.76,45.08-72.24,84.9c-6.24,23.71-4.05,47.63-0.48,71.38
					c7.15,47.61,21.28,93.3,39.42,137.8c14.26,34.99,30.32,69.1,52.75,99.73c5.45,7.44,12.21,14.08,19.1,20.27
					c4.16,3.74,6.77,2.46,8.56-2.85c3.16-9.33,6.22-18.7,9.12-28.11c9.21-29.85,17.9-59.86,27.64-89.54
					c5.56-16.95,13.24-33.11,24.66-47.17c13.93-17.17,32.75-23.56,52.06-17.11c13.01,4.35,21.95,13.85,29.4,24.9
					c12.99,19.26,20.36,41.01,26.98,62.97c8.68,28.77,16.66,57.76,25.18,86.58c4.43,14.98,7.46,15.91,17.56,3.82
					c9.98-11.94,19.56-24.45,27.52-37.78c22.7-38.07,39.75-78.81,53.75-120.8c13.74-41.2,25.03-82.99,26.56-126.72
					c1.45-41.43-12.13-77.19-44.28-103.94c-28.29-23.54-61.05-31.65-96.83-19.78c-23.14,7.68-41.96,16.27-62.38,29.56l-22.21,14.71
					L517.17,360.77z"/>
			</g>
			<g>
				<g>
					<path class="st3" d="M575.26,377.3c12.27-7.97,25.15-14.95,38.62-20.66c-1.12,0.47,1.02-0.42,1.31-0.54
						c0.81-0.33,1.62-0.66,2.44-0.99c1.76-0.7,3.53-1.39,5.3-2.06c3.52-1.33,7.07-2.59,10.64-3.8c6.88-2.33,13.88-4.22,21.09-5.23
						c-1.4,0.2,0.8-0.09,1.2-0.13c0.82-0.09,1.65-0.17,2.47-0.24c1.75-0.14,3.5-0.24,5.26-0.28c3.34-0.09,6.68,0.01,10.01,0.29
						c0.8,0.07,1.59,0.14,2.39,0.23c0.46,0.05,2.53,0.35,1.05,0.12c1.68,0.26,3.36,0.54,5.03,0.88c3.23,0.66,6.42,1.49,9.56,2.49
						c1.52,0.48,3.04,1.01,4.54,1.57c0.75,0.28,1.5,0.57,2.25,0.87c0.32,0.13,0.64,0.26,0.96,0.39c-1.27-0.53,0.2,0.09,0.44,0.2
						c3.1,1.38,6.13,2.91,9.08,4.58c3.03,1.71,5.97,3.57,8.83,5.55c3.39,2.35,4.85,3.48,7.64,5.8c5.05,4.21,9.82,8.77,14.18,13.7
						c1.02,1.15,2.02,2.32,2.99,3.51c0.48,0.59,0.95,1.19,1.44,1.78c0.54,0.66-0.1-0.14-0.17-0.23c0.33,0.43,0.66,0.86,0.98,1.3
						c1.86,2.49,3.62,5.06,5.28,7.7c1.64,2.61,3.17,5.28,4.59,8.01c0.68,1.31,1.34,2.64,1.97,3.98c0.32,0.67,0.63,1.34,0.93,2.01
						c0.2,0.44,1.1,2.55,0.5,1.11c2.37,5.68,4.29,11.54,5.77,17.52c0.75,3.03,1.39,6.09,1.92,9.17c0.13,0.75,0.25,1.5,0.37,2.25
						c0.05,0.34,0.36,2.43,0.24,1.6c-0.12-0.82,0.17,1.35,0.2,1.61c0.1,0.88,0.2,1.75,0.28,2.63c0.64,6.51,0.84,13.07,0.66,19.61
						c-0.21,7.94-0.8,15.88-1.66,23.78c-0.21,1.92-0.43,3.84-0.67,5.76c-0.23,1.81-0.34,2.61-0.68,4.97
						c-0.58,3.95-1.23,7.89-1.93,11.81c-5.65,31.39-15.06,62.06-25.6,92.12c-10.46,29.83-21.93,57.38-36.81,85.4
						c-7.35,13.84-15.21,27.39-24.49,40.04c-4.45,6.06-8.9,11.66-14.07,17.8c-1.01,1.2-2.04,2.39-3.13,3.52
						c-0.8,0.84-2.23,1.71-2.84,2.66c0.76-1.18,1.12-0.72,0.51-0.43c-0.15,0.07-0.34,0.2-0.48,0.3c-1.26,0.92,1.37-0.46,0.44-0.14
						c-1.35,0.47,0.92-0.08,0.77-0.08c0.72-0.01,1.7,0.28,2.3,0.62c-1.23-0.68,1.33,1.12,0.49,0.37c-0.81-0.73,0.95,1.6,0.21,0.28
						c-0.24-0.42-0.5-0.83-0.73-1.26c-0.14-0.28-0.27-0.56-0.41-0.84c-0.43-0.87-0.08,0.06,0.15,0.37
						c-0.76-1.03-1.05-2.88-1.44-4.08c-0.61-1.93-1.17-3.88-1.74-5.82c-2.36-8.04-4.69-16.09-7-24.15
						c-4.63-16.11-9.21-32.23-13.97-48.31c-8.73-29.49-17.85-60.36-37.82-84.47c-8.74-10.56-20.67-18.61-34.36-20.88
						c-13.69-2.27-27.62,0.66-38.96,8.81c-12.28,8.82-21.21,21.82-28.12,35.1c-7.35,14.12-12.09,29.28-16.86,44.41
						c-10.1,32.01-19.15,64.35-29.79,96.18c-0.32,0.96-0.64,1.92-0.97,2.88c-0.14,0.41-0.28,0.82-0.42,1.24
						c-0.06,0.16-0.66,1.7-0.25,0.79c0.34-0.77-0.11,0.13-0.14,0.23c-0.16,0.46-0.9,1.01,0.3-0.22c-0.32,0.33-0.62,0.36,0.11,0.01
						c0.98-0.46,1.52-0.93,2.73-0.92c-0.07,0,1.78,0.33,0.95,0.11c-0.91-0.24,1.32,0.69,0.41,0.13c-0.66-0.41,0.19,0.23,0.26,0.28
						c-0.39-0.28-0.78-0.68-1.12-0.99c-1.48-1.33-2.95-2.69-4.39-4.06c-2.8-2.66-5.52-5.41-8.1-8.29c-2.81-3.13-4.22-4.97-6.49-8.14
						c-8.91-12.41-16.87-25.47-24.09-38.92c-14.9-27.74-26.3-55.13-36.97-84.52c-10.88-29.97-19.76-60.7-25.66-92.05
						c-3.04-16.17-5.35-30.66-6.07-47.06c-0.7-16.02,0.78-29.9,5.44-45.09c0.89-2.9,1.86-5.78,2.92-8.63
						c0.5-1.35,1.02-2.7,1.56-4.04c0.2-0.5,0.9-2.14,0.3-0.76c0.32-0.75,0.65-1.49,0.98-2.24c2.36-5.29,5.07-10.43,8.13-15.35
						c1.5-2.42,3.09-4.78,4.77-7.07c0.4-0.55,0.82-1.1,1.22-1.65c0.2-0.27,0.89-1.1-0.1,0.13c0.18-0.23,0.36-0.46,0.54-0.69
						c0.92-1.13,1.84-2.27,2.8-3.37c3.71-4.29,7.77-8.29,12.11-11.94c0.53-0.44,1.06-0.88,1.6-1.32c0.43-0.35,1.77-1.39,0.59-0.48
						c1.19-0.91,2.4-1.8,3.63-2.66c2.41-1.69,4.89-3.28,7.43-4.78c2.6-1.53,5.27-2.96,7.98-4.29c1.34-0.66,2.69-1.29,4.06-1.89
						c0.43-0.19,2.23-0.95,0.89-0.4c0.81-0.34,1.62-0.66,2.43-0.98c7.4-2.91,15.12-5.07,23-6.19c-1.06,0.15,1.34-0.16,1.63-0.19
						c0.94-0.1,1.88-0.19,2.82-0.26c2.01-0.15,4.02-0.25,6.03-0.27c3.88-0.05,7.77,0.13,11.63,0.53c0.53,0.06,1.07,0.12,1.6,0.18
						c-0.03,0,1.28,0.17,0.6,0.08c-0.68-0.1,0.63,0.1,0.6,0.1c0.53,0.09,1.07,0.17,1.6,0.26c2.01,0.34,4.01,0.74,6,1.2
						c3.91,0.9,7.77,2.01,11.56,3.31c7.2,2.47,13.59,5.44,20.54,9.32c6.65,3.71,13.03,7.89,19.25,12.29
						c6.01,4.25,11.75,8.88,17.78,13.1c22.79,15.92,50.6,24.29,78.16,26.28c13.35,0.96,26.76,0.17,39.93-2.21
						c3.87-0.7,6.41-5.61,5.24-9.23c-1.34-4.15-5.08-5.99-9.23-5.24c-1.56,0.28-3.13,0.55-4.7,0.78c-0.45,0.07-0.9,0.13-1.35,0.19
						c0.3-0.04,1.45-0.18-0.04,0c-0.91,0.11-1.82,0.22-2.73,0.31c-3.32,0.35-6.66,0.58-10,0.7c-6.88,0.25-13.78,0.05-20.63-0.6
						c-1.75-0.17-3.5-0.38-5.25-0.58c-0.89-0.1,0.11,0.02,0.25,0.04c-0.47-0.06-0.93-0.13-1.4-0.2c-0.93-0.14-1.86-0.28-2.79-0.44
						c-3.48-0.57-6.94-1.26-10.38-2.06c-6.73-1.57-13.35-3.57-19.81-6.02c-0.76-0.29-1.52-0.58-2.28-0.89
						c-0.43-0.17-0.86-0.35-1.29-0.52c-0.06-0.02-1.12-0.46-0.39-0.16c0.81,0.34-0.53-0.23-0.7-0.3c-0.32-0.14-0.64-0.28-0.95-0.42
						c-0.84-0.37-1.69-0.76-2.52-1.15c-3.12-1.46-6.19-3.03-9.19-4.72c-5.99-3.38-11.55-7.31-17.03-11.45
						c-12.48-9.41-25.35-18.49-39.53-25.17c-15.37-7.24-31.89-11.9-48.95-12.29c-16.55-0.38-32.61,3.55-47.68,10.19
						c-22.63,9.99-41.51,26.98-54,48.31c-6.37,10.88-11.15,22.76-14.62,34.87c-4.6,16.06-5.89,32.75-4.89,49.38
						c1.01,16.81,3.7,33.6,6.89,50.12c3.1,16.06,6.98,31.97,11.51,47.68c9.06,31.45,20.7,62.12,33.84,92.08
						c12.65,28.85,27.24,57.62,46.67,82.57c4.91,6.3,10.59,11.94,16.49,17.31c3.02,2.75,6.54,5.61,10.89,5.39
						c4.49-0.23,8.15-3.08,10.01-7.11c1.84-3.98,3.03-8.29,4.4-12.44c1.36-4.13,2.7-8.26,4.01-12.4c2.58-8.14,5.05-16.31,7.52-24.48
						c4.95-16.33,9.84-32.68,14.93-48.97c2.52-8.08,5.05-16.16,7.74-24.18c1.22-3.62,2.54-7.2,3.97-10.74
						c0.19-0.47,0.38-0.94,0.58-1.41c-0.06,0.15-0.36,0.83-0.01,0.04c0.35-0.82,0.71-1.63,1.07-2.44c0.83-1.85,1.7-3.69,2.6-5.51
						c3.35-6.73,7.22-13.21,11.67-19.27c0.17-0.23,1.55-2.07,0.92-1.25c0.55-0.71,1.11-1.41,1.68-2.11
						c1.16-1.41,2.37-2.77,3.64-4.08c1.22-1.26,2.5-2.47,3.83-3.61c0.6-0.52,1.22-1.03,1.85-1.52c-1.09,0.85,0.85-0.59,1.18-0.82
						c1.26-0.87,2.56-1.68,3.9-2.43c0.75-0.42,1.51-0.82,2.29-1.2c0.4-0.19,2.61-1.12,1.12-0.55c2.84-1.1,5.73-1.98,8.74-2.51
						c0.24-0.04,1.56-0.25,0.55-0.1c-0.94,0.14,0.1-0.01,0.25-0.02c0.83-0.08,1.67-0.15,2.5-0.19c1.58-0.07,3.17-0.06,4.75,0.04
						c0.75,0.05,1.49,0.12,2.24,0.2c-1.53-0.15,0.37,0.06,0.9,0.16c1.64,0.3,3.26,0.68,4.86,1.14c0.88,0.25,1.75,0.53,2.61,0.83
						c0.33,0.11,0.65,0.23,0.97,0.36c0.19,0.07,1.52,0.61,0.69,0.26c-0.75-0.31,0.28,0.13,0.35,0.16c0.41,0.19,0.81,0.38,1.22,0.58
						c0.8,0.39,1.58,0.81,2.36,1.25c1.34,0.76,2.64,1.59,3.89,2.47c0.36,0.25,0.71,0.51,1.06,0.77c-0.24-0.17-1.07-0.88,0.03,0.03
						c0.68,0.55,1.35,1.11,2,1.69c2.38,2.11,4.58,4.43,6.63,6.86c0.5,0.59,0.99,1.2,1.47,1.8c0.9,1.12,0.24,0.31,0.06,0.07
						c0.27,0.36,0.54,0.71,0.8,1.07c1.01,1.37,1.99,2.78,2.94,4.19c4.34,6.48,8.1,13.33,11.41,20.39c1.83,3.91,2.82,6.25,4.22,9.79
						c1.4,3.54,2.72,7.12,3.97,10.72c5.43,15.59,9.9,31.53,14.49,47.38c4.74,16.38,9.39,32.79,14.16,49.16
						c2.96,10.15,7.17,33.69,23.05,26.19c5.65-2.67,9.81-8.82,13.63-13.5c5.34-6.54,10.53-13.23,15.4-20.13
						c9.26-13.1,17.08-27.2,24.43-41.44c7.56-14.65,14.38-29.65,20.72-44.86c12.37-29.72,22.89-60.38,31.36-91.43
						c4.31-15.79,7.93-31.78,10.46-47.96c2.49-15.92,4.3-32.15,4.1-48.29c-0.32-26.43-7.21-52.93-22.36-74.83
						c-16.06-23.22-40.11-42.47-67.51-50.2c-14.07-3.97-28.68-4.51-43.08-2.32c-15.09,2.3-29.66,8.14-43.63,14.11
						c-13.35,5.7-26.11,12.62-38.28,20.52c-3.29,2.13-4.96,6.75-2.69,10.26C567.12,377.9,571.74,379.59,575.26,377.3L575.26,377.3z"
						/>
				</g>
			</g>
			<g>
				<g>
					<path class="st3" d="M535.57,161.94c0,5.23,0,10.46,0,15.69c0,8.39,0,16.78,0,25.17c0,1.92,0,3.84,0,5.76
						c0,4.05,3.44,7.5,7.5,7.5c6.99,0,13.99,0,20.98,0c-2.5-2.5-5-5-7.5-7.5c0,11.91,0,23.81,0,35.72c0,1.69,0,3.38,0,5.07
						c0,3.92,3.45,7.68,7.5,7.5c4.06-0.18,7.5-3.3,7.5-7.5c0-11.91,0-23.81,0-35.72c0-1.69,0-3.38,0-5.07c0-4.05-3.44-7.5-7.5-7.5
						c-6.99,0-13.99,0-20.98,0c2.5,2.5,5,5,7.5,7.5c0-5.23,0-10.46,0-15.69c0-8.39,0-16.78,0-25.17c0-1.92,0-3.84,0-5.76
						c0-3.92-3.45-7.68-7.5-7.5C539.01,154.62,535.57,157.73,535.57,161.94L535.57,161.94z"/>
				</g>
			</g>
			<g>
				<g>
					<path class="st3" d="M341.45,232.28c2.58,4.55,5.17,9.1,7.75,13.65c4.14,7.3,8.28,14.59,12.42,21.89
						c0.95,1.67,1.9,3.34,2.84,5.01c2.02,3.55,6.77,4.67,10.26,2.69c6.08-3.45,12.16-6.9,18.24-10.36
						c-3.42-0.9-6.84-1.79-10.26-2.69c5.88,10.35,11.76,20.71,17.64,31.07c0.83,1.47,1.67,2.94,2.5,4.41
						c1.94,3.41,6.89,4.87,10.26,2.69c3.45-2.22,4.76-6.61,2.69-10.26c-5.88-10.36-11.76-20.71-17.64-31.07
						c-0.83-1.47-1.67-2.94-2.5-4.41c-2.02-3.55-6.77-4.67-10.26-2.69c-6.08,3.45-12.16,6.9-18.24,10.36
						c3.42,0.9,6.84,1.79,10.26,2.69c-2.58-4.55-5.17-9.1-7.75-13.65c-4.14-7.3-8.28-14.59-12.42-21.89
						c-0.95-1.67-1.9-3.34-2.84-5.01c-1.94-3.41-6.89-4.87-10.26-2.69C340.69,224.25,339.37,228.63,341.45,232.28L341.45,232.28z"/>
				</g>
			</g>
			<g>
				<g>
					<path class="st3" d="M759.5,224.71c-2.58,4.55-5.17,9.1-7.75,13.65c-4.14,7.3-8.28,14.59-12.42,21.89
						c-0.95,1.67-1.9,3.34-2.84,5.01c3.42-0.9,6.84-1.79,10.26-2.69c-6.08-3.45-12.16-6.9-18.24-10.36
						c-3.49-1.98-8.24-0.87-10.26,2.69c-5.88,10.36-11.76,20.71-17.64,31.07c-0.83,1.47-1.67,2.94-2.5,4.41
						c-1.94,3.41-0.92,8.35,2.69,10.26c3.56,1.88,8.19,0.95,10.26-2.69c5.88-10.35,11.76-20.71,17.64-31.07
						c0.83-1.47,1.67-2.94,2.5-4.41c-3.42,0.9-6.84,1.79-10.26,2.69c6.08,3.45,12.16,6.9,18.24,10.36
						c3.49,1.98,8.24,0.87,10.26-2.69c2.58-4.55,5.17-9.1,7.75-13.65c4.14-7.3,8.28-14.59,12.42-21.89c0.95-1.67,1.9-3.34,2.84-5.01
						c1.94-3.41,0.92-8.35-2.69-10.26C766.2,220.14,761.57,221.07,759.5,224.71L759.5,224.71z"/>
				</g>
			</g>
		</g>
	</g>
</g>
</svg>
