<?xml version="1.0" encoding="utf-8"?>
<!-- Generator: Adobe Illustrator 24.2.3, SVG Export Plug-In . SVG Version: 6.00 Build 0)  -->
<svg version="1.1" id="Capa_1" xmlns="http://www.w3.org/2000/svg" xmlns:xlink="http://www.w3.org/1999/xlink" x="0px" y="0px"
	 viewBox="0 0 1080 1080" style="enable-background:new 0 0 1080 1080;" xml:space="preserve">
<style type="text/css">
	.st0{opacity:0.4;}
	.st1{fill:#A8A9AD;}
	.st2{fill:#29AAE3;}
	.st3{fill:#093548;}
	.st4{fill:none;stroke:#093548;stroke-width:8;stroke-linecap:round;stroke-miterlimit:10;}
	.st5{fill:none;stroke:#093548;stroke-width:8;stroke-linecap:round;stroke-miterlimit:10;stroke-dasharray:35.2576,35.2576;}
	.st6{opacity:0.2;}
	.st7{fill:#9291A1;}
	.st8{fill:#FFFFFF;}
	.st9{fill:url(#SVGID_1_);}
	.st10{fill:url(#SVGID_2_);}
	.st11{fill:url(#SVGID_3_);}
	.st12{fill:url(#SVGID_4_);}
	.st13{fill:url(#SVGID_5_);}
	.st14{fill:url(#SVGID_6_);}
	.st15{fill:url(#SVGID_7_);}
	.st16{fill:url(#SVGID_8_);}
	.st17{fill:url(#SVGID_9_);}
	.st18{fill:url(#SVGID_10_);}
	.st19{fill:url(#SVGID_11_);}
</style>
<g>
	<g>
		<g class="st0">
			<path class="st1" d="M786.31,556.84c-28.48-31-21.78-87.96-21.78-87.96s0-168.39,0-196.03s-15.08-25.13-15.08-25.13
				s-159.17,0-180.12,0s-20.11,20.11-20.11,20.11L549,287.92h-13.75c-6.6,0-12,5.4-12,12v27.1c0,6.6,5.4,12,12,12h12.85l-0.69,39.37
				h-12.16c-6.6,0-12,5.4-12,12v27.1c0,6.6,5.4,12,12,12h11.27l-0.65,36.86l-11.4,10.16l0,0l-8.96-13.85
				c-3.58-5.54-11.05-7.14-16.59-3.56l-22.76,14.72c-5.54,3.58-7.15,11.05-3.56,16.59l13.26,20.5l0,0l-25.06,16.72l-0.71,0.48
				l-6.57-10.16c-3.58-5.54-11.05-7.14-16.59-3.56l-22.76,14.72c-5.54,3.58-7.15,11.05-3.56,16.59l6.97,10.78l-40.88,29.67
				c41.89,23.46,40.21,107.23,40.21,107.23h266.4c1.68-75.4,61.99-111.42,83.77-117.28C798.87,570.25,786.31,556.84,786.31,556.84z"
				/>
		</g>
		<g>
			<g>
				<g>
					<path class="st3" d="M670.06,344.07c-3.55,0-7.11,0-10.66,0c-8.52,0-17.03,0-25.55,0c-10.31,0-20.61,0-30.92,0
						c-8.79,0-17.57,0-26.36,0c-4.09,0-8.19,0.04-12.28,0c-0.6-0.01-1.19-0.04-1.79-0.12c0.66,0.09,1.33,0.18,1.99,0.27
						c-0.99-0.16-1.94-0.42-2.88-0.79c0.6,0.25,1.19,0.5,1.79,0.76c-0.7-0.3-1.38-0.65-2.01-1.07c-0.64-0.42-0.87-1,0.48,0.4
						c-0.26-0.27-0.57-0.5-0.84-0.76c-0.08-0.08-0.8-0.79-0.76-0.84c0,0,1.29,1.82,0.4,0.48c-0.42-0.64-0.77-1.31-1.07-2.01
						c0.25,0.6,0.5,1.19,0.76,1.79c-0.37-0.93-0.64-1.88-0.79-2.88c0.09,0.66,0.18,1.33,0.27,1.99c-0.45-3.46-0.12-7.13-0.12-10.6
						c0-5.11,0-10.21,0-15.32c0-1.52-0.07-3.08,0.12-4.59c-0.09,0.66-0.18,1.33-0.27,1.99c0.16-0.99,0.42-1.94,0.79-2.88
						c-0.25,0.6-0.5,1.19-0.76,1.79c0.3-0.7,0.65-1.38,1.07-2.01c0.42-0.64,1-0.87-0.4,0.48c0.27-0.26,0.5-0.57,0.76-0.84
						c0.08-0.08,0.79-0.8,0.84-0.76c0,0-1.82,1.29-0.48,0.4c0.64-0.42,1.31-0.77,2.01-1.07c-0.6,0.25-1.19,0.5-1.79,0.76
						c0.93-0.37,1.88-0.64,2.88-0.79c-0.66,0.09-1.33,0.18-1.99,0.27c1.38-0.18,2.79-0.12,4.19-0.12c2.52,0,5.04,0,7.56,0
						c8.49,0,16.97,0,25.46,0c10.34,0,20.68,0,31.02,0c8.93,0,17.86,0,26.8,0c4.15,0,8.3-0.04,12.45,0c0.6,0.01,1.19,0.04,1.79,0.12
						c-0.66-0.09-1.33-0.18-1.99-0.27c0.99,0.16,1.94,0.42,2.88,0.79c-0.6-0.25-1.19-0.5-1.79-0.76c0.7,0.3,1.38,0.65,2.01,1.07
						c0.64,0.42,0.87,1-0.48-0.4c0.26,0.27,0.57,0.5,0.84,0.76c0.08,0.08,0.8,0.79,0.76,0.84c0,0-1.29-1.82-0.4-0.48
						c0.42,0.64,0.77,1.31,1.07,2.01c-0.25-0.6-0.5-1.19-0.76-1.79c0.37,0.93,0.64,1.88,0.79,2.88c-0.09-0.66-0.18-1.33-0.27-1.99
						c0.45,3.46,0.12,7.13,0.12,10.6c0,5.11,0,10.21,0,15.32c0,1.52,0.07,3.08-0.12,4.59c0.09-0.66,0.18-1.33,0.27-1.99
						c-0.16,0.99-0.42,1.94-0.79,2.88c0.25-0.6,0.5-1.19,0.76-1.79c-0.3,0.7-0.65,1.38-1.07,2.01c-0.42,0.64-1,0.87,0.4-0.48
						c-0.27,0.26-0.5,0.57-0.76,0.84c-0.08,0.08-0.79,0.8-0.84,0.76c0,0,1.82-1.29,0.48-0.4c-0.64,0.42-1.31,0.77-2.01,1.07
						c0.6-0.25,1.19-0.5,1.79-0.76c-0.93,0.37-1.88,0.64-2.88,0.79c0.66-0.09,1.33-0.18,1.99-0.27
						C671.19,344.02,670.63,344.06,670.06,344.07c-3.92,0.06-7.68,3.41-7.5,7.5c0.18,4.02,3.3,7.56,7.5,7.5
						c7.17-0.1,14.2-4.13,17.36-10.68c1.7-3.52,2.14-7.12,2.14-10.94c0-6.64,0-13.28,0-19.92c0-1.68,0.02-3.37,0-5.06
						c-0.09-7.05-4.06-14.17-10.53-17.29c-3.04-1.47-6.15-2.21-9.52-2.21c-1.1,0-2.2,0-3.31,0c-11.02,0-22.04,0-33.06,0
						c-14.56,0-29.12,0-43.68,0c-8.29,0-16.59-0.02-24.88,0c-3.74,0.01-7.6,0.93-10.75,3.01c-5.65,3.74-9.05,9.79-9.12,16.59
						c-0.06,5.67,0,11.35,0,17.02c0,6.76-0.91,14.43,3.01,20.35c3.71,5.61,9.74,9.04,16.51,9.12c0.61,0.01,1.23,0,1.84,0
						c9.96,0,19.93,0,29.89,0c14.65,0,29.31,0,43.96,0c9.56,0,19.13,0,28.69,0c0.48,0,0.97,0,1.45,0c3.92,0,7.68-3.45,7.5-7.5
						C677.37,347.51,674.26,344.07,670.06,344.07z"/>
				</g>
			</g>
			<g>
				<g>
					<path class="st3" d="M670.06,434.55c-3.55,0-7.11,0-10.66,0c-8.52,0-17.03,0-25.55,0c-10.31,0-20.61,0-30.92,0
						c-8.79,0-17.57,0-26.36,0c-4.09,0-8.19,0.04-12.28,0c-0.6-0.01-1.19-0.04-1.79-0.12c0.66,0.09,1.33,0.18,1.99,0.27
						c-0.99-0.16-1.94-0.42-2.88-0.79c0.6,0.25,1.19,0.5,1.79,0.76c-0.7-0.3-1.38-0.65-2.01-1.07c-0.64-0.42-0.87-1,0.48,0.4
						c-0.26-0.27-0.57-0.5-0.84-0.76c-0.08-0.08-0.8-0.79-0.76-0.84c0,0,1.29,1.82,0.4,0.48c-0.42-0.64-0.77-1.31-1.07-2.01
						c0.25,0.6,0.5,1.19,0.76,1.79c-0.37-0.93-0.64-1.88-0.79-2.88c0.09,0.66,0.18,1.33,0.27,1.99c-0.45-3.46-0.12-7.13-0.12-10.6
						c0-5.11,0-10.21,0-15.32c0-1.52-0.07-3.08,0.12-4.59c-0.09,0.66-0.18,1.33-0.27,1.99c0.16-0.99,0.42-1.94,0.79-2.88
						c-0.25,0.6-0.5,1.19-0.76,1.79c0.3-0.7,0.65-1.38,1.07-2.01c0.42-0.64,1-0.87-0.4,0.48c0.27-0.26,0.5-0.57,0.76-0.84
						c0.08-0.08,0.79-0.8,0.84-0.76c0,0-1.82,1.29-0.48,0.4c0.64-0.42,1.31-0.77,2.01-1.07c-0.6,0.25-1.19,0.5-1.79,0.76
						c0.93-0.37,1.88-0.64,2.88-0.79c-0.66,0.09-1.33,0.18-1.99,0.27c1.38-0.18,2.79-0.12,4.19-0.12c2.52,0,5.04,0,7.56,0
						c8.49,0,16.97,0,25.46,0c10.34,0,20.68,0,31.02,0c8.93,0,17.86,0,26.8,0c4.15,0,8.3-0.04,12.45,0c0.6,0.01,1.19,0.04,1.79,0.12
						c-0.66-0.09-1.33-0.18-1.99-0.27c0.99,0.16,1.94,0.42,2.88,0.79c-0.6-0.25-1.19-0.5-1.79-0.76c0.7,0.3,1.38,0.65,2.01,1.07
						c0.64,0.42,0.87,1-0.48-0.4c0.26,0.27,0.57,0.5,0.84,0.76c0.08,0.08,0.8,0.79,0.76,0.84c0,0-1.29-1.82-0.4-0.48
						c0.42,0.64,0.77,1.31,1.07,2.01c-0.25-0.6-0.5-1.19-0.76-1.79c0.37,0.93,0.64,1.88,0.79,2.88c-0.09-0.66-0.18-1.33-0.27-1.99
						c0.45,3.46,0.12,7.13,0.12,10.6c0,5.11,0,10.21,0,15.32c0,1.52,0.07,3.08-0.12,4.59c0.09-0.66,0.18-1.33,0.27-1.99
						c-0.16,0.99-0.42,1.94-0.79,2.88c0.25-0.6,0.5-1.19,0.76-1.79c-0.3,0.7-0.65,1.38-1.07,2.01c-0.42,0.64-1,0.87,0.4-0.48
						c-0.27,0.26-0.5,0.57-0.76,0.84c-0.08,0.08-0.79,0.8-0.84,0.76c0,0,1.82-1.29,0.48-0.4c-0.64,0.42-1.31,0.77-2.01,1.07
						c0.6-0.25,1.19-0.5,1.79-0.76c-0.93,0.37-1.88,0.64-2.88,0.79c0.66-0.09,1.33-0.18,1.99-0.27
						C671.19,434.5,670.63,434.54,670.06,434.55c-3.92,0.06-7.68,3.41-7.5,7.5c0.18,4.02,3.3,7.56,7.5,7.5
						c7.17-0.1,14.2-4.13,17.36-10.68c1.7-3.52,2.14-7.12,2.14-10.94c0-6.64,0-13.28,0-19.92c0-1.68,0.02-3.37,0-5.06
						c-0.09-7.05-4.06-14.17-10.53-17.29c-3.04-1.47-6.15-2.21-9.52-2.21c-1.1,0-2.2,0-3.31,0c-11.02,0-22.04,0-33.06,0
						c-14.56,0-29.12,0-43.68,0c-8.29,0-16.59-0.02-24.88,0c-3.74,0.01-7.6,0.93-10.75,3.01c-5.65,3.74-9.05,9.79-9.12,16.59
						c-0.06,5.67,0,11.35,0,17.02c0,6.76-0.91,14.43,3.01,20.35c3.71,5.61,9.74,9.04,16.51,9.12c0.61,0.01,1.23,0,1.84,0
						c9.96,0,19.93,0,29.89,0c14.65,0,29.31,0,43.96,0c9.56,0,19.13,0,28.69,0c0.48,0,0.97,0,1.45,0c3.92,0,7.68-3.45,7.5-7.5
						C677.37,437.98,674.26,434.55,670.06,434.55z"/>
				</g>
			</g>
			<g>
				<g>
					<path class="st3" d="M575.5,588.07c-1.94-3.01-3.89-6.01-5.83-9.02c-4.63-7.16-9.26-14.33-13.89-21.49
						c-5.6-8.65-11.19-17.31-16.79-25.96c-4.76-7.37-9.53-14.74-14.29-22.11c-2.21-3.42-4.46-6.81-6.63-10.26
						c-0.39-0.61-0.72-1.24-1.01-1.9c0.25,0.6,0.5,1.19,0.76,1.79c-0.38-0.95-0.65-1.91-0.81-2.92c0.09,0.66,0.18,1.33,0.27,1.99
						c-0.14-1.1-0.15-2.19-0.02-3.3c-0.09,0.66-0.18,1.33-0.27,1.99c0.16-1.1,0.44-2.15,0.86-3.17c-0.25,0.6-0.5,1.19-0.76,1.79
						c0.2-0.46,0.42-0.9,0.67-1.33c0.39-0.67,1.45-1.74-0.13,0c0.34-0.38,0.66-0.77,1.03-1.12c0.17-0.16,0.34-0.3,0.51-0.46
						c0.56-0.52-1.69,1.2-0.41,0.33c0.3-0.2,0.61-0.4,0.92-0.6c1.72-1.11,3.44-2.22,5.16-3.34c4.69-3.03,9.37-6.06,14.06-9.09
						c1.49-0.97,2.97-2.05,4.61-2.77c-0.6,0.25-1.19,0.5-1.79,0.76c0.95-0.38,1.91-0.65,2.92-0.81c-0.66,0.09-1.33,0.18-1.99,0.27
						c1.1-0.14,2.19-0.15,3.3-0.02c-0.66-0.09-1.33-0.18-1.99-0.27c1.1,0.16,2.15,0.44,3.17,0.86c-0.6-0.25-1.19-0.5-1.79-0.76
						c0.76,0.34,1.55,1.06,2.31,1.3c-0.05-0.02-1.5-1.29-0.73-0.55c0.16,0.16,0.34,0.3,0.5,0.45c0.33,0.32,0.61,0.68,0.93,1
						c-1.55-1.59-0.65-0.85-0.27-0.27c0.26,0.39,0.51,0.79,0.76,1.18c1.24,1.92,2.48,3.84,3.72,5.76
						c4.56,7.06,9.12,14.11,13.69,21.17c5.74,8.87,11.47,17.74,17.21,26.62c4.99,7.72,9.99,15.44,14.98,23.17
						c2.33,3.6,4.7,7.19,6.99,10.82c0.39,0.61,0.73,1.24,1.02,1.91c-0.25-0.6-0.5-1.19-0.76-1.79c0.38,0.95,0.65,1.91,0.81,2.92
						c-0.09-0.66-0.18-1.33-0.27-1.99c0.14,1.1,0.15,2.19,0.02,3.3c0.09-0.66,0.18-1.33,0.27-1.99c-0.16,1.1-0.44,2.15-0.86,3.17
						c0.25-0.6,0.5-1.19,0.76-1.79c-0.2,0.46-0.42,0.9-0.67,1.33c-0.39,0.67-1.45,1.74,0.13,0c-0.34,0.38-0.66,0.77-1.03,1.12
						c-0.17,0.16-0.34,0.3-0.51,0.46c-0.56,0.52,1.69-1.2,0.41-0.33c-0.3,0.2-0.61,0.4-0.92,0.6c-1.72,1.11-3.44,2.22-5.16,3.34
						c-4.69,3.03-9.37,6.06-14.06,9.09c-1.49,0.97-2.97,2.05-4.61,2.77c0.6-0.25,1.19-0.5,1.79-0.76c-0.95,0.38-1.91,0.65-2.92,0.81
						c0.66-0.09,1.33-0.18,1.99-0.27c-1.1,0.14-2.19,0.15-3.3,0.02c0.66,0.09,1.33,0.18,1.99,0.27c-1.1-0.16-2.15-0.44-3.17-0.86
						c0.6,0.25,1.19,0.5,1.79,0.76c-0.46-0.2-0.9-0.42-1.33-0.67c-0.24-0.14-0.47-0.3-0.71-0.44c-1-0.6,1.22,1.04,0.58,0.47
						c-0.38-0.34-0.76-0.67-1.11-1.05c-0.16-0.17-0.29-0.35-0.45-0.52C576.58,589.14,575.9,588.66,575.5,588.07
						c-2.17-3.26-6.72-4.98-10.26-2.69c-3.25,2.09-5.02,6.77-2.69,10.26c4,6,10.96,9.94,18.31,9.06c3.1-0.37,5.96-1.18,8.63-2.87
						c0.59-0.37,1.17-0.76,1.75-1.13c5.61-3.63,11.22-7.26,16.84-10.89c1.46-0.94,2.95-1.85,4.37-2.83
						c6.69-4.62,9.81-12.11,8.5-20.11c-0.62-3.78-2.69-6.77-4.7-9.88c-6.01-9.29-12.02-18.59-18.03-27.88
						c-7.86-12.16-15.72-24.32-23.58-36.48c-4.5-6.96-8.99-13.94-13.51-20.89c-2.06-3.17-4.77-5.94-8.26-7.51
						c-6.12-2.75-13.12-2.65-18.89,1c-4.83,3.05-9.6,6.21-14.4,9.31c-2.41,1.56-4.83,3.12-7.24,4.68c-0.44,0.29-0.89,0.56-1.33,0.87
						c-3.58,2.48-6.05,5.62-7.66,9.65c-2.18,5.47-1.4,12.09,1.72,17.04c0.35,0.55,0.71,1.1,1.07,1.65
						c5.42,8.39,10.85,16.78,16.27,25.17c7.91,12.24,15.83,24.48,23.74,36.72c5.19,8.03,10.39,16.06,15.58,24.09
						c0.26,0.41,0.52,0.81,0.79,1.22c2.13,3.29,6.75,4.95,10.26,2.69C576.1,596.21,577.78,591.59,575.5,588.07z"/>
				</g>
			</g>
			<g>
				<g>
					<path class="st3" d="M513.51,643.36c-1.94-3.01-3.89-6.01-5.83-9.02c-4.63-7.16-9.26-14.33-13.89-21.49
						c-5.6-8.65-11.19-17.31-16.79-25.96c-4.76-7.37-9.53-14.74-14.29-22.11c-2.21-3.42-4.46-6.81-6.63-10.26
						c-0.39-0.61-0.72-1.24-1.01-1.9c0.25,0.6,0.5,1.19,0.76,1.79c-0.38-0.95-0.65-1.91-0.81-2.92c0.09,0.66,0.18,1.33,0.27,1.99
						c-0.14-1.1-0.15-2.19-0.02-3.3c-0.09,0.66-0.18,1.33-0.27,1.99c0.16-1.1,0.44-2.15,0.86-3.17c-0.25,0.6-0.5,1.19-0.76,1.79
						c0.2-0.46,0.42-0.9,0.67-1.33c0.39-0.67,1.45-1.74-0.13,0c0.34-0.38,0.66-0.77,1.03-1.12c0.17-0.16,0.34-0.3,0.51-0.46
						c0.56-0.52-1.69,1.2-0.41,0.33c0.3-0.2,0.61-0.4,0.92-0.6c1.72-1.11,3.44-2.22,5.16-3.34c4.69-3.03,9.37-6.06,14.06-9.09
						c1.49-0.97,2.97-2.05,4.61-2.77c-0.6,0.25-1.19,0.5-1.79,0.76c0.95-0.38,1.91-0.65,2.92-0.81c-0.66,0.09-1.33,0.18-1.99,0.27
						c1.1-0.14,2.19-0.15,3.3-0.02c-0.66-0.09-1.33-0.18-1.99-0.27c1.1,0.16,2.15,0.44,3.17,0.86c-0.6-0.25-1.19-0.5-1.79-0.76
						c0.76,0.34,1.55,1.06,2.31,1.3c-0.05-0.02-1.5-1.29-0.73-0.55c0.16,0.16,0.34,0.3,0.5,0.45c0.33,0.32,0.61,0.68,0.93,1
						c-1.55-1.59-0.65-0.85-0.27-0.27c0.26,0.39,0.51,0.79,0.76,1.18c1.24,1.92,2.48,3.84,3.72,5.76
						c4.56,7.06,9.12,14.11,13.69,21.17c5.74,8.87,11.47,17.74,17.21,26.62c4.99,7.72,9.99,15.44,14.98,23.17
						c2.33,3.6,4.7,7.19,6.99,10.82c0.39,0.61,0.73,1.24,1.02,1.91c-0.25-0.6-0.5-1.19-0.76-1.79c0.38,0.95,0.65,1.91,0.81,2.92
						c-0.09-0.66-0.18-1.33-0.27-1.99c0.14,1.1,0.15,2.19,0.02,3.3c0.09-0.66,0.18-1.33,0.27-1.99c-0.16,1.1-0.44,2.15-0.86,3.17
						c0.25-0.6,0.5-1.19,0.76-1.79c-0.2,0.46-0.42,0.9-0.67,1.33c-0.39,0.67-1.45,1.74,0.13,0c-0.34,0.38-0.66,0.77-1.03,1.12
						c-0.17,0.16-0.34,0.3-0.51,0.46c-0.56,0.52,1.69-1.2,0.41-0.33c-0.3,0.2-0.61,0.4-0.92,0.6c-1.72,1.11-3.44,2.22-5.16,3.34
						c-4.69,3.03-9.37,6.06-14.06,9.09c-1.49,0.97-2.97,2.05-4.61,2.77c0.6-0.25,1.19-0.5,1.79-0.76c-0.95,0.38-1.91,0.65-2.92,0.81
						c0.66-0.09,1.33-0.18,1.99-0.27c-1.1,0.14-2.19,0.15-3.3,0.02c0.66,0.09,1.33,0.18,1.99,0.27c-1.1-0.16-2.15-0.44-3.17-0.86
						c0.6,0.25,1.19,0.5,1.79,0.76c-0.46-0.2-0.9-0.42-1.33-0.67c-0.24-0.14-0.47-0.3-0.71-0.44c-1-0.6,1.22,1.04,0.58,0.47
						c-0.38-0.34-0.76-0.67-1.11-1.05c-0.16-0.17-0.29-0.35-0.45-0.52C514.59,644.43,513.9,643.95,513.51,643.36
						c-2.17-3.26-6.72-4.98-10.26-2.69c-3.25,2.09-5.02,6.77-2.69,10.26c4,6,10.96,9.94,18.31,9.06c3.1-0.37,5.96-1.18,8.63-2.87
						c0.59-0.37,1.17-0.76,1.75-1.13c5.61-3.63,11.22-7.26,16.84-10.89c1.46-0.94,2.95-1.85,4.37-2.83
						c6.69-4.62,9.81-12.11,8.5-20.11c-0.62-3.78-2.69-6.77-4.7-9.88c-6.01-9.29-12.02-18.59-18.03-27.88
						c-7.86-12.16-15.72-24.32-23.58-36.48c-4.5-6.96-8.99-13.94-13.51-20.89c-2.06-3.17-4.77-5.94-8.26-7.51
						c-6.12-2.75-13.12-2.65-18.89,1c-4.83,3.05-9.6,6.21-14.4,9.31c-2.41,1.56-4.83,3.12-7.24,4.68c-0.44,0.29-0.89,0.56-1.33,0.87
						c-3.58,2.48-6.05,5.62-7.66,9.65c-2.18,5.47-1.4,12.09,1.72,17.04c0.35,0.55,0.71,1.1,1.07,1.65
						c5.42,8.39,10.85,16.78,16.27,25.17c7.91,12.24,15.83,24.48,23.74,36.72c5.19,8.03,10.39,16.06,15.58,24.09
						c0.26,0.41,0.52,0.81,0.79,1.22c2.13,3.29,6.75,4.95,10.26,2.69C514.1,651.5,515.79,646.88,513.51,643.36z"/>
				</g>
			</g>
			<g>
				<g>
					<path class="st3" d="M612.48,259.42c0-6.72,0-13.43,0-20.15c0-10.66,0-21.31,0-31.97c0-2.45,0-4.91,0-7.36
						c0-3.92-3.45-7.68-7.5-7.5c-4.06,0.18-7.5,3.3-7.5,7.5c0,6.72,0,13.43,0,20.15c0,10.66,0,21.31,0,31.97c0,2.45,0,4.91,0,7.36
						c0,3.92,3.45,7.68,7.5,7.5C609.05,266.74,612.48,263.62,612.48,259.42L612.48,259.42z"/>
				</g>
			</g>
			<g>
				<g>
					<path class="st3" d="M765.03,199.94c0,6.72,0,13.43,0,20.15c0,10.66,0,21.31,0,31.97c0,2.45,0,4.91,0,7.36
						c0,3.92,3.45,7.68,7.5,7.5c4.06-0.18,7.5-3.3,7.5-7.5c0-6.72,0-13.43,0-20.15c0-10.66,0-21.31,0-31.97c0-2.45,0-4.91,0-7.36
						c0-3.92-3.45-7.68-7.5-7.5C768.47,192.62,765.03,195.73,765.03,199.94L765.03,199.94z"/>
				</g>
			</g>
			<g>
				<g>
					<path class="st3" d="M585.46,300.47c0.06-5.42,0.12-10.85,0.18-16.27c0.01-1.33,0.02-2.66,0.04-3.98
						c0.01-0.49,0.01-0.97,0.05-1.45c0.03-0.4,0.09-0.8,0.11-1.2c0.07-1.13-0.39,2.21-0.14,1.06c0.07-0.34,0.11-0.69,0.18-1.03
						c0.21-1.07,0.5-2.12,0.85-3.15c0.1-0.28,0.29-0.62,0.34-0.91c-0.31,1.79-0.63,1.34-0.22,0.56c0.38-0.73,0.75-1.45,1.2-2.14
						c0.09-0.14,0.64-0.75,0.63-0.9c0.06,0.75-1.22,1.36-0.23,0.36c0.55-0.55,1.12-1.08,1.68-1.62c0.78-0.75-0.56,0.47-0.55,0.43
						c0.03-0.17,0.9-0.6,1.05-0.69c0.37-0.23,0.76-0.44,1.15-0.63c1.85-0.93-0.96,0.23,0.33-0.15c0.98-0.28,1.93-0.59,2.93-0.79
						c0.43-0.09,2.18-0.18,0.2-0.06c0.6-0.04,1.19-0.1,1.78-0.13c0.86-0.03,1.71-0.02,2.57-0.02c1.49,0,2.98,0,4.47,0
						c24.52,0,49.04,0,73.56,0c27.44,0,54.89,0,82.33,0c6,0,12.02,0.16,18.02,0c0.13,0,0.26,0.01,0.39,0
						c0.68-0.03,1.35-0.17,2.02-0.27c0.5-0.07-2.74,0.18-1.69,0.23c0.36,0.02,0.74-0.01,1.1-0.01c0.99-0.01,1.34,0.68-0.97-0.17
						c0.37,0.14,0.83,0.15,1.22,0.25c0.36,0.1,0.8,0.35,1.16,0.38c-1.68-0.13-1.78-0.86-0.98-0.4c0.2,0.12,0.42,0.21,0.63,0.33
						c0.37,0.21,0.7,0.47,1.06,0.68c1,0.57-1.44-1.4-0.67-0.5c0.25,0.29,0.58,0.52,0.85,0.8c0.22,0.22,0.41,0.47,0.62,0.69
						c0.91,0.92-1.05-1.62-0.36-0.48c0.37,0.63,0.8,1.21,1.15,1.86c0.19,0.35,0.34,0.72,0.53,1.07c0.74,1.34-0.6-1.72-0.09-0.21
						c0.3,0.91,0.62,1.81,0.87,2.73c0.28,1.05,0.5,2.12,0.69,3.2c0.06,0.32,0.26,2.29,0.07,0.41c0.06,0.65,0.14,1.3,0.19,1.95
						c0.16,2,0.19,4.01,0.19,6.02c0,1.53,0,3.07,0,4.6c0,4.46,0,8.93,0,13.39c0,12.75,0,25.51,0,38.26c0,30.28,0,60.56,0,90.84
						c0,11.33,0,22.67,0,34c0,4.65,0.24,9.36,0,14c-0.44,8.62-0.89,17.1-0.34,25.75c1.17,18.54,4.99,37.49,14.28,53.77
						c2.62,4.59,5.75,8.93,9.25,12.88c0.37,0.42,0.74,0.87,1.14,1.28c0.97,1-1.26-1.83-0.54-0.7c0.25,0.4,0.54,0.78,0.78,1.19
						c0.25,0.41,0.45,0.85,0.68,1.27c0.74,1.36-0.6-2.06-0.08-0.08c0.07,0.28,0.14,1.11,0.33,1.34c-0.84-1-0.07-2.03-0.14-0.87
						c-0.01,0.17-0.1,1.04-0.02,1.15c-0.56-0.76,0.49-2.08,0.08-0.82c-0.07,0.22-0.28,0.67-0.28,0.89
						c-0.02-1.17,0.79-1.63,0.19-0.61c-0.79,1.36,0.15-0.48,0.36-0.35c0.01,0.01-0.75,0.81-0.79,0.86c-0.89,1-0.69-0.07,0.2-0.06
						c-0.63-0.01-2.49,1.5-3.12,1.83c-0.31,0.16-1.26,0.45,0.11-0.03c-0.64,0.22-1.26,0.47-1.9,0.68c-0.91,0.3-1.83,0.54-2.75,0.8
						c-0.97,0.28-1.92,0.58-2.87,0.92c-2.59,0.91-5.14,1.98-7.64,3.1c-5.17,2.31-10.14,5.08-14.9,8.15
						C749.29,612.25,727.43,641,719,674.27c-2.62,10.33-3.97,21.02-4.23,31.67c2.5-2.5,5-5,7.5-7.5c-8.82,0-17.64,0-26.46,0
						c-21.19,0-42.38,0-63.56,0c-25.71,0-51.43,0-77.14,0c-22.16,0-44.32,0-66.48,0c-7.3,0-14.6,0-21.91,0
						c-3.45,0-6.94-0.15-10.39,0c-0.15,0.01-0.3,0-0.45,0c2.5,2.5,5,5,7.5,7.5c0.2-10.13-0.7-20.37-2.01-30.41
						c-2.64-20.12-7.29-40.65-17.66-58.32c-5.93-10.1-13.98-19.16-24.25-24.98c0,4.32,0,8.63,0,12.95
						c11.93-8.66,23.86-17.32,35.79-25.98c1.7-1.23,3.39-2.46,5.09-3.69c3.17-2.3,5.04-6.62,2.69-10.26
						c-2.02-3.14-6.87-5.16-10.26-2.69c-11.93,8.66-23.86,17.32-35.79,25.98c-1.7,1.23-3.39,2.46-5.09,3.69
						c-2.2,1.6-3.71,3.63-3.71,6.48c0,2.61,1.42,5.18,3.71,6.48c0.99,0.56,1.96,1.15,2.91,1.77c0.44,0.29,0.88,0.59,1.31,0.89
						c0.29,0.21,2.03,1.45,1.06,0.76c-0.97-0.69,0.38,0.32,0.65,0.55c0.41,0.34,0.8,0.68,1.2,1.03c0.9,0.8,1.78,1.64,2.63,2.5
						c0.8,0.81,1.58,1.64,2.33,2.5c0.73,0.83,1.47,2.18,2.34,2.83c0.02,0.01-0.94-1.26-0.47-0.6c0.18,0.25,0.37,0.49,0.55,0.74
						c0.32,0.44,0.64,0.88,0.95,1.32c0.71,1.02,1.4,2.06,2.07,3.11c2.59,4.11,4.69,8.44,6.69,12.85c0.34,0.74-0.28-0.69-0.29-0.68
						c-0.01,0.16,0.29,0.7,0.37,0.89c0.21,0.52,0.42,1.04,0.63,1.57c0.47,1.2,0.92,2.41,1.36,3.62c0.84,2.35,1.61,4.72,2.32,7.11
						c2.66,8.92,4.52,18.07,5.82,27.28c0.18,1.24,0.1,1.08-0.01-0.1c0.05,0.55,0.15,1.1,0.21,1.65c0.14,1.07,0.26,2.15,0.38,3.23
						c0.21,1.9,0.4,3.8,0.57,5.71c0.29,3.29,0.52,6.59,0.67,9.89c0.16,3.44,0.29,6.9,0.22,10.34c-0.08,4.05,3.5,7.5,7.5,7.5
						c8.82,0,17.64,0,26.46,0c21.19,0,42.38,0,63.56,0c25.71,0,51.43,0,77.14,0c22.16,0,44.32,0,66.48,0c10.75,0,21.55,0.27,32.3,0
						c0.15,0,0.3,0,0.45,0c4.13,0,7.4-3.44,7.5-7.5c0.07-2.73,0.2-5.47,0.42-8.19c0.11-1.33,0.23-2.65,0.38-3.98
						c0.07-0.65,0.15-1.31,0.23-1.96c0.11-0.88,0.11-0.86-0.01,0.06c0.06-0.43,0.12-0.85,0.19-1.28c0.78-5.15,1.86-10.26,3.27-15.28
						c1.27-4.56,2.85-9,4.59-13.4c0.72-1.82-0.65,1.46,0.13-0.32c0.23-0.52,0.45-1.04,0.69-1.56c0.46-1.03,0.93-2.05,1.42-3.07
						c1.04-2.16,2.14-4.3,3.31-6.39c2.08-3.74,4.35-7.38,6.79-10.89c0.59-0.85,1.2-1.7,1.82-2.54c0.31-0.42,0.61-0.83,0.92-1.24
						c0.25-0.33,1.19-1.79,0.07-0.11c1.19-1.79,2.75-3.44,4.15-5.06c5.02-5.83,10.56-11.21,16.5-16.09c0.68-0.56,1.37-1.1,2.05-1.65
						c0.38-0.3,1.55-1.34-0.15,0.11c0.32-0.27,0.68-0.52,1.02-0.78c1.44-1.09,2.9-2.14,4.39-3.17c2.55-1.77,5.17-3.45,7.84-5.02
						c2.48-1.46,5.02-2.84,7.61-4.11c1.11-0.55,2.24-1.07,3.37-1.57c0.27-0.12,0.54-0.23,0.81-0.35c0.97-0.45-1.07,0.44-1,0.42
						c0.61-0.2,1.2-0.49,1.8-0.73c6.85-2.66,14.66-3.74,19.79-9.52c5.29-5.97,5.26-14.25,0.99-20.79c-1.11-1.7-2.44-3.18-3.77-4.7
						c-0.38-0.44-0.76-0.89-1.13-1.34c-0.19-0.23-1.39-1.8-0.27-0.31c-0.7-0.93-1.39-1.87-2.04-2.83c-1.42-2.08-2.72-4.23-3.92-6.44
						c-1.1-2.04-2.08-4.13-3.04-6.23c-0.81-1.78,0.58,1.49-0.14-0.33c-0.14-0.36-0.29-0.71-0.43-1.07
						c-0.49-1.25-0.95-2.51-1.39-3.77c-1.54-4.45-2.78-9.01-3.76-13.62c-0.46-2.14-0.86-4.29-1.21-6.45
						c-0.17-1.05-0.33-2.11-0.48-3.17c-0.27-1.83,0.21,1.74-0.01-0.09c-0.08-0.69-0.17-1.37-0.24-2.06
						c-0.43-3.85-0.72-7.72-0.88-11.59c-0.24-5.8-0.21-11.61,0.15-17.4c0.78-12.61,0.38-25.29,0.38-37.92c0-29.78,0-59.57,0-89.35
						c0-23.7,0-47.4,0-71.1c0-12.88-2.47-31.83-18.15-34.61c-2.4-0.43-4.01-0.38-6.36-0.06c2.24-0.31,2.46-0.23,1.22-0.26
						c-2.32-0.05-4.65,0-6.97,0c-24.68,0-49.36,0-74.04,0c-27.73,0-55.46,0-83.18,0c-9.99,0-22.05-1.54-30.79,4.05
						c-6.13,3.92-10.19,10.43-11.43,17.58c-0.59,3.43-0.6,6.72-0.64,10.17c-0.06,5.3-0.12,10.61-0.17,15.91
						c-0.04,3.92,3.48,7.68,7.5,7.5C582.06,307.78,585.41,304.67,585.46,300.47L585.46,300.47z"/>
				</g>
			</g>
			<g>
				<g>
					<path class="st3" d="M583.87,390.94c0.2-11.51,0.4-23.01,0.61-34.52c0.03-1.62,0.06-3.24,0.09-4.85c0.07-3.92-3.5-7.68-7.5-7.5
						c-4.12,0.18-7.43,3.29-7.5,7.5c-0.2,11.51-0.4,23.01-0.61,34.52c-0.03,1.62-0.06,3.24-0.09,4.85c-0.07,3.92,3.5,7.68,7.5,7.5
						C580.49,398.26,583.79,395.15,583.87,390.94L583.87,390.94z"/>
				</g>
			</g>
			<g>
				<g>
					<path class="st3" d="M568.72,494.37c2.85-2.54,5.7-5.08,8.56-7.62c1.33-1.18,3.17-2.44,4.02-4.05
						c0.97-1.84,1.02-3.57,1.05-5.51c0.15-8.82,0.31-17.64,0.46-26.45c0.05-2.89,0.1-5.79,0.15-8.68c0.07-3.92-3.5-7.68-7.5-7.5
						c-4.12,0.18-7.43,3.29-7.5,7.5c-0.19,10.76-0.38,21.51-0.57,32.27c-0.03,1.53-0.05,3.06-0.08,4.59c0.73-1.77,1.46-3.54,2.2-5.3
						c-3.8,3.39-7.6,6.77-11.4,10.16c-2.94,2.62-2.87,7.97,0,10.61C561.25,497.25,565.59,497.16,568.72,494.37L568.72,494.37z"/>
				</g>
			</g>
			<g>
				<g>
					<path class="st3" d="M503.54,546.66c7.31-4.88,14.62-9.76,21.93-14.63c1.04-0.7,2.09-1.39,3.13-2.09
						c3.26-2.17,4.98-6.72,2.69-10.26c-2.09-3.25-6.77-5.02-10.26-2.69c-7.31,4.88-14.62,9.76-21.93,14.63
						c-1.04,0.7-2.09,1.39-3.13,2.09c-3.26,2.17-4.98,6.72-2.69,10.26C495.37,547.22,500.05,548.99,503.54,546.66L503.54,546.66z"/>
				</g>
			</g>
			<g>
				<g>
					<path class="st3" d="M429.81,608.91c-3.43,1.73-6.87,3.42-10.32,5.1c-7.94,3.86-15.93,7.64-23.97,11.29
						c-5.17,2.35-10.37,4.64-15.6,6.85c0.6-0.25,1.19-0.5,1.79-0.76c-8.15,3.43-16.43,6.89-24.99,9.16
						c-1.62,0.43-3.25,0.81-4.91,1.04c0.66-0.09,1.33-0.18,1.99-0.27c-2.02,0.27-4.04,0.05-6.06,0.17
						c-3.51,0.21-7.06,0.76-10.47,1.64c-6.88,1.77-14.22,4.99-19.05,10.38c-2.64,2.95-4.76,6.51-5.39,10.47
						c-0.83,5.24,0.2,10.04,2.48,14.79c2.37,4.94,6.19,9.28,10.12,13.05c3.08,2.96,6.46,5.65,10.16,7.79
						c6.73,3.89,14.33,6.37,21.93,7.91c8.47,1.71,17.15,2.49,25.78,2.68c16.33,0.35,32.67-1.33,48.79-3.81
						c8.4-1.3,16.87-2.72,25.11-4.82c0.12-0.03,0.24-0.06,0.36-0.09c3.81-0.94,6.46-5.44,5.24-9.23c-1.28-3.95-5.14-6.25-9.23-5.24
						c-6.84,1.7-13.81,2.98-20.76,4.15c-3.82,0.64-7.65,1.22-11.5,1.74c0.66-0.09,1.33-0.18,1.99-0.27
						c-14.57,1.95-29.33,3.09-44.03,2.43c-4.23-0.19-8.45-0.54-12.65-1.09c0.66,0.09,1.33,0.18,1.99,0.27
						c-7.33-0.99-14.63-2.61-21.48-5.48c0.6,0.25,1.19,0.5,1.79,0.76c-2.05-0.87-4.06-1.85-5.99-2.98
						c-0.93-0.54-1.84-1.12-2.73-1.74c-0.44-0.3-0.86-0.62-1.29-0.93c-0.9-0.65,1.79,1.43,0.62,0.48c-0.2-0.17-0.41-0.33-0.61-0.5
						c-2.68-2.24-5.19-4.75-7.41-7.44c-0.27-0.32-0.52-0.65-0.78-0.97c1.57,1.88,0.59,0.77,0.25,0.29
						c-0.44-0.61-0.86-1.22-1.25-1.86c-0.73-1.17-1.38-2.38-1.92-3.65c0.25,0.6,0.5,1.19,0.76,1.79c-0.59-1.41-1.03-2.87-1.26-4.38
						c0.09,0.66,0.18,1.33,0.27,1.99c-0.16-1.18-0.18-2.36-0.04-3.54c-0.09,0.66-0.18,1.33-0.27,1.99c0.15-1.1,0.44-2.16,0.86-3.19
						c-0.25,0.6-0.5,1.19-0.76,1.79c0.25-0.59,0.54-1.17,0.87-1.72c0.53-0.89,1.77-2.19,0-0.16c0.87-1,1.76-1.92,2.78-2.77
						c1.06-0.89-1.61,1.18-0.61,0.47c0.29-0.21,0.57-0.41,0.86-0.61c0.56-0.38,1.14-0.74,1.73-1.08c1.27-0.73,2.59-1.37,3.94-1.94
						c-0.6,0.25-1.19,0.5-1.79,0.76c3.67-1.53,7.55-2.55,11.49-3.1c-0.66,0.09-1.33,0.18-1.99,0.27c2.63-0.35,5.2-0.17,7.82-0.33
						c2.95-0.19,5.89-0.8,8.74-1.58c7.03-1.92,13.85-4.64,20.59-7.4c15.47-6.35,30.64-13.4,45.67-20.72
						c3.31-1.61,6.62-3.23,9.9-4.89c3.51-1.77,4.79-7,2.69-10.26C437.76,608.01,433.57,607.01,429.81,608.91L429.81,608.91z"/>
				</g>
			</g>
			<g>
				<g>
					<path class="st3" d="M787.55,599.22c2.04,2,3.93,4.16,5.78,6.33c0.9,1.06,1.78,2.13,2.64,3.21c0.24,0.3,0.47,0.59,0.7,0.89
						c0.1,0.12,0.19,0.24,0.29,0.37c0.7,0.89-1.28-1.68-0.6-0.77c0.49,0.65,0.99,1.3,1.47,1.95c2.19,2.96,4.26,6.02,6.17,9.17
						c2.35,3.87,4.46,7.89,6.24,12.06c-0.25-0.6-0.5-1.19-0.76-1.79c2.15,5.11,3.79,10.43,4.54,15.93
						c-0.09-0.66-0.18-1.33-0.27-1.99c0.5,3.78,0.56,7.59,0.06,11.38c0.09-0.66,0.18-1.33,0.27-1.99c-0.45,3.27-1.31,6.44-2.59,9.48
						c0.25-0.6,0.5-1.19,0.76-1.79c-1.03,2.39-2.3,4.67-3.82,6.79c-0.37,0.51-1.33,1.66,0.39-0.47c-0.16,0.2-0.32,0.41-0.49,0.61
						c-0.44,0.54-0.89,1.06-1.36,1.57c-0.82,0.89-1.68,1.74-2.58,2.55c-0.45,0.41-0.91,0.8-1.38,1.18c-0.49,0.4-1.71,1.27,0.5-0.36
						c-0.21,0.16-0.42,0.32-0.63,0.47c-1.06,0.78-2.15,1.51-3.28,2.19c-2.22,1.35-4.56,2.51-6.95,3.53c0.6-0.25,1.19-0.5,1.79-0.76
						c-6.57,2.75-13.56,4.36-20.6,5.31c0.66-0.09,1.33-0.18,1.99-0.27c-10.93,1.45-22.04,1.39-33.01,0.42
						c-2.82-0.25-5.64-0.57-8.45-0.94c0.66,0.09,1.33,0.18,1.99,0.27c-3.59-0.49-7.17-1.07-10.72-1.79c-1.99-0.4-3.98-0.3-5.78,0.76
						c-1.56,0.91-3.04,2.69-3.45,4.48c-0.85,3.73,1.13,8.4,5.24,9.23c12.53,2.52,25.43,3.82,38.22,3.68
						c14.76-0.16,29.93-2.23,43.31-8.79c6.08-2.98,11.86-7.2,16.08-12.53c2.33-2.95,4.37-5.96,5.88-9.41
						c1.97-4.52,3.15-8.96,3.73-13.86c0.91-7.65-0.34-15.62-2.7-22.91c-2.36-7.29-5.78-14.27-9.82-20.77
						c-3.43-5.52-7.33-10.75-11.47-15.75c-2.04-2.45-4.14-4.89-6.4-7.14c-0.11-0.11-0.22-0.22-0.33-0.33
						c-2.81-2.75-7.85-3.01-10.61,0C784.82,591.58,784.55,596.28,787.55,599.22L787.55,599.22z"/>
				</g>
			</g>
		</g>
	</g>
</g>
</svg>
