<?xml version="1.0" encoding="utf-8"?>
<!-- Generator: Adobe Illustrator 24.2.3, SVG Export Plug-In . SVG Version: 6.00 Build 0)  -->
<svg version="1.1" id="Capa_1" xmlns="http://www.w3.org/2000/svg" xmlns:xlink="http://www.w3.org/1999/xlink" x="0px" y="0px"
	 viewBox="0 0 1080 1080" style="enable-background:new 0 0 1080 1080;" xml:space="preserve">
<style type="text/css">
	.st0{opacity:0.4;}
	.st1{fill:#A8A9AD;}
	.st2{fill:#29AAE3;}
	.st3{fill:#093548;}
	.st4{fill:none;stroke:#093548;stroke-width:8;stroke-linecap:round;stroke-miterlimit:10;}
	.st5{fill:none;stroke:#093548;stroke-width:8;stroke-linecap:round;stroke-miterlimit:10;stroke-dasharray:35.2576,35.2576;}
	.st6{opacity:0.2;}
	.st7{fill:#9291A1;}
	.st8{fill:#FFFFFF;}
	.st9{fill:url(#SVGID_1_);}
	.st10{fill:url(#SVGID_2_);}
	.st11{fill:url(#SVGID_3_);}
	.st12{fill:url(#SVGID_4_);}
	.st13{fill:url(#SVGID_5_);}
	.st14{fill:url(#SVGID_6_);}
	.st15{fill:url(#SVGID_7_);}
	.st16{fill:url(#SVGID_8_);}
	.st17{fill:url(#SVGID_9_);}
	.st18{fill:url(#SVGID_10_);}
	.st19{fill:url(#SVGID_11_);}
</style>
<g>
	<g class="st6">
		<g>
			<g>
				<path class="st2" d="M613.32,456.03c10.07-14.42,18.24-29.91,23.54-46.89c4.55-14.58,8.41-29.42,11.59-44.35
					c2.55-11.95,4.29-24.17,5.12-36.35c0.86-12.6,0.57-25.33-0.04-37.96c-0.18-3.78-2.57-7.84-4.93-11.04
					c-4.32-5.88-10.81-9-17.56-11.43c-18.59-6.69-38.14-9.02-57.45-12.38c-18.39-3.2-36.68-6.73-54.45-12.63
					c-18.64-6.19-35.25-15.47-47.94-30.85c-1.99-2.41-3.67-5.08-5.72-7.95c-0.83,0.63-1.37,0.98-1.85,1.41
					c-15.3,13.68-28.22,29.2-38.23,47.26c-11.07,20-15.86,41.5-16.97,64c-0.69,13.94,0.8,27.75,3.12,41.54
					c5.15,30.7,14.07,60.1,29.86,87.07l5.35,8.65c-2.64-1.92-6.69-1.94-10.13-2.73c-6.55-1.51-13.17-2.75-19.63-4.59
					c-1.82-0.52-3.6-2.43-4.67-4.15c-18.88-30.25-34.51-62.06-44.42-96.39c-3.72-12.87-6.28-26.1-8.92-39.25
					c-1.08-5.36-1.1-10.94-1.35-16.44c-0.34-7.44-0.99-14.93-0.52-22.34c0.64-10.12,2.07-20.21,3.42-30.27
					c1.69-12.6,5.73-24.6,10.79-36.17c3.55-8.11,7.79-15.96,12.33-23.57c8.31-13.93,18.33-26.57,30.17-37.74
					c11.58-10.93,24.32-20.3,38.14-28.15c11.73-6.67,23.91-12.41,37.24-15.17c8.78-1.82,17.74-3.83,26.54-0.86
					c3.96,1.33,7.36,4.32,11.85,7.07c1.45-0.81,3.82-2.24,6.27-3.49c17.14-8.73,34.89-8.79,52.95-3.53
					c18.83,5.49,34.86,15.79,49.22,28.93c20.23,18.51,35.2,40.67,46.18,65.71c5.97,13.61,10.69,27.62,13.44,42.15
					c2.26,11.96,3.48,24.13,4.78,36.25c0.65,6.07,0.7,12.24,0.56,18.36c-0.36,15.19-2.06,30.25-5.11,45.14
					c-7.69,37.65-22.88,72.2-43.14,104.68c-7.04,11.29-4.58,9.41-17.5,12.56c-6.01,1.46-12.14,2.48-18.23,3.63L613.32,456.03z"/>
			</g>
		</g>
	</g>
	<g class="st0">
		<g>
			<path class="st1" d="M528.6,604.59c91.9,0,183.8-0.06,275.7,0.04c22.12,0.02,38.87,14.09,39.41,34.02
				c0.25,9.15-2.27,18.41-3.83,27.58c-14.16,82.93-28.4,165.85-42.58,248.77c-3.55,20.77-17.69,32.64-39.91,32.73
				c-40.29,0.16-80.58,0.05-120.87,0.05c-110.55,0-221.09,0-331.64,0c-30.01,0-41.21-10.82-46.1-40.63
				c-11.14-67.93-23.19-135.7-34.89-203.53c-3.39-19.66-6.93-39.3-10.19-58.98c-3.14-18.97,13.02-38.45,33.21-39.77
				c9.29-0.61,18.64-0.26,27.96-0.26C359.45,604.58,444.02,604.59,528.6,604.59z"/>
		</g>
	</g>
	<g>
		<g>
			<g>
				<g>
					<path class="st3" d="M331.08,612.28c7.14-22.69,19.04-42.95,36.98-58.76c8.24-7.26,17.89-13.53,28.19-18.4
						c4.78-2.26,9.64-4.12,15.13-5.82c5.87-1.83,11.87-3.22,17.85-4.6c6.46-1.49,12.95-2.87,19.45-4.22
						c5.74-1.19,12.03-1.82,17.51-3.94c5.2-2,9.69-5.55,12.09-10.68c1.52-3.23,2.25-6.68,3.04-10.15c0.46-2.02,0.97-4.08,1.12-6.15
						c0.2-2.67-0.04-5.4-0.12-8.08c-0.09-3.08-0.14-6.16,0.06-9.24c0.18-2.96,0.67-5.79,0.33-8.75c-0.72-6.29-3.94-12.25-9.55-15.51
						c-2.31-1.35-4.9-2-7.51-2.43c-3.18-0.53-6.3-1.24-9.45-1.92c-2.81-0.61-5.63-1.22-8.43-1.89c-1.55-0.37-3.1-0.78-4.65-1.19
						c-1.8-0.48-0.78-0.27-0.35-0.04c-0.19-0.11-0.44-0.44-0.76-0.92c-3.31-5.03-6.31-10.31-9.31-15.53
						c-6.07-10.55-11.72-21.35-16.85-32.39c-10.38-22.38-18.17-46.12-23.3-70.53c-1.25-5.94-2.96-12.41-3.57-18.19
						c-0.69-6.55-0.74-13.21-1.07-19.79c-0.65-13.11,0.84-25.98,2.59-38.96c3.34-24.86,13.42-47.47,27.14-68.33
						c12.8-19.46,30.15-36.27,49.64-49.17c9.67-6.4,20.42-12.57,30.88-16.68c5.74-2.26,11.63-3.95,17.67-5.2
						c5.49-1.13,11.09-2.28,16.41-1.71c1.59,0.17,3.21,0.63,4.73,1.14c2.26,0.75-0.49-0.31,0.74,0.34c0.6,0.32,1.19,0.65,1.77,1
						c2.57,1.57,4.99,3.38,7.55,4.97c2.28,1.42,5.28,1.3,7.57,0c5.22-2.95,10.15-5.6,15.89-7.27c6.06-1.77,11.24-2.41,17.68-2.27
						c11.56,0.24,24.29,3.95,34.38,8.75c20.79,9.9,38.77,26.39,52.32,44.27c14.88,19.64,26.1,42.28,32.96,65.92
						c3.75,12.91,5.69,26.08,7.17,39.35c0.76,6.81,1.6,13.61,1.75,20.46c0.15,6.86-0.1,13.73-0.58,20.57
						c-3.54,50.44-23.14,97.58-50.15,139.82c-0.15,0.24-1.13,1.38-1.11,1.65c-0.06-1.07,1.27-1.3,0.46-0.63
						c-0.17,0.14-0.36,0.36-0.5,0.53c-1.04,1.26,1.53-1.11,0.2-0.19c-1.22,0.83,1.98-0.56-0.2,0.06c-4.32,1.23-8.76,2.19-13.15,3.11
						c-3.19,0.67-6.4,1.25-9.61,1.84c-2.94,0.54-5.67,1.02-8.19,2.76c-2.44,1.69-4.47,3.67-6.2,6.07c-1.9,2.66-2.39,5.49-2.31,8.69
						c0.16,6.82,0.07,13.64,0.45,20.46c0.34,6.01,0.71,12.44,2.65,18.18c1.56,4.62,4.12,8.54,8.19,11.3
						c3.48,2.36,7.74,3.51,11.81,4.37c13.4,2.85,26.84,5.43,40.16,8.65c12.61,3.05,23.57,7.38,34.65,14.12
						c20.09,12.22,35.29,29.61,45.87,50.9c2.85,5.74,5.15,11.41,7.22,17.5c1.3,3.83,5.15,6.36,9.23,5.24
						c3.74-1.03,6.55-5.37,5.24-9.23c-8.3-24.39-22.04-47.3-41.75-64.16c-9.73-8.32-20.63-15.39-32.3-20.66
						c-12.73-5.75-26.15-8.78-39.74-11.76c-7.16-1.57-14.35-3.04-21.54-4.46c-2.23-0.44-4.47-0.87-6.66-1.47
						c-0.88-0.24-1.73-0.54-2.6-0.82c-1.62-0.52,1.35,0.86-0.02-0.01c-0.38-0.24-0.82-0.45-1.22-0.66
						c-0.13-0.08-0.25-0.16-0.38-0.24c-0.65-0.45-0.5-0.32,0.45,0.39c-0.13-0.03-0.61-0.53-0.65-0.58
						c-0.29-0.32-0.59-0.65-0.89-0.97c0.21,0.22,0.81,1.45,0.38,0.42c-0.28-0.65-1.21-2.58-0.57-0.83c-0.4-1.08-0.75-2.17-1.02-3.29
						c-1.46-6.01-1.58-12.4-1.71-18.73c-0.07-3.25-0.09-6.5-0.13-9.75c-0.02-1.6,0.07-3.28-0.09-4.87
						c-0.32-3.15,0.03,1.63-0.59,1.22c-0.14-0.09,1.48-1.95,0.08-0.31c0.68-0.79,1.41-1.5,2.19-2.18c-1.3,1.14,0.08,0.03,0.35-0.17
						c1.24-0.93-0.59,0.29-0.53,0.17c0.22-0.49,4.07-0.78,4.7-0.9c1.93-0.35,3.85-0.71,5.77-1.08c5.15-1,10.34-2.11,15.42-3.48
						c3.16-0.85,6.09-2.23,8.32-4.68c2.95-3.26,5.05-7.44,7.34-11.15c3.36-5.45,6.6-10.98,9.68-16.58
						c6.44-11.71,12.18-23.77,17.25-36.14c10.19-24.83,17.01-50.93,19.93-77.62c1.52-13.92,2.15-28.07,0.67-42.02
						c-1.53-14.34-2.96-28.8-6.23-42.88c-5.81-25.06-16.78-49.64-31.23-70.91c-13.91-20.48-31.75-39.06-53.02-51.95
						c-22.16-13.43-50.33-21.25-75.73-13.04c-6.26,2.02-12,5.02-17.71,8.24c2.52,0,5.05,0,7.57,0c-5.51-3.44-10.42-7.37-16.95-8.71
						c-7.23-1.48-14.37-0.74-21.55,0.6c-12.58,2.36-24.38,6.49-35.81,12.27c-22.15,11.21-42.71,26.5-59.2,45.1
						c-16.91,19.08-30.21,41.9-38.67,65.95c-4.57,12.99-6.37,26.35-8.03,39.96c-0.82,6.7-1.62,13.46-1.72,20.21
						c-0.1,6.75,0.48,13.49,0.75,20.23c0.55,13.77,3.48,27.14,6.56,40.54c2.84,12.35,6.48,24.48,10.83,36.38
						c8.7,23.78,19.96,46.56,32.92,68.28c3.36,5.63,6.58,12.91,12.9,15.68c5.95,2.61,13.01,3.38,19.33,4.79
						c2.4,0.54,4.82,0.88,7.24,1.37c0.74,0.15,1.48,0.31,2.21,0.55c-1.05-0.34-0.07-0.05,0.18,0.1c1.71,1.02-0.7-0.8,0.72,0.62
						c1.05,1.05-0.23-0.75,0.55,0.61c0.22,0.39,0.46,0.77,0.66,1.17c-0.72-1.43,0.11,0.57,0.18,0.77c0.08,0.23,0.28,1.45,0.1,0.11
						c0.1,0.74,0.1,1.5,0.09,2.25c-0.06,3.07-0.58,6.12-0.63,9.2c-0.05,3.22,0.1,6.44,0.18,9.66c0.02,0.78-0.33,3.45,0.04,3.97
						c-0.06-0.08,0.41-2.19,0.11-1.02c-0.11,0.44-0.18,0.9-0.27,1.35c-0.65,3.09-1.34,6.21-2.26,9.23
						c-0.11,0.36-0.64,1.17-0.01,0.03c-0.26,0.47-0.52,0.92-0.79,1.38c-0.57,0.96,1.2-1.09-0.15,0.2c-0.29,0.28-0.59,0.58-0.88,0.87
						c-1.22,1.25,1.12-0.45-0.49,0.33c-0.37,0.18-0.77,0.43-1.13,0.63c-1.64,0.92,1.21-0.19-0.71,0.26
						c-0.7,0.16-1.39,0.39-2.09,0.55c-6.47,1.46-13,2.68-19.49,4.05c-12.65,2.67-25.52,5.22-37.7,9.63
						c-11.18,4.05-21.86,9.42-31.59,16.25c-20.41,14.33-36.72,34.11-46.62,57.02c-2.58,5.97-4.84,12.05-6.8,18.25
						c-1.22,3.86,1.43,8.18,5.24,9.23C325.89,618.63,329.86,616.16,331.08,612.28L331.08,612.28z"/>
					<path class="st3" d="M484.9,198.43c-5.73,4.28-10.84,9.41-15.74,14.61c-5.07,5.38-9.78,11.08-14.23,17
						c-8.82,11.75-16.13,24.56-21.31,38.32c-5.21,13.86-7.93,28.53-9.11,43.25c-1.29,16.12,0.15,32.1,2.75,48.02
						c4.72,28.88,13.05,57.29,26.86,83.19c6.8,12.76,15.03,24.78,24.77,35.49c9.37,10.31,20.24,19.73,32.46,26.51
						c12.31,6.83,26.02,10.88,40.1,11.55c15.11,0.72,29.98-3.53,43.32-10.4c12.54-6.46,23.75-15.55,33.11-26.07
						c9.52-10.7,17.99-22.67,25.03-35.14c7.29-12.91,12.56-26.6,16.73-40.8c4.38-14.95,8.25-30.14,10.97-45.48
						c2.85-16.06,4.28-32.3,4.16-48.61c-0.03-4.02-0.13-8.05-0.28-12.07c-0.15-4.11,0.03-8.53-1.39-12.45
						c-2.75-7.58-8.02-14.02-14.81-18.33c-6.14-3.9-13.41-6.21-20.34-8.24c-7.38-2.16-14.9-3.78-22.46-5.18
						c-15.19-2.8-30.49-4.97-45.64-8.01c-14.58-2.93-29.23-6.41-43.1-11.86c-0.68-0.27-1.35-0.54-2.02-0.81
						c-1.53-0.62,1.23,0.54,0.23,0.1c-0.37-0.16-0.74-0.32-1.11-0.48c-1.46-0.64-2.92-1.31-4.36-2.01c-2.86-1.39-5.66-2.9-8.38-4.54
						c-2.71-1.63-5.35-3.4-7.89-5.29c-0.13-0.1-0.25-0.19-0.38-0.29c-0.63-0.48-0.51-0.38,0.38,0.3c0-0.06-0.77-0.61-0.75-0.59
						c-0.62-0.5-1.24-1-1.85-1.52c-1.23-1.03-2.42-2.1-3.59-3.2c-2.25-2.12-4.39-4.37-6.4-6.72c-0.31-0.37-2.11-2.43-0.76-0.85
						c-0.57-0.66-1.06-1.43-1.56-2.14c-1.07-1.52-2.11-3.07-3.19-4.58c-1.16-1.63-2.5-2.9-4.48-3.45
						C488.89,197.18,486.49,197.4,484.9,198.43c-3.17,2.04-5.12,6.84-2.69,10.26c4.19,5.89,8.33,11.63,13.56,16.66
						c4.81,4.63,10.16,8.77,15.79,12.34c11.41,7.25,24.23,12.08,37.16,15.84c14.64,4.26,29.64,7.15,44.65,9.78
						c14.76,2.58,29.67,4.54,44.22,8.2c3.64,0.92,7.25,1.94,10.82,3.11c1.59,0.52,3.17,1.06,4.74,1.65
						c0.75,0.28,1.49,0.57,2.22,0.86c1.26,0.5-0.43-0.13-0.48-0.2c0.15,0.26,1.21,0.54,1.51,0.69c1.35,0.64,2.67,1.33,3.94,2.12
						c0.6,0.37,1.18,0.75,1.76,1.16c0.46,0.33,1.12,1.08-0.21-0.19c0.33,0.32,0.73,0.6,1.08,0.9c0.28,0.25,3.1,2.9,2.94,3.08
						c-0.19-0.25-0.39-0.5-0.58-0.75c0.2,0.27,0.4,0.54,0.59,0.82c0.2,0.28,0.39,0.56,0.58,0.85c0.53,0.8,1.04,1.62,1.5,2.47
						c0.21,0.38,0.4,0.78,0.61,1.17c0.42,0.78,0.41,0.12-0.13-0.37c0.44,0.39,0.59,1.86,0.75,2.4c0.43,1.42-0.17-0.58-0.04-0.56
						c0.07,0.01,0.07,1.23,0.08,1.38c0.05,1.1,0.1,2.21,0.15,3.31c0.16,3.92,0.29,7.84,0.35,11.76c0.12,7.82-0.02,15.65-0.6,23.46
						c-0.29,3.84-0.66,7.67-1.12,11.5c-0.12,0.98-0.22,1.97-0.37,2.94c0.04-0.24,0.23-1.64,0.03-0.23
						c-0.06,0.39-0.11,0.78-0.17,1.18c-0.3,2.06-0.62,4.11-0.96,6.16c-1.27,7.56-2.91,15.06-4.67,22.52
						c-3.41,14.42-7.1,29.04-12.47,42.87c-0.28,0.73-0.57,1.46-0.87,2.19c-0.16,0.4-0.33,0.81-0.5,1.21
						c-0.43,1.05,0.74-1.71,0.04-0.1c-0.69,1.6-1.4,3.19-2.14,4.77c-1.44,3.07-2.97,6.09-4.59,9.07
						c-3.28,6.04-6.92,11.89-10.83,17.54c-1.89,2.74-3.85,5.43-5.86,8.07c-0.27,0.35-0.53,0.7-0.8,1.05
						c-0.68,0.9,1.13-1.44,0.04-0.06c-0.49,0.62-0.98,1.25-1.47,1.87c-1.13,1.42-2.28,2.83-3.46,4.21
						c-4.31,5.04-9.01,9.77-14.09,14.04c-0.52,0.44-1.04,0.87-1.57,1.29c-0.4,0.32-0.8,0.63-1.19,0.95
						c-0.35,0.28-1.12,0.66,0.31-0.24c-1.42,0.9-2.73,2.03-4.12,2.99c-2.81,1.94-5.73,3.73-8.72,5.37
						c-1.41,0.77-2.84,1.51-4.29,2.22c-0.8,0.39-1.6,0.77-2.41,1.14c-0.32,0.15-0.65,0.29-0.97,0.44c-0.32,0.14-0.65,0.28-0.97,0.42
						c0.27-0.11,0.54-0.23,0.81-0.34c-3.01,1.61-6.69,2.54-9.97,3.44c-1.52,0.42-3.05,0.79-4.6,1.11c-0.86,0.18-1.72,0.34-2.58,0.49
						c-0.35,0.06-0.69,0.12-1.04,0.17c-0.35,0.05-0.69,0.11-1.04,0.16c0.32-0.04,0.63-0.08,0.95-0.13
						c-1.45,0.51-3.48,0.37-5.02,0.46c-1.88,0.1-3.76,0.13-5.63,0.08c-1.6-0.04-3.19-0.15-4.78-0.3c-0.84-0.08-1.67-0.18-2.51-0.27
						c-1.15-0.13,0.42-0.12,0.5,0.07c-0.06-0.13-1.24-0.19-1.48-0.22c-3.23-0.52-6.43-1.24-9.58-2.14c-1.4-0.4-2.79-0.84-4.16-1.32
						c-0.76-0.26-1.52-0.54-2.27-0.82c-0.31-0.12-2.07-1.03-2.25-0.89c0.2-0.16,1.59,0.69,0.24,0.1c-0.37-0.16-0.74-0.32-1.1-0.49
						c-0.73-0.33-1.46-0.67-2.19-1.03c-1.45-0.71-2.89-1.45-4.3-2.24c-2.71-1.5-5.35-3.14-7.9-4.9c-1.37-0.94-2.7-1.92-4.03-2.9
						c-0.33-0.24-1.06-0.89,0.33,0.26c-0.26-0.21-0.53-0.41-0.79-0.62c-0.79-0.63-1.57-1.26-2.35-1.91
						c-5.22-4.35-10.12-9.07-14.69-14.1c-2.21-2.43-4.34-4.94-6.39-7.51c-0.32-0.41-0.64-0.81-0.96-1.22
						c-0.27-0.34-0.68-1.13,0.22,0.29c-0.46-0.72-1.05-1.39-1.56-2.07c-1.03-1.39-2.04-2.8-3.02-4.22
						c-3.92-5.68-7.47-11.62-10.71-17.71c-1.62-3.03-3.16-6.11-4.63-9.21c-0.77-1.63-1.52-3.27-2.25-4.92
						c-0.29-0.66-0.58-1.32-0.86-1.98c-0.15-0.34-0.92-2.04-0.09-0.19c-0.22-0.49-0.42-1-0.62-1.49
						c-5.33-12.97-9.46-26.41-12.62-40.07c-1.6-6.9-2.97-13.86-4.13-20.85c-0.29-1.77-0.57-3.54-0.84-5.32
						c-0.14-0.97-0.38-1.98-0.42-2.96c0.08,1.64,0.08,0.62,0.03,0.22c-0.09-0.69-0.18-1.38-0.26-2.07
						c-0.47-3.84-0.84-7.69-1.09-11.56c-0.48-7.57-0.41-15.13,0.17-22.69c0.12-1.62,0.27-3.23,0.44-4.85
						c0.09-0.89,0.19-1.79,0.3-2.68c0.04-0.36,0.09-0.71,0.13-1.07c0.04-0.36,0.09-0.71,0.14-1.07c-0.14,1.02-0.17,1.24-0.09,0.66
						c0.51-3.44,1.07-6.88,1.78-10.28c1.42-6.8,3.31-13.51,5.73-20.02c0.55-1.49,1.04-3.1,1.77-4.51c-0.97,1.85,0.31-0.71,0.53-1.19
						c0.41-0.91,0.82-1.82,1.25-2.72c1.51-3.19,3.17-6.31,4.93-9.38c3.39-5.9,7.13-11.59,11.2-17.04c0.52-0.69,1.02-1.4,1.57-2.07
						c-0.12,0.15-1.03,1.32-0.22,0.29c0.21-0.27,0.43-0.54,0.64-0.82c1.13-1.42,2.28-2.83,3.45-4.22c2.18-2.58,4.43-5.1,6.74-7.56
						c2.27-2.4,4.59-4.75,6.98-7.04c1.13-1.09,2.28-2.16,3.44-3.23c0.64-0.59,1.33-1.15,1.95-1.76c0.38-0.37,1.05-0.57-0.73,0.54
						c0.37-0.23,0.71-0.52,1.06-0.78c1.62-1.21,2.89-2.45,3.45-4.48c0.49-1.8,0.27-4.19-0.76-5.78
						C493.16,198.02,488.26,195.92,484.9,198.43z"/>
					<path class="st3" d="M699.09,516.71c-18.2,10.05-35.51,21.63-53.67,31.75c-4.98,2.78-10.04,5.42-15.19,7.89
						c-2.6,1.25-5.21,2.45-7.85,3.6c-0.56,0.24-1.12,0.49-1.68,0.73c-0.32,0.14-0.64,0.28-0.96,0.41c1.68-0.66,0.72-0.3,0.35-0.15
						c-1.37,0.56-2.74,1.12-4.11,1.66c-10.6,4.17-21.53,7.52-32.69,9.83c-2.75,0.57-5.51,1.08-8.28,1.52
						c-0.7,0.11-1.39,0.22-2.09,0.32c-0.46,0.07-2.78,0.52-0.63,0.1c-1.46,0.29-3.01,0.38-4.49,0.53
						c-6.2,0.66-12.44,0.97-18.67,0.88c-3.09-0.04-6.18-0.18-9.26-0.42c-1.54-0.12-3.08-0.26-4.61-0.43
						c-0.77-0.08-1.53-0.18-2.3-0.27c-1.41-0.17,0.04,0.02,0.27,0.04c-0.48-0.05-0.96-0.14-1.44-0.21
						c-5.99-0.89-11.93-2.16-17.78-3.68c-5.85-1.52-11.63-3.32-17.32-5.36c-2.76-0.99-5.5-2.04-8.23-3.14
						c-0.68-0.28-1.36-0.55-2.04-0.84c-0.3-0.13-0.71-0.37-1.02-0.42c0.2,0.04,1.54,0.66,0.27,0.11c-1.44-0.62-2.87-1.25-4.3-1.89
						c-10.65-4.8-21.05-10.22-31.07-16.24c-4.97-2.99-9.85-6.13-14.61-9.46c-2.42-1.69-4.8-3.42-7.15-5.2
						c-0.49-0.37-0.97-0.8-1.49-1.14c1.59,1.04-0.19-0.16-0.6-0.48c-0.92-0.72-1.14-0.94-1.86-1.37c-4.48-2.7-9.05-5.27-13.58-7.91
						c-0.43-0.25-0.87-0.5-1.3-0.76c-3.39-1.98-8.37-0.89-10.26,2.69c-1.9,3.59-0.93,8.15,2.69,10.26c4.23,2.46,8.47,4.93,12.7,7.39
						c0.76,0.44,1.5,0.95,2.29,1.33c0.87,0.43-1.98-1.58-0.23-0.21c1.56,1.22,3.13,2.43,4.71,3.62c4.71,3.54,9.56,6.89,14.52,10.08
						c9.94,6.38,20.32,12.06,30.95,17.19c11.31,5.46,22.98,10.27,35,13.95c12.29,3.76,24.96,6.34,37.79,7.33
						c12.91,1,25.83,0.13,38.61-1.86c23.24-3.63,45.54-11.94,66.38-22.7c10.97-5.67,21.57-12.05,32.13-18.45
						c8.98-5.44,17.83-11.13,27.02-16.21c0.89-0.49,1.77-0.98,2.66-1.47c3.44-1.9,4.85-6.91,2.69-10.26
						C707.11,515.92,702.77,514.68,699.09,516.71L699.09,516.71z"/>
				</g>
			</g>
		</g>
		<g>
			<g>
				<g>
					<path class="st3" d="M551.56,617.78c62.74,0,125.47-0.03,188.21-0.01c15.74,0,31.47,0.01,47.21,0.02
						c7.76,0,15.53,0.01,23.29,0.02c7.15,0.01,14.45-0.41,21.59,0.23c4.15,0.37,9.58,2.03,13.23,4.04c2.17,1.2,3.67,2.21,4.97,3.35
						c0.78,0.68,1.53,1.4,2.24,2.15c0.44,0.47,0.87,0.95,1.29,1.44c0.32,0.4,0.33,0.39,0.03-0.02c0.23,0.31,0.46,0.62,0.68,0.93
						c0.65,0.95,1.28,1.92,1.83,2.94c0.51,0.93,1.03,2.02,1.05,2.07c0.44,1.09,0.8,2.22,1.11,3.36c0.14,0.51,0.26,1.03,0.38,1.55
						c-0.01-0.03,0.44,2.34,0.27,1.2c0.97,6.82-0.43,13.83-1.73,20.51c-5.9,30.3-10.56,60.88-15.77,91.31
						c-5.3,30.94-10.6,61.88-15.9,92.82c-2.61,15.26-5.23,30.53-7.84,45.79c-1.34,7.84-2.68,15.68-4.02,23.52
						c-0.5,2.9-0.95,5.81-1.72,8.65c-0.72,2.63-1.29,4.19-2.16,5.95c-0.84,1.7-2.43,4.31-3.13,5.23c-0.74,0.97-2.88,3.18-4.38,4.46
						c-1.73,1.49,0.63-0.41-0.47,0.38c-0.49,0.35-0.99,0.7-1.5,1.02c-0.82,0.53-1.67,1.02-2.53,1.48c-0.55,0.29-1.1,0.56-1.67,0.82
						c-1.27,0.6,1.62-0.58-0.64,0.27c-1.21,0.46-2.44,0.86-3.69,1.21c-5.47,1.51-9.75,1.45-15.83,1.48
						c-7.76,0.03-15.53,0.05-23.29,0.06c-62.67,0.09-125.34-0.02-188.01-0.02c-62.6,0-125.2,0-187.8,0c-15.49,0-30.99,0-46.48,0
						c-2.83,0-5.66,0-8.49-0.16c-2.72-0.15-4.92-0.4-6.36-0.65c-2.01-0.35-4-0.8-5.95-1.4c-0.81-0.25-1.6-0.57-2.4-0.82
						c-1.32-0.41-0.2-0.06,0.08,0.06c-0.55-0.24-1.1-0.5-1.63-0.77c-1.56-0.79-3.04-1.71-4.46-2.75c1.52,1.11-0.8-0.75-1.1-1.04
						c-0.7-0.66-1.33-1.38-1.98-2.09c-0.26-0.29-0.5-0.6-0.74-0.9c1.03,1.27,0.16,0.21-0.06-0.14c-0.5-0.77-1.01-1.51-1.47-2.3
						c-0.48-0.82-0.93-1.65-1.35-2.5c-0.24-0.49-0.46-0.98-0.7-1.47c-0.69-1.44,0.32,0.99-0.29-0.69c-4.06-11.2-5.38-23.1-7.32-34.8
						c-10.19-61.32-21.04-122.53-31.61-183.78c-2.65-15.36-5.38-30.71-8.02-46.08c-1.14-6.64-2.93-13.27-2.7-19.32
						c0.16-4.21,1.8-8.89,4.41-12.96c5.33-8.33,14.36-13.03,24.1-13.5c15.37-0.74,30.87-0.13,46.26-0.13
						c62.59-0.01,125.19-0.01,187.78,0C521.42,617.78,536.49,617.78,551.56,617.78c9.65,0,9.67-15,0-15c-64.48,0-128.96,0-193.43,0
						c-16.33,0-32.66,0-48.99,0c-7.83,0-15.65-0.04-23.47-0.09c-7.37-0.04-14.98-0.25-22.23,1.21
						c-12.09,2.43-22.96,10.79-29.08,21.4c-3.08,5.35-4.91,11.25-5.45,17.38c-0.62,6.9,1.24,13.92,2.39,20.69
						c10.78,63.27,22.08,126.46,32.88,189.73c2.7,15.83,5.37,31.67,8,47.51c1.99,12.01,3.4,24.14,8.34,35.38
						c3.43,7.81,9.16,14.68,16.73,18.77c8.79,4.75,18.98,6.03,28.83,6.18c31.98,0.48,64,0.02,95.98,0.02c32.24,0,64.49,0,96.73,0
						c64.53,0,129.05-0.01,193.58,0.03c15.95,0.01,31.9,0.01,47.84-0.02c13.16-0.03,27.44,1.42,39.96-3.54
						c9.85-3.91,18.09-11,22.74-20.62c2.68-5.55,4.09-11.19,5.12-17.23c1.38-8.04,2.75-16.09,4.13-24.13
						c10.88-63.53,21.78-127.06,32.64-190.6c2.65-15.51,5.74-30.99,8.18-46.54c2.02-12.89,1.65-26.01-6.4-36.9
						c-6.82-9.22-17.05-15.39-28.31-17.51c-7.18-1.35-14.42-1.09-21.69-1.1c-8.18-0.01-16.37-0.01-24.55-0.02
						c-64.41-0.04-128.83-0.02-193.24-0.02c-15.74,0-31.47,0-47.21,0C541.91,602.78,541.89,617.78,551.56,617.78z"/>
					<path class="st3" d="M551.85,806.32c5.82-0.11,11.86-1.8,16.6-5.27c5.11-3.74,8.78-8.49,10.98-14.45
						c4.06-10.98,0.25-24.42-8.83-31.76c-5.12-4.14-10.93-6.6-17.54-7.05c-5.79-0.4-11.94,1.25-16.84,4.34
						c-10.71,6.74-16.09,19.48-13.26,31.84C525.98,797.19,538.49,806.37,551.85,806.32c3.92-0.01,7.68-3.44,7.5-7.5
						c-0.18-4.05-3.3-7.52-7.5-7.5c-1.05,0-2.09-0.05-3.13-0.18c0.66,0.09,1.33,0.18,1.99,0.27c-2.01-0.27-3.94-0.79-5.81-1.56
						c0.6,0.25,1.19,0.5,1.79,0.76c-1.25-0.54-2.46-1.17-3.59-1.93c-0.1-0.07-0.95-0.58-0.93-0.65c-0.02,0.06,1.73,1.4,0.5,0.37
						c-0.49-0.41-0.97-0.85-1.43-1.31c-0.46-0.46-0.89-0.93-1.3-1.43c-0.41-0.49-0.84-1.41,0.38,0.5c-0.17-0.27-0.38-0.52-0.56-0.79
						c-0.79-1.17-1.44-2.42-1.99-3.72c0.25,0.6,0.5,1.19,0.76,1.79c-0.71-1.75-1.2-3.57-1.46-5.45c0.09,0.66,0.18,1.33,0.27,1.99
						c-0.24-1.96-0.24-3.91,0.02-5.87c-0.09,0.66-0.18,1.33-0.27,1.99c0.27-1.8,0.75-3.54,1.43-5.23c-0.25,0.6-0.5,1.19-0.76,1.79
						c0.55-1.29,1.19-2.52,1.97-3.69c0.12-0.18,0.47-0.91,0.67-0.96c-0.27,0.07-1.31,1.62-0.35,0.47c0.43-0.51,0.88-1,1.35-1.47
						c0.47-0.47,0.96-0.92,1.48-1.35c0.49-0.41,1.42-0.85-0.47,0.35c0.28-0.18,0.54-0.39,0.82-0.58c1.21-0.81,2.49-1.49,3.83-2.06
						c-0.6,0.25-1.19,0.5-1.79,0.76c1.8-0.73,3.66-1.23,5.59-1.49c-0.66,0.09-1.33,0.18-1.99,0.27c1.86-0.22,3.72-0.22,5.58,0.02
						c-0.66-0.09-1.33-0.18-1.99-0.27c1.92,0.27,3.77,0.79,5.56,1.53c-0.6-0.25-1.19-0.5-1.79-0.76c1.23,0.53,2.42,1.16,3.54,1.9
						c0.28,0.18,0.55,0.38,0.82,0.57c1.08,0.74-1.4-1.16-0.46-0.36c0.55,0.47,1.09,0.94,1.61,1.45c0.47,0.47,0.91,0.97,1.35,1.47
						c1.01,1.12-0.8-1.11-0.34-0.47c0.19,0.27,0.39,0.54,0.58,0.81c0.78,1.16,1.45,2.38,2.01,3.66c-0.25-0.6-0.5-1.19-0.76-1.79
						c0.75,1.78,1.27,3.62,1.54,5.53c-0.09-0.66-0.18-1.33-0.27-1.99c0.25,1.95,0.24,3.91-0.01,5.86c0.09-0.66,0.18-1.33,0.27-1.99
						c-0.27,1.88-0.77,3.69-1.5,5.44c0.25-0.6,0.5-1.19,0.76-1.79c-0.54,1.25-1.18,2.45-1.93,3.58c-0.07,0.1-0.57,0.94-0.65,0.93
						c0.08,0.02,1.39-1.72,0.37-0.5c-0.42,0.49-0.86,0.97-1.32,1.43c-0.46,0.46-0.95,0.87-1.44,1.3c-0.98,0.87,1.57-1.12,0.49-0.38
						c-0.27,0.19-0.53,0.38-0.8,0.56c-1.18,0.79-2.44,1.45-3.75,2c0.6-0.25,1.19-0.5,1.79-0.76c-1.77,0.72-3.6,1.21-5.49,1.48
						c0.66-0.09,1.33-0.18,1.99-0.27c-0.92,0.12-1.84,0.18-2.77,0.2c-3.92,0.07-7.68,3.4-7.5,7.5
						C544.53,802.82,547.64,806.4,551.85,806.32z"/>
				</g>
			</g>
			<g>
				<g>
					<path class="st3" d="M289.02,994c4.7,0,9.4,0,14.1,0c12.68,0,25.36,0,38.04,0c18.87,0,37.74,0,56.61,0c22.87,0,45.73,0,68.6,0
						c25.22,0,50.43,0,75.65,0c25.28,0,50.56,0,75.84,0c23.73,0,47.47,0,71.2,0c19.92,0,39.84,0,59.76,0c14.42,0,28.85,0,43.27,0
						c6.79,0,13.58,0.1,20.37,0c0.3,0,0.59,0,0.89,0c4.05,0,7.5-3.45,7.5-7.5c0-4.07-3.43-7.5-7.5-7.5c-4.7,0-9.4,0-14.1,0
						c-12.68,0-25.36,0-38.04,0c-18.87,0-37.74,0-56.61,0c-22.87,0-45.73,0-68.6,0c-25.22,0-50.43,0-75.65,0
						c-25.28,0-50.56,0-75.84,0c-23.73,0-47.47,0-71.2,0c-19.92,0-39.84,0-59.76,0c-14.42,0-28.85,0-43.27,0
						c-6.79,0-13.58-0.1-20.37,0c-0.3,0-0.59,0-0.89,0c-4.05,0-7.5,3.45-7.5,7.5C281.52,990.57,284.95,994,289.02,994L289.02,994z"
						/>
				</g>
			</g>
		</g>
	</g>
</g>
</svg>
