<?xml version="1.0" encoding="utf-8"?>
<!-- Generator: Adobe Illustrator 24.2.3, SVG Export Plug-In . SVG Version: 6.00 Build 0)  -->
<svg version="1.1" id="Capa_1" xmlns="http://www.w3.org/2000/svg" xmlns:xlink="http://www.w3.org/1999/xlink" x="0px" y="0px"
	 viewBox="0 0 1080 1080" style="enable-background:new 0 0 1080 1080;" xml:space="preserve">
<style type="text/css">
	.st0{opacity:0.4;}
	.st1{fill:#A8A9AD;}
	.st2{fill:#29AAE3;}
	.st3{fill:#093548;}
	.st4{fill:none;stroke:#093548;stroke-width:8;stroke-linecap:round;stroke-miterlimit:10;}
	.st5{fill:none;stroke:#093548;stroke-width:8;stroke-linecap:round;stroke-miterlimit:10;stroke-dasharray:35.2576,35.2576;}
	.st6{opacity:0.2;}
	.st7{fill:#9291A1;}
	.st8{fill:#FFFFFF;}
	.st9{fill:url(#SVGID_1_);}
	.st10{fill:url(#SVGID_2_);}
	.st11{fill:url(#SVGID_3_);}
	.st12{fill:url(#SVGID_4_);}
	.st13{fill:url(#SVGID_5_);}
	.st14{fill:url(#SVGID_6_);}
	.st15{fill:url(#SVGID_7_);}
	.st16{fill:url(#SVGID_8_);}
	.st17{fill:url(#SVGID_9_);}
	.st18{fill:url(#SVGID_10_);}
	.st19{fill:url(#SVGID_11_);}
</style>
<g>
	<g class="st6">
		<g>
			<path class="st2" d="M385.34,297.9c-6.03-28.64-8.45-57.49-4.57-86.64c3.36-25.18,11.25-48.63,26.82-68.84
				c21.93-28.47,51.96-41.92,85.83-48.05c7.56-1.37,15.21-2.26,22.82-3.37c9.67,0,19.33,0,29,0c9.14,1.46,18.33,2.63,27.4,4.46
				c14.92,3.01,29.96,6.68,41.89,16.76c7.23,6.11,15.12,9.71,23.53,13.25c27.65,11.65,43.35,33.12,47.94,63.24
				c4.57,29.98-1.2,58.88-8.79,87.59c-0.85,3.23-1.63,6.49-2.74,9.63l-3.12,8.4c0,0-13.75,36.1-20.08,19.4
				c-1-14.49-4.44-28.29-12.2-40.78c-7.66-12.35-17.6-22.51-28.14-32.32c-2.57,2.15-4.85,4.3-7.37,6.09
				c-2.53,1.81-5.18,3.55-7.99,4.83c-25.76,11.74-52.54,15.21-80.16,9.11c-19.36-4.28-38.5-9.34-58.63-6.6
				c-19.1,2.6-34.5,11.03-43.58,28.95c-3.2,6.31-4.54,13.59-7.1,20.27c-1.34,3.49-2.75,8.08-5.49,9.6c0,0-10.69,9.58-15.08-15.1"/>
		</g>
	</g>
	<g class="st0">
		<g>
			<path class="st1" d="M518.43,606.99c91.9,0,183.8-0.06,275.7,0.04c22.12,0.02,38.87,14.09,39.41,34.02
				c0.25,9.15-2.27,18.41-3.83,27.58c-14.16,82.93-28.4,165.85-42.58,248.77c-3.55,20.77-17.69,32.64-39.91,32.73
				c-40.29,0.16-80.58,0.05-120.87,0.05c-110.55,0-221.09,0-331.64,0c-30.01,0-41.21-10.82-46.1-40.63
				c-11.14-67.93-23.19-135.7-34.89-203.53c-3.39-19.66-6.93-39.3-10.19-58.98c-3.14-18.97,13.02-38.45,33.21-39.77
				c9.29-0.61,18.64-0.26,27.96-0.26C349.28,606.99,433.85,606.99,518.43,606.99z"/>
		</g>
	</g>
	<g>
		<g>
			<g>
				<g>
					<g>
						<path class="st3" d="M479.6,600.4c-8.37-9.11-16.53-18.43-24.7-27.73c-9.34-10.63-18.64-21.29-28.01-31.91
							c-4.2-4.76-8.41-9.52-12.68-14.23c-2.64-2.92-7.96-2.88-10.61,0c-2.86,3.12-2.82,7.5,0,10.61
							c8.31,9.17,16.45,18.5,24.61,27.81c9.33,10.64,18.64,21.3,28.03,31.88c4.22,4.75,8.44,9.49,12.74,14.17
							c2.66,2.9,7.95,2.9,10.61,0C482.44,607.91,482.44,603.49,479.6,600.4L479.6,600.4z"/>
						<path class="st3" d="M512.39,615.63c3.92,0,7.68-3.45,7.5-7.5c-0.18-4.06-3.3-7.5-7.5-7.5c-3.92,0-7.68,3.45-7.5,7.5
							C505.08,612.19,508.19,615.63,512.39,615.63L512.39,615.63z"/>
						<path class="st3" d="M578.43,615.06c3.92,0,7.68-3.45,7.5-7.5c-0.18-4.06-3.3-7.5-7.5-7.5c-3.92,0-7.68,3.45-7.5,7.5
							C571.12,611.62,574.23,615.06,578.43,615.06L578.43,615.06z"/>
						<path class="st3" d="M677.63,526.54c-17.66,19.05-35.15,38.24-52.67,57.41c-5.01,5.48-10.02,10.97-15.04,16.45
							c-2.65,2.9-3.08,7.78,0,10.61c2.88,2.65,7.78,3.09,10.61,0c18.22-19.92,36.4-39.87,54.68-59.74
							c4.34-4.71,8.68-9.42,13.03-14.12c2.67-2.88,3.06-7.8,0-10.61C685.34,523.87,680.48,523.46,677.63,526.54L677.63,526.54z"/>
						<path class="st3" d="M249.67,619.32c0.8-1.31,1.61-2.61,2.49-3.87c0.28-0.4,0.58-0.8,0.87-1.2c-0.9,1.23,0.51-0.64,0.56-0.71
							c1.8-2.28,3.81-4.96,5.4-7.02c3.5-4.56,7.36-8.87,11.4-12.96c8.16-8.26,16.68-15.02,26.47-21.14
							c20.06-12.53,42.24-20.2,65.68-24.13c11.7-1.96,24.14-2.95,36.1-5.79c11.96-2.84,23.78-7.32,33.99-14.25
							c5.53-3.76,10.22-8.4,15.42-12.56c5.65-4.52,9.29-10.5,13.04-16.6c1.85-3.01,3.67-6.05,5.53-9.06
							c1.81-2.92,3.86-5.74,4.94-9.05c0.99-3.05,0.86-6.33-0.42-9.26c-1.54-3.51-4.47-5.33-7.08-7.62
							c-4.48-3.92-8.37-9.09-12.13-13.7c-3.81-4.67-7.29-9.64-10.35-14.85c-6.62-11.3-9.71-23.14-11.56-36.09
							c-1.03-7.21-1.53-14.62-3.07-21.74c-1.45-6.74-6.9-10.78-10.88-15.82c-7.36-9.31-11.34-21.27-11.79-33.01
							c-0.22-5.62,0.51-11.01,3.2-16.11c1.85-3.52,3.85-6.14,3.81-10.34c-0.03-3.79-1.34-7.74-2.03-11.45
							c-2.67-14.35-4.3-28.88-4.57-43.48c-0.48-26.42,3.09-54.04,14.95-77.95c10.71-21.58,27.42-38.89,48.44-50.06
							c9.9-5.26,20.18-8.93,31.34-11.79c6.2-1.59,12.49-2.86,18.82-3.87c6.93-1.1,13.93-2.33,20.91-2.33c7.7,0,15.5-0.36,23.2,0
							c6.87,0.32,14.08,1.93,20.89,3.12c12.44,2.18,25.58,4.67,36.73,10.86c5.92,3.29,10.74,8.03,16.49,11.57
							c5.35,3.3,11.12,5.73,16.87,8.22c5.06,2.19,9.94,4.8,14.5,7.91c3.69,2.52,6.82,5.15,10.37,8.86
							c6.2,6.49,11.47,15.36,14.42,23.7c4.18,11.82,5.68,24.35,5.76,36.85c0.09,14.26-1.82,28.37-4.75,42.3
							c-1.5,7.15-3.25,14.24-5.1,21.31c-1.76,6.73-4.4,13.36-5.31,20.27c-0.96,7.32,0.6,13.94,2.78,20.88
							c1.82,5.8,2.48,11.24,1.98,17.36c-0.9,10.92-6.98,21.3-14.49,29.88c-4.36,4.98-7.91,10.68-9.1,17.29
							c-1.09,6.08-0.92,13.01-1.81,18.61c-1.8,11.23-5.24,21.99-10.25,31.66c-5.27,10.17-11.63,18.82-19.38,26.99
							c-1.88,1.99-3.82,3.92-5.81,5.8c-2.31,2.19-4.94,4.17-6.52,7.01c-3.83,6.88,1.23,14.14,4.68,20.02
							c13.52,23.05,33.88,40.27,59.46,48.4c11.85,3.77,24.83,5.17,36.53,6.82c11.51,1.62,22.86,4.5,33.73,8.59
							c20.09,7.55,38.88,20.13,54.35,35.4c7.85,7.75,14.92,16.11,21.15,24.82c2.35,3.29,6.54,4.87,10.26,2.69
							c3.25-1.9,5.06-6.95,2.69-10.26c-13.86-19.4-30.55-36.54-50.44-49.81c-19.5-13-41.9-21.79-65.04-25.49
							c-12.52-2-24.69-2.9-36.98-6.54c-11.69-3.46-22.8-9-32.14-17.02c-9.37-8.05-16.58-17.76-22.54-28.54
							c-0.1-0.17-2.34-4.27-2.29-4.29c0.31-0.17-0.12,2.77-0.34,2.53c0.06,0.06,6.11-5.73,6.67-6.28c4.25-4.21,8.24-8.69,11.92-13.4
							c15.27-19.55,24.37-42.48,26.19-67.27c0.43-5.83,0.39-9.67,3.56-14.49c1.61-2.45,3.77-4.51,5.61-6.81
							c2.22-2.77,4.33-5.63,6.19-8.65c6.71-10.95,10.41-24.11,9.01-36.98c-0.37-3.41-0.91-6.8-1.82-10.1
							c-0.94-3.41-2.38-6.69-2.94-10.21c-0.99-6.17,1.12-11.29,2.89-17.35c4.08-13.92,7.4-28.26,9.66-42.59
							c4.25-26.94,4.55-55.73-6.67-81.11c-4.29-9.7-10.65-18.64-18.46-25.83c-8.33-7.67-17.87-12.95-28.19-17.41
							c-6.07-2.63-12.16-5.52-17.49-9.5c-5.31-3.97-10.2-7.94-16.25-10.78c-12.51-5.88-26.22-8.72-39.79-10.93
							c-7.79-1.27-15.88-3.08-23.77-3.08c-7.54,0-15.08,0-22.62,0c-7.65,0-15.6,1.67-23.16,2.87c-6.32,1.01-12.61,2.28-18.82,3.87
							c-23.38,6-45.53,16.83-63.04,33.65c-41.92,40.28-47.64,102.75-39.41,157.32c0.54,3.6,1.15,7.19,1.82,10.76
							c0.35,1.89,0.72,3.77,1.1,5.66c0.15,0.73,0.4,1.53,0.47,2.26c-0.07-0.59-0.1-0.61-0.08-0.06c-0.04,0.98,0.11,0.55,0.44-1.29
							c0,0-2.52,4.26-2.67,4.58c-0.88,1.79-1.66,3.64-2.33,5.51c-1.22,3.39-1.84,6.94-2.22,10.51c-1.36,12.86,2.09,27.27,8.07,38.64
							c3.06,5.83,7.14,11.18,11.62,15.98c2.05,2.19,2.9,2.75,3.39,5.51c0.66,3.7,1.12,7.44,1.61,11.16c1,7.52,1.84,15.14,3.5,22.56
							c1.45,6.47,3.75,12.69,6.52,18.71c5.47,11.86,13.49,22.43,22.11,32.18c1.91,2.16,3.78,4.39,5.77,6.48
							c1.34,1.4,2.79,2.52,4.31,3.71c-0.1-0.08,0.96,0.63,0.75,0.5c1.27,0.85,0.23,0.4,0.13-0.38c-0.24-1.82-0.48,0.78,0.01-0.86
							c-0.11,0.38-0.56,0.98-0.02,0.22c-0.88,1.24-1.61,2.72-2.43,4.01c-1.99,3.15-3.9,6.35-5.84,9.53
							c-1.84,3.02-3.7,6.02-5.68,8.95c-1.82,2.7-4.04,4.54-6.65,6.65c-4.71,3.79-8.85,7.92-13.99,11.16
							c-10.12,6.36-21.21,9.89-33.02,12.29c-12.11,2.45-23.91,3.24-36.14,5.6c-12,2.31-23.8,5.69-35.15,10.21
							c-22.66,9.03-43.6,22.24-60.49,39.96c-4.11,4.31-7.91,8.89-11.52,13.62c-3.21,4.2-6.77,8.49-9.66,13.23
							C231.68,620.02,244.65,627.56,249.67,619.32L249.67,619.32z"/>
						<path class="st3" d="M682.38,295.32c-0.37,0.98-0.78,1.94-1.18,2.91c1.27-3.07,0.38-0.91,0.06-0.18
							c-0.24,0.55-0.49,1.11-0.74,1.66c-0.56,1.24-1.14,2.47-1.74,3.69c-1.29,2.6-2.67,5.17-4.27,7.59
							c-0.35,0.54-0.72,1.06-1.1,1.58c-0.94,1.31,1.09-1.34,0.45-0.58c-0.22,0.26-0.43,0.53-0.66,0.79
							c-0.36,0.41-0.73,0.8-1.12,1.17c-0.19,0.18-0.4,0.34-0.59,0.52c-0.63,0.58,2.02-1.34,0.73-0.6c-0.17,0.1-0.35,0.2-0.52,0.3
							c-0.99,0.6,2-0.65,1.15-0.48c-0.17,0.03-0.4,0.09-0.57,0.15c-0.04,0.02,2.52-0.19,1.25-0.23c-0.21-0.01,2.47,0.53,1.33,0.14
							c-0.63-0.22,2.17,1.05,1.2,0.49c-0.92-0.54,1.43,1.43,0.89,0.7c-0.21-0.28-1.04-1.22-0.02,0.09c1.04,1.35-0.12-0.31-0.35-0.77
							c-0.07-0.14-0.13-0.28-0.2-0.42c-0.45-0.92,0.5,1.39,0.54,1.73c0.15,1.38,0.04,0.23,0.01-0.12c-0.04-0.5-0.08-0.99-0.13-1.49
							c-0.32-3.46-0.77-6.92-1.35-10.35c-2.05-12.11-6.51-23.78-13.29-34.03c-7.73-11.68-17.47-21.77-27.68-31.29
							c-3.15-2.94-7.41-2.69-10.61,0c-1.11,0.93-2.2,1.89-3.3,2.83c-0.47,0.4-0.93,0.8-1.41,1.19c-0.27,0.22-0.54,0.43-0.81,0.66
							c-0.76,0.65,1.48-1.06,0.08-0.07c-2.19,1.56-4.4,3.09-6.79,4.34c-1.17,0.61-2.37,1.14-3.58,1.67
							c-0.33,0.14-0.65,0.28-0.98,0.43c-1.23,0.54,0.14-0.04,0.32-0.13c-0.7,0.36-1.48,0.61-2.21,0.9c-2.53,1-5.08,1.94-7.66,2.79
							c-5.16,1.71-10.41,3.11-15.74,4.15c-1.26,0.25-2.52,0.48-3.78,0.68c-0.67,0.11-1.35,0.22-2.02,0.32
							c-0.34,0.05-0.68,0.08-1.01,0.15c0.77-0.15,1.34-0.17,0.22-0.03c-2.62,0.33-5.25,0.57-7.89,0.72
							c-5.48,0.32-10.98,0.26-16.45-0.18c-1.21-0.1-2.42-0.21-3.63-0.34c-0.69-0.08-1.39-0.16-2.08-0.24
							c-0.53-0.06-1.23,0.09,0.43,0.06c-0.42,0.01-0.89-0.13-1.3-0.19c-2.72-0.41-5.42-0.9-8.1-1.49
							c-11.64-2.52-23.19-5.3-35.03-6.8c-19.34-2.45-41.3-0.6-57.66,11.05c-7.69,5.48-13.99,12.62-18.32,21.04
							c-2.72,5.28-4.35,10.96-6.09,16.62c-0.74,2.41-1.58,4.78-2.46,7.14c-0.19,0.52-0.39,1.04-0.59,1.55
							c-0.08,0.2-0.15,0.39-0.23,0.59c-0.44,1.14,0.23-0.55,0.27-0.63c-0.53,0.98-1.09,1.99-1.6,2.97c-0.36,0.7,0.6-0.95,0.62-0.79
							c0.01,0.09-0.4,0.41-0.48,0.51c-0.7,0.83,0.71-0.53,0.74-0.55c-0.42,0.39-2.04,1.53-1.8,1.34c-0.03,0.03-0.07,0.06-0.1,0.08
							c-0.66,0.57,2.06-1.48,1.21-0.94c-0.17,0.11-0.33,0.23-0.49,0.33c-0.19,0.12-0.38,0.22-0.58,0.33
							c-0.1,0.06-0.21,0.1-0.31,0.15c-0.91,0.49,2.18-0.81,1.26-0.53c-0.27,0.08-0.53,0.19-0.81,0.26c-0.15,0.04-0.31,0.06-0.46,0.1
							c-1.03,0.28,2.21-0.15,1.32-0.18c-0.32-0.01-0.65-0.01-0.97-0.01c-0.89,0,2.42,0.53,1.32,0.17c-0.17-0.06-0.37-0.12-0.55-0.15
							c-1.06-0.19,1.61,0.81,1.09,0.48c-0.15-0.1-0.33-0.17-0.49-0.26c-0.2-0.11-0.37-0.25-0.57-0.37
							c-0.65-0.39,1.63,1.38,1.09,0.84c-0.11-0.11-0.24-0.2-0.35-0.31c-0.34-0.33-1.51-1.75-0.54-0.49
							c0.95,1.23,0.23,0.29,0.03-0.01c-0.22-0.33-0.42-0.66-0.61-1c-0.37-0.65-0.66-1.33-0.99-2c1.11,2.28,0.36,0.85,0.13,0.21
							c-0.19-0.53-0.37-1.06-0.54-1.6c-0.71-2.26-1.22-4.58-1.64-6.91c-0.7-3.87-5.61-6.41-9.23-5.24
							c-4.15,1.34-5.99,5.08-5.24,9.23c1.35,7.45,3.98,17.14,11.38,20.86c4.51,2.27,9.9,1.98,14.12-0.83
							c0.72-0.48,1.41-1.03,2.07-1.59c0.21-0.18,0.43-0.35-0.59,0.48c-1.5,1.22-0.54,0.37-0.35,0.31c-0.13,0.04,1.32-0.97,1.78-1.38
							c1.14-1.02,2.08-2.31,2.88-3.61c1.44-2.36,2.35-5.04,3.31-7.62c0.92-2.46,1.78-4.93,2.54-7.44c0.8-2.62,1.56-5.26,2.45-7.85
							c0.22-0.64,0.45-1.28,0.7-1.92c0.11-0.28,0.32-0.66,0.37-0.95c-0.03,0.17-0.72,1.59-0.16,0.39c0.52-1.14,1.07-2.26,1.67-3.36
							c1.1-2.02,2.31-3.97,3.65-5.83c0.27-0.38,0.58-0.75,0.84-1.14c-1.27,1.9-0.33,0.43,0.07-0.05c0.71-0.86,1.45-1.7,2.21-2.51
							c1.41-1.49,2.92-2.9,4.51-4.2c0.2-0.16,0.4-0.32,0.59-0.48c0.71-0.57-1.35,1.01-0.61,0.47c0.41-0.3,0.81-0.6,1.23-0.9
							c0.88-0.62,1.78-1.21,2.69-1.77c1.73-1.06,3.53-2.02,5.38-2.87c0.22-0.1,1.31-0.41,1.4-0.63c-0.02,0.04-1.84,0.75-0.72,0.31
							c0.18-0.07,0.36-0.14,0.54-0.22c1.03-0.41,2.07-0.78,3.11-1.13c4.17-1.39,8.45-2.27,12.78-2.95c0.78-0.12-0.89,0.11-0.82,0.11
							c0.36-0.02,0.74-0.09,1.11-0.14c0.73-0.08,1.47-0.16,2.21-0.22c1.55-0.14,3.11-0.23,4.66-0.29c2.9-0.1,5.8-0.06,8.7,0.09
							c2.97,0.16,5.93,0.45,8.89,0.81c0.42,0.05,1.44,0.08-0.39-0.06c0.35,0.03,0.72,0.1,1.07,0.15c0.62,0.09,1.25,0.18,1.87,0.28
							c1.52,0.24,3.03,0.49,4.54,0.77c5.71,1.03,11.37,2.3,17.03,3.57c11.67,2.62,23.37,4.68,35.37,4.66
							c11.49-0.02,23.07-1.65,34.16-4.69c5.48-1.5,10.85-3.36,16.1-5.52c5.7-2.35,11.01-4.88,15.93-8.65
							c2.64-2.02,5.11-4.2,7.64-6.34c-3.54,0-7.07,0-10.61,0c4.63,4.31,9.18,8.72,13.47,13.37c2.08,2.25,4.1,4.56,6.05,6.94
							c0.47,0.58,0.94,1.16,1.4,1.75c0.81,1.01-0.15-0.19-0.25-0.34c0.19,0.27,0.41,0.53,0.61,0.79c1.01,1.33,1.98,2.69,2.93,4.06
							c1.81,2.63,3.52,5.33,5.03,8.14c0.71,1.31,1.38,2.65,2.01,4c0.28,0.6,0.54,1.2,0.81,1.8c0.68,1.53-0.48-1.22-0.09-0.2
							c0.18,0.46,0.37,0.91,0.54,1.37c2.21,5.72,3.74,11.69,4.72,17.74c0.12,0.73,0.22,1.46,0.33,2.2c0.16,1.11-0.23-1.96-0.04-0.28
							c0.04,0.33,0.08,0.66,0.12,0.99c0.19,1.65,0.32,3.31,0.46,4.96c0.26,3,1.35,5.57,3.16,7.92c2.8,3.63,7.33,5.41,11.82,3.98
							c3.89-1.24,6.55-4.23,8.93-7.36c1.82-2.38,3.33-4.98,4.72-7.62c2.34-4.46,4.41-9.11,6.2-13.82c1.4-3.67-1.55-8.39-5.24-9.23
							C687.32,289.11,683.88,291.39,682.38,295.32L682.38,295.32z"/>
						<path class="st3" d="M621.37,470.45c-3.32,2.76-6.65,5.52-9.97,8.28c-1.54,1.28-3.09,2.55-4.63,3.84
							c-0.24,0.2-0.75,0.61,0.3-0.23c1.37-1.09-0.7,0.45-1.06,0.7c-0.67,0.47-1.34,0.93-2.02,1.38c-2.31,1.56-4.66,3.06-7.05,4.5
							c-5.24,3.14-10.67,5.94-16.29,8.32c0.6-0.25,1.19-0.5,1.79-0.76c-8.36,3.51-17.09,6.04-26.08,7.28
							c0.66-0.09,1.33-0.18,1.99-0.27c-8.11,1.08-16.3,1.1-24.41,0.03c0.66,0.09,1.33,0.18,1.99,0.27
							c-8.94-1.21-17.64-3.71-25.96-7.19c0.6,0.25,1.19,0.5,1.79,0.76c-5.01-2.12-9.86-4.57-14.56-7.3
							c-2.43-1.42-4.83-2.91-7.18-4.47c-1.14-0.75-2.27-1.52-3.39-2.31c-0.6-0.42-1.2-0.84-1.79-1.27c-0.31-0.23-0.74-0.44-1-0.72
							c-0.21-0.23,1.39,1.13,1.1,0.86c-3.39-3.04-7.1-5.78-10.63-8.65c-1.43-1.16-2.85-2.32-4.28-3.48c-1.59-1.29-3.17-2.2-5.3-2.2
							c-1.84,0-4.04,0.82-5.3,2.2c-2.52,2.74-3.25,7.96,0,10.61c4.95,4.03,9.87,8.09,14.84,12.08c6.55,5.25,13.89,9.74,21.33,13.58
							c7.44,3.84,15.27,7.07,23.34,9.3c15.54,4.31,31.81,4.8,47.59,1.58c16.54-3.38,32.17-10.97,46.02-20.49
							c6.62-4.55,12.63-10.01,18.8-15.14c0.2-0.17,0.4-0.33,0.6-0.5c1.4-1.16,2.2-3.56,2.2-5.3c0-1.84-0.82-4.04-2.2-5.3
							c-1.43-1.31-3.31-2.29-5.3-2.2C624.58,468.35,622.97,469.12,621.37,470.45L621.37,470.45z"/>
						<path class="st3" d="M436.55,521.12c8.28,5.31,16.75,10.34,25.14,15.46c6.47,3.96,13.27,7.37,19.94,10.98
							c11.02,5.97,22.04,11.93,33.09,17.83c5.45,2.91,10.91,5.81,16.38,8.69c2.89,1.52,5.89,3.49,9.05,4.37
							c3.22,0.9,6.71,0.75,9.95,0.04c3.99-0.88,7.83-3.45,11.4-5.4c3.76-2.05,7.49-4.14,11.22-6.23
							c13.61-7.64,27.21-15.29,40.9-22.8c12.92-7.09,25.86-14.12,38.73-21.3c0.98-0.55,1.96-1.1,2.94-1.65
							c3.42-1.93,4.86-6.89,2.69-10.26c-2.23-3.46-6.6-4.75-10.26-2.69c-12.14,6.85-24.4,13.48-36.62,20.18
							c-13.4,7.35-26.76,14.75-40.07,22.26c-4.6,2.59-9.2,5.19-13.82,7.74c-3.58,1.97-7.15,4.15-10.88,5.82
							c0.6-0.25,1.19-0.5,1.79-0.76c-1,0.4-2.03,0.66-3.1,0.82c0.66-0.09,1.33-0.18,1.99-0.27c-1.23,0.15-2.45,0.17-3.69,0.01
							c0.66,0.09,1.33,0.18,1.99,0.27c-0.68-0.11-1.32-0.27-1.96-0.5c0.6,0.25,1.19,0.5,1.79,0.76c-2.52-1.07-4.93-2.54-7.36-3.82
							c-2.55-1.34-5.1-2.69-7.65-4.04c-5.02-2.66-10.04-5.35-15.05-8.04c-10.09-5.42-20.17-10.88-30.24-16.34
							c-5.43-2.94-10.91-5.77-16.18-8.99c-4.65-2.84-9.29-5.7-13.93-8.55c-3.54-2.18-7.13-4.31-10.63-6.55
							c-3.31-2.12-8.42-0.79-10.26,2.69C431.89,514.58,433.02,518.85,436.55,521.12L436.55,521.12z"/>
						<path class="st3" d="M583.86,602.13c-10.93-10.48-22.04-20.77-32.84-31.38c-2.93-2.88-7.66-2.84-10.61,0
							c-9.83,9.48-19.3,19.34-29.34,28.6c-1.21,1.12-2.43,2.23-3.68,3.31c-0.48,0.42-0.97,0.84-1.47,1.24
							c-0.22,0.18-0.44,0.35-0.65,0.53c-0.95,0.77,1.9-1.44,0.7-0.54c-1.62,1.21-2.89,2.45-3.45,4.48c-0.49,1.8-0.27,4.19,0.76,5.78
							c1.03,1.6,2.57,3.01,4.48,3.45c1.84,0.42,4.19,0.42,5.78-0.76c5.23-3.89,9.92-8.49,14.61-13
							c5.54-5.33,10.99-10.75,16.45-16.17c2.13-2.11,4.26-4.23,6.42-6.31c-3.54,0-7.07,0-10.61,0c10.8,10.61,21.91,20.9,32.84,31.38
							c2.83,2.72,7.83,3.03,10.61,0C586.56,609.79,586.89,605.03,583.86,602.13L583.86,602.13z"/>
					</g>
				</g>
			</g>
			<g>
				<g>
					<path class="st3" d="M718.21,573.57c-0.7-11.7-2.68-23.22-4.66-34.75c-0.3-1.75-1.98-3.62-3.45-4.48
						c-1.61-0.94-3.98-1.34-5.78-0.76c-1.81,0.59-3.57,1.71-4.48,3.45c-0.99,1.88-1.12,3.69-0.76,5.78
						c1.08,6.28,2.2,12.55,3.06,18.86c-0.09-0.66-0.18-1.33-0.27-1.99c0.62,4.62,1.05,9.25,1.33,13.9c0.24,3.91,3.28,7.69,7.5,7.5
						C714.57,580.9,718.46,577.77,718.21,573.57L718.21,573.57z"/>
				</g>
			</g>
			<g>
				<g>
					<path class="st3" d="M381.49,562.55c0.68-5.87,1.42-11.73,2.2-17.58c-0.09,0.66-0.18,1.33-0.27,1.99
						c0.19-1.38,0.37-2.77,0.56-4.15c0.29-2.09,0.36-3.88-0.76-5.78c-0.91-1.56-2.69-3.04-4.48-3.45c-1.92-0.44-4.07-0.34-5.78,0.76
						c-1.52,0.98-3.19,2.61-3.45,4.48c-1.09,7.9-2.12,15.81-3.04,23.73c-0.21,1.78,0.99,4.09,2.2,5.3c1.3,1.3,3.44,2.28,5.3,2.2
						c1.94-0.09,3.95-0.72,5.3-2.2C380.72,566.29,381.25,564.64,381.49,562.55L381.49,562.55z"/>
				</g>
			</g>
			<g>
				<g>
					<path class="st3" d="M759.82,610.73c-0.26-10.46-3.72-20.31-10.61-28.23c-6.17-7.09-15.05-11.81-24.1-14.06
						c-9.9-2.46-20.38-2.35-30.35-0.33c-8.99,1.82-17.84,5.88-24.37,12.42c-7.93,7.94-11.51,18.93-11.35,30.01
						c0.06,3.92,3.41,7.68,7.5,7.5c4.01-0.18,7.56-3.3,7.5-7.5c-0.03-2.16,0.08-4.32,0.36-6.46c-0.09,0.66-0.18,1.33-0.27,1.99
						c0.42-2.96,1.16-5.85,2.31-8.61c-0.25,0.6-0.5,1.19-0.76,1.79c0.83-1.94,1.84-3.8,3.04-5.54c0.13-0.19,0.27-0.38,0.41-0.58
						c0.68-0.96-0.46,0.62-0.58,0.73c0.36-0.36,0.65-0.81,0.99-1.19c0.68-0.78,1.4-1.52,2.15-2.23c0.72-0.68,1.49-1.31,2.26-1.93
						c-2.16,1.76-0.59,0.46-0.02,0.07c0.43-0.3,0.87-0.59,1.32-0.88c1.83-1.16,3.76-2.14,5.75-2.99c-0.6,0.25-1.19,0.5-1.79,0.76
						c4.29-1.8,8.81-2.92,13.41-3.55c-0.66,0.09-1.33,0.18-1.99,0.27c5.53-0.73,11.14-0.82,16.67-0.11
						c-0.66-0.09-1.33-0.18-1.99-0.27c4.37,0.59,8.65,1.68,12.73,3.38c-0.6-0.25-1.19-0.5-1.79-0.76c2.11,0.9,4.16,1.95,6.1,3.19
						c0.46,0.3,0.92,0.6,1.38,0.92c0.58,0.41,2.28,1.84,0.16,0.07c0.84,0.7,1.68,1.38,2.47,2.14c0.79,0.75,1.54,1.53,2.25,2.35
						c0.36,0.41,0.7,0.83,1.04,1.25c0.51,0.62-1.29-1.74-0.46-0.57c0.14,0.2,0.29,0.4,0.43,0.6c1.33,1.9,2.43,3.94,3.35,6.06
						c-0.25-0.6-0.5-1.19-0.76-1.79c1.24,2.96,2.06,6.06,2.5,9.24c-0.09-0.66-0.18-1.33-0.27-1.99c0.21,1.6,0.33,3.2,0.37,4.82
						c0.1,3.92,3.38,7.68,7.5,7.5C756.3,618.06,759.92,614.94,759.82,610.73L759.82,610.73z"/>
				</g>
			</g>
			<g>
				<g>
					<path class="st3" d="M326.67,612.55c1.29-6.45,2.66-12.9,4.34-19.26c-0.64,1.1-1.29,2.21-1.93,3.31
						c2.25-2.25,4.58-4.42,7.01-6.47c0.52-0.44,1.04-0.87,1.57-1.29c0.29-0.23,0.58-0.46,0.87-0.69c1.03-0.83-1.04,0.78-0.3,0.23
						c1.14-0.85,2.28-1.69,3.46-2.5c4.2-2.88,8.66-5.37,13.35-7.35c-0.6,0.25-1.19,0.5-1.79,0.76c5.11-2.13,10.46-3.63,15.95-4.37
						c-0.66,0.09-1.33,0.18-1.99,0.27c5.33-0.7,10.72-0.68,16.05,0.03c-0.66-0.09-1.33-0.18-1.99-0.27
						c5.86,0.81,11.57,2.42,17.01,4.72c-0.6-0.25-1.19-0.5-1.79-0.76c4.45,1.89,8.73,4.2,12.69,6.98c0.53,0.37,1.04,0.75,1.56,1.14
						c0.85,0.64-2-1.59-0.97-0.75c0.1,0.08,0.2,0.17,0.31,0.25c0.79,0.56-1.48-2.36-0.89-1.08c0.4,0.87,0.84,1.73,1.25,2.6
						c2.19,4.63,4.26,9.32,6.25,14.05c-0.25-0.6-0.5-1.19-0.76-1.79c1.71,4.06,3.35,8.15,4.94,12.26c0.72,1.88,1.65,3.43,3.45,4.48
						c1.61,0.94,3.98,1.34,5.78,0.76c3.55-1.15,6.75-5.31,5.24-9.23c-3.02-7.86-6.27-15.64-9.74-23.32
						c-0.9-1.99-1.82-3.97-2.76-5.94c-0.56-1.17-1.05-2.4-2.04-3.3c-3.48-3.14-7.77-5.67-11.91-7.79
						c-9.27-4.76-19.28-7.7-29.69-8.41c-13.87-0.94-27.78,2.88-39.76,9.78c-3.92,2.26-7.58,4.9-11.14,7.69
						c-1.73,1.35-3.42,2.76-5.06,4.23c-2.03,1.81-4.43,3.72-5.91,6.02c-0.92,1.42-1.2,3.52-1.59,5.13
						c-0.76,3.12-1.47,6.24-2.14,9.38c-0.47,2.18-0.92,4.36-1.36,6.54c-0.4,1.99-0.3,3.98,0.76,5.78c0.91,1.56,2.69,3.04,4.48,3.45
						C321.17,618.64,325.84,616.66,326.67,612.55L326.67,612.55z"/>
				</g>
			</g>
		</g>
		<g>
			<g>
				<g>
					<path class="st3" d="M540.08,618.35c62.74,0,125.47-0.03,188.21-0.01c15.74,0,31.47,0.01,47.21,0.02
						c7.76,0,15.53,0.01,23.29,0.02c7.15,0.01,14.45-0.41,21.59,0.23c4.15,0.37,9.58,2.03,13.23,4.04c2.17,1.2,3.67,2.21,4.97,3.35
						c0.78,0.68,1.53,1.4,2.24,2.15c0.44,0.47,0.87,0.95,1.29,1.44c0.32,0.4,0.33,0.39,0.03-0.02c0.23,0.31,0.46,0.62,0.68,0.93
						c0.65,0.95,1.28,1.92,1.83,2.94c0.51,0.93,1.03,2.02,1.05,2.07c0.44,1.09,0.8,2.22,1.11,3.36c0.14,0.51,0.26,1.03,0.38,1.55
						c-0.01-0.03,0.44,2.34,0.27,1.2c0.97,6.82-0.43,13.83-1.73,20.51c-5.9,30.3-10.56,60.88-15.77,91.31
						c-5.3,30.94-10.6,61.88-15.9,92.82c-2.61,15.26-5.23,30.53-7.84,45.79c-1.34,7.84-2.68,15.68-4.02,23.52
						c-0.5,2.9-0.95,5.81-1.72,8.65c-0.72,2.63-1.29,4.19-2.16,5.95c-0.84,1.7-2.43,4.31-3.13,5.23c-0.74,0.97-2.88,3.18-4.38,4.46
						c-1.73,1.49,0.63-0.41-0.47,0.38c-0.49,0.35-0.99,0.7-1.5,1.02c-0.82,0.53-1.67,1.02-2.53,1.48c-0.55,0.29-1.1,0.56-1.67,0.82
						c-1.27,0.6,1.62-0.58-0.64,0.27c-1.21,0.46-2.44,0.86-3.69,1.21c-5.47,1.51-9.75,1.45-15.83,1.48
						c-7.76,0.03-15.53,0.05-23.29,0.06c-62.67,0.09-125.34-0.02-188.01-0.02c-62.6,0-125.2,0-187.8,0c-15.49,0-30.99,0-46.48,0
						c-2.83,0-5.66,0-8.49-0.16c-2.72-0.15-4.92-0.4-6.36-0.65c-2.01-0.35-4-0.8-5.95-1.4c-0.81-0.25-1.6-0.57-2.4-0.82
						c-1.32-0.41-0.2-0.06,0.08,0.06c-0.55-0.24-1.1-0.5-1.63-0.77c-1.56-0.79-3.04-1.71-4.46-2.75c1.52,1.11-0.8-0.75-1.1-1.04
						c-0.7-0.66-1.33-1.38-1.98-2.09c-0.26-0.29-0.5-0.6-0.74-0.9c1.03,1.27,0.16,0.21-0.06-0.14c-0.5-0.77-1.01-1.51-1.47-2.3
						c-0.48-0.82-0.93-1.65-1.35-2.5c-0.24-0.49-0.46-0.98-0.7-1.47c-0.69-1.44,0.32,0.99-0.29-0.69c-4.06-11.2-5.38-23.1-7.32-34.8
						c-10.19-61.32-21.04-122.53-31.61-183.78c-2.65-15.36-5.38-30.71-8.02-46.08c-1.14-6.64-2.93-13.27-2.7-19.32
						c0.16-4.21,1.8-8.89,4.41-12.96c5.33-8.33,14.36-13.03,24.1-13.5c15.37-0.74,30.87-0.13,46.26-0.13
						c62.59-0.01,125.19-0.01,187.78,0C509.93,618.35,525.01,618.35,540.08,618.35c9.65,0,9.67-15,0-15c-64.48,0-128.96,0-193.43,0
						c-16.33,0-32.66,0-48.99,0c-7.83,0-15.65-0.04-23.47-0.09c-7.37-0.04-14.98-0.25-22.23,1.21
						c-12.09,2.43-22.96,10.79-29.08,21.4c-3.08,5.35-4.91,11.25-5.45,17.38c-0.62,6.9,1.24,13.92,2.39,20.69
						c10.78,63.27,22.08,126.46,32.88,189.73c2.7,15.83,5.37,31.67,8,47.51c1.99,12.01,3.4,24.14,8.34,35.38
						c3.43,7.81,9.16,14.68,16.73,18.77c8.79,4.75,18.98,6.03,28.83,6.18c31.98,0.48,64,0.02,95.98,0.02c32.24,0,64.49,0,96.73,0
						c64.53,0,129.05-0.01,193.58,0.03c15.95,0.01,31.9,0.01,47.84-0.02c13.16-0.03,27.44,1.42,39.96-3.54
						c9.85-3.91,18.09-11,22.74-20.62c2.68-5.55,4.09-11.19,5.12-17.23c1.38-8.04,2.75-16.09,4.13-24.13
						c10.88-63.53,21.78-127.06,32.64-190.6c2.65-15.51,5.74-30.99,8.18-46.54c2.02-12.89,1.65-26.01-6.4-36.9
						c-6.82-9.22-17.05-15.39-28.31-17.51c-7.18-1.35-14.42-1.09-21.69-1.1c-8.18-0.01-16.37-0.01-24.55-0.02
						c-64.41-0.04-128.83-0.02-193.24-0.02c-15.74,0-31.47,0-47.21,0C530.43,603.35,530.41,618.35,540.08,618.35z"/>
					<path class="st3" d="M540.37,806.89c5.82-0.11,11.86-1.8,16.6-5.27c5.11-3.74,8.78-8.49,10.98-14.45
						c4.06-10.98,0.25-24.42-8.83-31.76c-5.12-4.14-10.93-6.6-17.54-7.05c-5.79-0.4-11.94,1.25-16.84,4.34
						c-10.71,6.74-16.09,19.48-13.26,31.84C514.5,797.76,527.01,806.94,540.37,806.89c3.92-0.01,7.68-3.44,7.5-7.5
						c-0.18-4.05-3.3-7.52-7.5-7.5c-1.05,0-2.09-0.05-3.13-0.18c0.66,0.09,1.33,0.18,1.99,0.27c-2.01-0.27-3.94-0.79-5.81-1.56
						c0.6,0.25,1.19,0.5,1.79,0.76c-1.25-0.54-2.46-1.17-3.59-1.93c-0.1-0.07-0.95-0.58-0.93-0.65c-0.02,0.06,1.73,1.4,0.5,0.37
						c-0.49-0.41-0.97-0.85-1.43-1.31c-0.46-0.46-0.89-0.93-1.3-1.43c-0.41-0.49-0.84-1.41,0.38,0.5c-0.17-0.27-0.38-0.52-0.56-0.79
						c-0.79-1.17-1.44-2.42-1.99-3.72c0.25,0.6,0.5,1.19,0.76,1.79c-0.71-1.75-1.2-3.57-1.46-5.45c0.09,0.66,0.18,1.33,0.27,1.99
						c-0.24-1.96-0.24-3.91,0.02-5.87c-0.09,0.66-0.18,1.33-0.27,1.99c0.27-1.8,0.75-3.54,1.43-5.23c-0.25,0.6-0.5,1.19-0.76,1.79
						c0.55-1.29,1.19-2.52,1.97-3.69c0.12-0.18,0.47-0.91,0.67-0.96c-0.27,0.07-1.31,1.62-0.35,0.47c0.43-0.51,0.88-1,1.35-1.47
						c0.47-0.47,0.96-0.92,1.48-1.35c0.49-0.41,1.42-0.85-0.47,0.35c0.28-0.18,0.54-0.39,0.82-0.58c1.21-0.81,2.49-1.49,3.83-2.06
						c-0.6,0.25-1.19,0.5-1.79,0.76c1.8-0.73,3.66-1.23,5.59-1.49c-0.66,0.09-1.33,0.18-1.99,0.27c1.86-0.22,3.72-0.22,5.58,0.02
						c-0.66-0.09-1.33-0.18-1.99-0.27c1.92,0.27,3.77,0.79,5.56,1.53c-0.6-0.25-1.19-0.5-1.79-0.76c1.23,0.53,2.42,1.16,3.54,1.9
						c0.28,0.18,0.55,0.38,0.82,0.57c1.08,0.74-1.4-1.16-0.46-0.36c0.55,0.47,1.09,0.94,1.61,1.45c0.47,0.47,0.91,0.97,1.35,1.47
						c1.01,1.12-0.8-1.11-0.34-0.47c0.19,0.27,0.39,0.54,0.58,0.81c0.78,1.16,1.45,2.38,2.01,3.66c-0.25-0.6-0.5-1.19-0.76-1.79
						c0.75,1.78,1.27,3.62,1.54,5.53c-0.09-0.66-0.18-1.33-0.27-1.99c0.25,1.95,0.24,3.91-0.01,5.86c0.09-0.66,0.18-1.33,0.27-1.99
						c-0.27,1.88-0.77,3.69-1.5,5.44c0.25-0.6,0.5-1.19,0.76-1.79c-0.54,1.25-1.18,2.45-1.93,3.58c-0.07,0.1-0.57,0.94-0.65,0.93
						c0.08,0.02,1.39-1.72,0.37-0.5c-0.42,0.49-0.86,0.97-1.32,1.43c-0.46,0.46-0.95,0.87-1.44,1.3c-0.98,0.87,1.57-1.12,0.49-0.38
						c-0.27,0.19-0.53,0.38-0.8,0.56c-1.18,0.79-2.44,1.45-3.75,2c0.6-0.25,1.19-0.5,1.79-0.76c-1.77,0.72-3.6,1.21-5.49,1.48
						c0.66-0.09,1.33-0.18,1.99-0.27c-0.92,0.12-1.84,0.18-2.77,0.2c-3.92,0.07-7.68,3.4-7.5,7.5
						C533.05,803.39,536.16,806.97,540.37,806.89z"/>
				</g>
			</g>
			<g>
				<g>
					<path class="st3" d="M277.54,994.57c4.71,0,9.41,0,14.12,0c12.69,0,25.39,0,38.08,0c18.82,0,37.64,0,56.46,0
						c22.96,0,45.92,0,68.88,0c25.06,0,50.12,0,75.18,0c25.47,0,50.94,0,76.41,0c23.59,0,47.17,0,70.76,0c20,0,40.01,0,60.01,0
						c14.38,0,28.76,0,43.14,0c6.79,0,13.6,0.11,20.39,0c0.3,0,0.59,0,0.89,0c4.05,0,7.5-3.45,7.5-7.5c0-4.07-3.43-7.5-7.5-7.5
						c-4.71,0-9.41,0-14.12,0c-12.69,0-25.39,0-38.08,0c-18.82,0-37.64,0-56.46,0c-22.96,0-45.92,0-68.88,0
						c-25.06,0-50.12,0-75.18,0c-25.47,0-50.94,0-76.41,0c-23.59,0-47.17,0-70.76,0c-20,0-40.01,0-60.01,0c-14.38,0-28.76,0-43.14,0
						c-6.79,0-13.6-0.11-20.39,0c-0.3,0-0.59,0-0.89,0c-4.05,0-7.5,3.45-7.5,7.5C270.04,991.13,273.47,994.57,277.54,994.57
						L277.54,994.57z"/>
				</g>
			</g>
		</g>
	</g>
</g>
</svg>
