<?xml version="1.0" encoding="utf-8"?>
<!-- Generator: Adobe Illustrator 24.2.3, SVG Export Plug-In . SVG Version: 6.00 Build 0)  -->
<svg version="1.1" id="Capa_1" xmlns="http://www.w3.org/2000/svg" xmlns:xlink="http://www.w3.org/1999/xlink" x="0px" y="0px"
	 viewBox="0 0 1080 1080" style="enable-background:new 0 0 1080 1080;" xml:space="preserve">
<style type="text/css">
	.st0{opacity:0.4;}
	.st1{fill:#A8A9AD;}
	.st2{fill:#29AAE3;}
	.st3{fill:#093548;}
	.st4{fill:none;stroke:#093548;stroke-width:8;stroke-linecap:round;stroke-miterlimit:10;}
	.st5{fill:none;stroke:#093548;stroke-width:8;stroke-linecap:round;stroke-miterlimit:10;stroke-dasharray:35.2576,35.2576;}
	.st6{opacity:0.2;}
	.st7{fill:#9291A1;}
	.st8{fill:#FFFFFF;}
	.st9{fill:url(#SVGID_1_);}
	.st10{fill:url(#SVGID_2_);}
	.st11{fill:url(#SVGID_3_);}
	.st12{fill:url(#SVGID_4_);}
	.st13{fill:url(#SVGID_5_);}
	.st14{fill:url(#SVGID_6_);}
	.st15{fill:url(#SVGID_7_);}
	.st16{fill:url(#SVGID_8_);}
	.st17{fill:url(#SVGID_9_);}
	.st18{fill:url(#SVGID_10_);}
	.st19{fill:url(#SVGID_11_);}
</style>
<g class="st0">
	<g>
		<path class="st1" d="M593.12,230.02c-152.94-36.73-312.82,44.01-371.75,190.1c-44.68,110.75-31.5,216.18,38.08,313.54
			c9.66,13.52,13.54,25.45,9.16,41.65c-5.1,18.84-7.73,38.35-12.14,61.28c22.56-7.7,42.53-13.72,61.84-21.4
			c12.34-4.91,22-3.78,33.47,3.3c57.83,35.68,120.96,50.85,188.85,46.31c156.55-10.49,285.3-135.49,298.44-289.91
			C852.88,412.45,749.58,267.59,593.12,230.02z"/>
	</g>
</g>
<g>
	<g>
		<path class="st3" d="M617.26,219.4c-53.59-12.79-110.02-11.96-163.18,2.55c-51.67,14.11-99.73,40.85-138.88,77.41
			c-41.89,39.12-71.6,88.67-88.94,143.13c-19.5,61.22-21.87,126.99-2.98,188.67c9.62,31.41,24.19,61.24,42.13,88.71
			c7.88,12.07,19.44,24.33,19.63,38.95c0.1,7.62-2.62,14.94-4.27,22.32c-1.81,8.11-3.3,16.29-4.76,24.47
			c-1.52,8.54-3,17.09-4.63,25.61c-1,5.21,3.4,11.21,9.23,9.23c12.29-4.19,24.66-8.15,36.96-12.33c5.6-1.9,11.17-3.86,16.71-5.92
			c5.53-2.06,11.1-4.87,17-5.69c10.62-1.48,19.48,5.65,28.45,10.79c10.3,5.89,20.91,11.23,31.79,15.95
			c43.83,19.01,91.27,27.81,139.01,26.29c39.75-1.27,79.19-9.53,115.91-24.88c35.41-14.81,68.06-35.46,96.51-61.26
			c27.79-25.2,51.4-55.29,69.11-88.38c18.29-34.18,30.17-71.35,35.19-109.77c5.07-38.74,3.07-78.52-5.37-116.66
			c-8.11-36.67-22.55-72.08-42.47-103.92c-19.74-31.55-44.82-59.82-74.02-82.91c-30.12-23.82-64.09-42.25-100.52-54.44
			C635.77,224.27,626.56,221.65,617.26,219.4c-9.38-2.27-13.38,12.19-3.99,14.46c36.59,8.84,70.52,23.45,101.92,44.35
			c15.18,10.1,28.68,20.92,42.02,33.65c6.54,6.24,12.81,12.76,18.79,19.53c5.91,6.69,11.4,13.45,16.38,20.19
			c21.73,29.39,38.01,61.75,48.53,96.29c11.04,36.26,15.45,72.93,13.64,110.87c-1.74,36.59-10.32,73.99-25.07,107.38
			c-14.89,33.7-35.34,64.12-60.55,90.48c-25.4,26.56-54.47,48.09-87.38,64.7c-16.59,8.37-33.19,14.97-51.24,20.35
			c-17.99,5.36-36.94,9.24-54.96,11.17c-44.89,4.81-90.59,0.55-133.45-13.84c-21.99-7.38-42.98-17.4-62.77-29.47
			c-10.53-6.42-21.55-9.87-33.86-7.08c-5.69,1.29-11.08,3.86-16.53,5.87c-5.56,2.05-11.16,3.99-16.77,5.89
			c-11.77,3.98-23.6,7.78-35.36,11.79c3.08,3.08,6.15,6.15,9.23,9.23c3.2-16.68,5.69-33.5,9.39-50.08
			c1.77-7.94,4.39-15.73,4.77-23.91c0.35-7.78-1.49-15.33-4.67-22.39c-3.24-7.2-8.12-13.4-12.54-19.89
			c-4.87-7.14-9.52-14.44-13.91-21.89c-7.91-13.43-15.07-27.38-21.05-41.78c-11.74-28.29-19.43-58.37-21.86-88.93
			c-2.44-30.6,0.08-61.38,6.92-91.28c12.74-55.66,38.5-107.81,77.36-149.51c35.25-37.83,79.89-66.63,128.54-83.21
			c49.72-16.95,103.32-21.51,154.73-12.55c6.62,1.15,13.21,2.53,19.75,4.09C622.66,236.1,626.66,221.64,617.26,219.4z"/>
		<path class="st3" d="M735.81,649.91c-0.05,0.49-0.09,0.98-0.15,1.46c-0.03,0.24-0.06,0.49-0.09,0.73
			c-0.08,0.84,0.12-0.79,0.11-0.78c-0.44,0.84-0.38,2.42-0.56,3.37c-0.39,2.07-0.87,4.13-1.45,6.16c-0.57,2.03-1.23,4.03-1.97,6
			c-0.17,0.46-0.35,0.91-0.53,1.36c-0.09,0.23-0.19,0.45-0.27,0.68c-0.29,0.77,0.27-0.69,0.29-0.67c0.15,0.13-1.25,2.76-1.42,3.11
			c-1.85,3.85-4.03,7.54-6.47,11.04c-0.57,0.82-1.16,1.62-1.76,2.42c-0.83,1.13,0.83-1.03-0.05,0.07c-0.42,0.52-0.84,1.05-1.27,1.56
			c-1.4,1.69-2.87,3.32-4.4,4.9c-1.55,1.6-3.15,3.14-4.81,4.62c-0.77,0.69-1.56,1.37-2.36,2.04c-0.4,0.33-0.8,0.67-1.21,0.99
			c-0.4,0.32-1.96,1.78-0.54,0.45c-1.56,1.48-3.62,2.66-5.4,3.84c-1.95,1.29-3.94,2.51-5.98,3.66c-2.07,1.17-4.18,2.27-6.32,3.3
			c-1.09,0.52-2.18,1.02-3.29,1.51c-0.26,0.11-0.51,0.22-0.77,0.33c-0.8,0.35,0.49-0.2,0.5-0.21c-0.19,0.31-1.47,0.6-1.83,0.74
			c-4.65,1.83-9.43,3.35-14.28,4.55c-2.5,0.62-5.03,1.16-7.56,1.62c-1.29,0.23-2.58,0.45-3.88,0.64c-0.67,0.1-1.78,0.23-0.43,0.07
			c-0.71,0.08-1.42,0.18-2.14,0.26c-2.69,0.3-5.38,0.51-8.08,0.64c-1.27,0.06-2.54,0.1-3.81,0.13c-0.75,0.01-1.49,0.02-2.24,0.02
			c-0.29,0-0.68-0.06-0.97,0c-1.04,0.22,1.13,0.18,0.1,0.13c-2.65-0.14-5.38-0.79-8-1.22c-2.68-0.44-5.36-0.91-8.04-1.41
			c-5.41-1.01-10.79-2.15-16.15-3.41c-10.92-2.57-21.72-5.67-32.34-9.29c-5.3-1.81-10.55-3.75-15.75-5.82
			c-1.33-0.53-2.67-1.07-3.99-1.62c-0.28-0.12-1.9-0.79-1.25-0.52c0.77,0.33-0.24-0.1-0.33-0.14c-0.41-0.18-0.82-0.35-1.22-0.53
			c-2.66-1.15-5.3-2.33-7.92-3.55c-10.64-4.94-21-10.47-31.01-16.59c-5.09-3.11-10.09-6.37-14.98-9.78
			c-2.47-1.72-4.91-3.48-7.33-5.28c-1.12-0.83-2.23-1.68-3.34-2.52c-0.17-0.13-1.12-0.87-0.14-0.11c-0.28-0.22-0.55-0.43-0.83-0.65
			c-0.64-0.51-1.29-1.01-1.93-1.52c-19.81-15.81-37.54-34.23-54.36-53.13c-17.25-19.38-33.52-39.6-49.87-59.73
			c-0.94-1.16-1.88-2.32-2.82-3.47c-0.51-0.63-1.02-1.27-1.53-1.91c-0.04-0.05-0.74-0.95-0.26-0.33c0.46,0.59-0.38-0.5-0.46-0.61
			c-1.77-2.36-3.47-4.77-5.09-7.23c-3.19-4.85-6.07-9.9-8.65-15.11c-0.59-1.19-1.16-2.39-1.72-3.6c-0.28-0.6-0.55-1.21-0.82-1.81
			c-0.18-0.4-0.36-0.81-0.54-1.21c-0.06-0.13-0.6-1.4-0.28-0.63c0.33,0.78-0.1-0.24-0.13-0.33c-0.13-0.31-0.25-0.61-0.38-0.92
			c-0.25-0.61-0.49-1.23-0.74-1.85c-0.56-1.44-1.11-2.89-1.63-4.34c-1.94-5.42-3.6-10.93-5.01-16.51
			c-1.39-5.51-2.54-11.09-3.48-16.7c-0.24-1.44-0.47-2.88-0.68-4.32c-0.1-0.67-0.2-1.33-0.29-2c-0.05-0.33-0.09-0.67-0.14-1
			c0.1,0.74,0.09,0.7,0-0.02c-0.36-2.91-0.7-5.83-0.97-8.76c-0.55-5.77-1.06-11.6-1.05-17.4c0.01-2.7,0.14-5.41,0.4-8.1
			c0.06-0.61,0.13-1.21,0.2-1.82c0.04-0.36,0.24-1.46-0.03,0.19c0.05-0.3,0.09-0.6,0.13-0.89c0.2-1.28,0.43-2.55,0.69-3.82
			c1.02-4.96,2.58-9.72,4.42-14.43c-0.48,1.22-0.14,0.33,0.15-0.31c0.23-0.52,0.47-1.04,0.71-1.56c0.57-1.21,1.16-2.4,1.78-3.58
			c1.15-2.19,2.4-4.33,3.73-6.42c1.34-2.1,2.75-4.14,4.24-6.13c0.39-0.53,1.04-1.33,0.23-0.31c0.36-0.45,0.72-0.91,1.08-1.36
			c0.85-1.05,1.72-2.09,2.61-3.11c3.35-3.85,6.94-7.48,10.71-10.92c1.92-1.75,3.88-3.45,5.87-5.11c0.93-0.77,1.87-1.53,2.81-2.28
			c1.22-0.98-0.95,0.64,0.19-0.14c0.56-0.38,1.12-0.78,1.7-1.15c0.85-0.54,1.73-1.05,2.63-1.52c0.45-0.23,0.9-0.45,1.35-0.67
			c0.23-0.11,0.46-0.2,0.68-0.31c0.87-0.43-1.75,0.64-0.18,0.09c2.04-0.72,4.07-1.37,6.2-1.79c0.49-0.1,0.98-0.17,1.46-0.26
			c1.42-0.25-1.46,0.13-0.03,0.01c1.07-0.09,2.14-0.19,3.22-0.22c1.08-0.03,2.16-0.02,3.24,0.03c0.5,0.02,1,0.06,1.49,0.1
			c0.25,0.02,0.5,0.05,0.75,0.07c0.17,0.02,0.33,0.03,0.5,0.05c0.42,0.05,0.33,0.03-0.25-0.04c-0.12-0.18-0.83-0.13,0,0
			c0.33,0.05,0.66,0.1,0.99,0.16c0.49,0.09,0.99,0.18,1.48,0.28c1.07,0.22,2.12,0.48,3.17,0.78c1.05,0.3,2.09,0.63,3.12,1
			c0.47,0.17,0.94,0.36,1.41,0.54c0.2,0.08,0.99,0.45,0.04,0.01c-1.01-0.47,0.06,0.03,0.26,0.13c1.98,0.93,3.91,1.95,5.76,3.13
			c0.64,0.41,2.4,1.19,2.69,1.86c0.01,0.02-1.16-0.95-0.52-0.41c0.19,0.16,0.39,0.31,0.59,0.47c0.45,0.37,0.9,0.75,1.34,1.14
			c1.63,1.45,3.12,3.03,4.53,4.7c0.12,0.14,0.42,0.41,0.47,0.59c0.01,0.04-0.86-1.24-0.41-0.52c0.31,0.5,0.69,0.95,1.02,1.44
			c0.61,0.91,1.18,1.84,1.71,2.79c1.34,2.42,2.39,4.99,3.48,7.53c0.3,0.71,0.61,1.41,0.91,2.12c0.34,0.8,0.06,0.14-0.01-0.02
			c0.15,0.35,0.3,0.71,0.45,1.07c0.69,1.66,1.38,3.32,2.06,4.98c2.53,6.18,4.99,12.38,7.55,18.55c2.7,6.52,5.46,13.01,8.47,19.39
			c0.66,1.39,1.33,2.77,2.01,4.15c0.33,0.67,0.67,1.33,0.99,2c0.21,0.43,0.41,0.85,0.6,1.29c0.06,0.12,0.62,1.42,0.32,0.69
			c-0.24-0.58,0.39,1.01,0.5,1.3c0.23,0.61,0.45,1.23,0.65,1.85c0.46,1.39,0.85,2.8,1.17,4.23c0.13,0.59,0.25,1.18,0.36,1.78
			c0.02,0.12,0.22,0.78,0.15,0.88c0,0-0.15-1.45-0.07-0.54c0.12,1.34,0.23,2.66,0.24,4.01c0,1.12-0.05,2.24-0.16,3.36
			c-0.02,0.21-0.15,0.64-0.09,0.83c-0.02-0.06,0.25-1.45,0.07-0.62c-0.14,0.63-0.23,1.28-0.37,1.91c-0.27,1.19-0.6,2.36-0.98,3.51
			c-0.18,0.54-0.37,1.07-0.58,1.6c-0.1,0.27-0.21,0.53-0.32,0.8c0.22-0.54,0.44-0.99,0.06-0.2c-1.15,2.37-2.42,4.65-3.9,6.83
			c-0.42,0.62-0.85,1.23-1.29,1.83c-0.19,0.26-0.39,0.52-0.58,0.78c0.08-0.1,0.71-0.87,0.16-0.21c-0.95,1.14-1.88,2.29-2.87,3.4
			c-2.02,2.26-4.08,4.49-6.09,6.77c-3.29,3.73-6.57,7.55-9.32,11.71c-4.19,6.35-6.04,13.88-3.49,21.24
			c3.17,9.13,9.56,17.05,15.05,24.85c6.63,9.42,13.71,18.56,21.29,27.24c14.48,16.6,30.91,31.45,48.98,44.06
			c8.97,6.26,18.36,11.91,28.08,16.91c4.97,2.55,10.02,4.94,15.14,7.15c5.3,2.29,10.7,4.82,16.41,5.94
			c5.16,1.01,10.66,1.21,15.67-0.63c5.13-1.88,9.56-5.13,13.01-9.37c1.18-1.45,2.28-2.95,3.38-4.46c0.45-0.61,0.9-1.22,1.36-1.83
			c0.23-0.3,0.46-0.61,0.69-0.91c-0.48,0.63,0.02-0.03,0.22-0.28c2.04-2.59,4.14-5.13,6.24-7.66c3.85-4.63,7.6-9.35,11.51-13.93
			c1.45-1.69,2.92-3.36,4.48-4.95c1.24-1.27,2.84-2.33,4-3.65c-0.48,0.55-1.32,0.94-0.34,0.3c0.34-0.22,0.67-0.45,1.02-0.67
			c0.61-0.37,1.25-0.67,1.88-1.01c1-0.54-1.72,0.55-0.63,0.28c0.34-0.09,0.68-0.23,1.02-0.32c0.29-0.08,0.59-0.14,0.89-0.21
			c1.31-0.32,0.08,0.18-0.63,0.06c0.57,0.1,1.29-0.08,1.88-0.07c0.38,0.01,0.76,0.05,1.14,0.07c1.51,0.08-1.6-0.32-0.47-0.07
			c1.65,0.35,3.26,0.72,4.86,1.26c0.85,0.28,1.69,0.59,2.52,0.92c0.53,0.2,1.04,0.43,1.57,0.63c0.78,0.3-0.64-0.27-0.63-0.27
			c0.33,0.09,0.65,0.28,0.96,0.42c2.35,1.03,4.66,2.12,6.97,3.23c12.15,5.85,24.12,12.05,36.2,18.02
			c5.96,2.95,11.94,5.84,17.98,8.62c2.88,1.33,5.84,2.52,8.68,3.95c1.09,0.55,2.15,1.14,3.18,1.8c0.44,0.28,0.87,0.59,1.31,0.89
			c1.04,0.71-0.97-0.9,0.26,0.23c0.76,0.7,1.52,1.4,2.2,2.18c0.15,0.17,0.29,0.36,0.45,0.53c0.53,0.56-0.47-0.58-0.47-0.62
			c-0.01,0.23,0.63,0.9,0.76,1.12c0.24,0.38,0.47,0.77,0.68,1.16c0.17,0.31,0.73,1.87,0.4,0.72c-0.33-1.17,0.1,0.28,0.2,0.57
			c0.15,0.43,0.29,0.87,0.41,1.31c0.28,0.98,0.47,1.97,0.65,2.98c0.25,1.39-0.11-1.49-0.02-0.06c0.03,0.5,0.08,1,0.11,1.5
			C736.12,645.22,736.01,647.57,735.81,649.91c-0.34,3.92,3.69,7.67,7.5,7.5c4.36-0.2,7.13-3.3,7.5-7.5
			c0.88-10.08-0.94-20.47-8.34-27.88c-4.05-4.05-8.99-6.42-14.14-8.74c-6.3-2.83-12.53-5.81-18.73-8.85
			c-12.41-6.09-24.68-12.45-37.12-18.49c-8.19-3.98-17.2-9.04-26.56-9.15c-8.25-0.1-14.91,4.8-20.34,10.55
			c-3.66,3.87-6.94,8.06-10.31,12.18c-4.51,5.49-9.12,10.89-13.44,16.53c-1,1.3-2,2.62-2.94,3.96c-0.83,1.19,0.53-0.57-0.36,0.5
			c-0.44,0.54-0.89,1.07-1.37,1.58c-0.82,0.89-1.69,1.69-2.6,2.49c-1.05,0.92,1.03-0.64-0.13,0.07c-0.56,0.35-1.11,0.72-1.69,1.04
			c-0.13,0.07-1.3,0.57-1.29,0.64c0-0.08,1.45-0.5,0.69-0.31c-0.3,0.08-0.59,0.21-0.89,0.31c-0.45,0.14-0.9,0.26-1.36,0.37
			c-0.23,0.05-0.46,0.09-0.69,0.15c-1.1,0.26,0.38-0.19,0.58-0.06c-0.43-0.28-2.57,0.13-3.17,0.1c-0.26-0.01-1.66,0.04-1.78-0.14
			c-0.03-0.05,1.57,0.29,0.69,0.09c-0.35-0.08-0.71-0.12-1.06-0.19c-2.63-0.51-5.18-1.34-7.68-2.31c-1.22-0.47-2.43-0.98-3.64-1.48
			c-0.1-0.04-1.1-0.46-0.31-0.13c0.86,0.36-0.41-0.17-0.6-0.26c-0.7-0.3-1.39-0.6-2.09-0.91c-5.2-2.29-10.32-4.75-15.35-7.38
			c-9.86-5.17-19.36-11.01-28.43-17.47c-2.29-1.63-4.54-3.3-6.78-5.01c-1.14-0.87,0.67,0.53-0.45-0.35
			c-0.49-0.39-0.98-0.77-1.47-1.16c-1.14-0.9-2.27-1.82-3.39-2.74c-4.26-3.5-8.4-7.14-12.42-10.9c-8.12-7.59-15.75-15.7-22.9-24.21
			c-1.84-2.19-3.66-4.42-5.44-6.66c-0.4-0.5-0.79-1-1.19-1.51c-0.26-0.34-0.52-0.67-0.79-1.01c0.07,0.09,0.71,0.93,0.19,0.25
			c-0.84-1.11-1.69-2.21-2.52-3.33c-3.61-4.83-7.06-9.77-10.49-14.72c-2.65-3.83-5.35-7.68-7.53-11.81
			c-0.38-0.72-0.72-1.44-1.07-2.17c-0.73-1.54,0.48,1.37,0.11,0.25c-0.13-0.39-0.28-0.77-0.41-1.16c-0.22-0.69-0.37-1.38-0.54-2.08
			c-0.29-1.25,0.16,0.22,0.08,0.75c0.05-0.38-0.07-0.84-0.08-1.22c-0.01-0.6,0.12-1.22,0.09-1.82c0.09,2.21-0.25,1.45-0.03,0.63
			c0.1-0.36,0.18-0.72,0.28-1.07c0.11-0.36,0.27-0.72,0.37-1.08c0.12-0.41-0.84,1.76-0.22,0.53c0.39-0.78,0.77-1.54,1.21-2.29
			c0.45-0.77,0.94-1.52,1.45-2.25c0.25-0.37,0.51-0.73,0.77-1.09c0.18-0.25,1.21-1.66,0.55-0.76c-0.65,0.9,0.44-0.55,0.67-0.83
			c0.34-0.42,0.68-0.83,1.02-1.24c0.87-1.05,1.76-2.08,2.65-3.1c8.07-9.24,16.64-17.94,20.36-29.97c3.66-11.82,1.2-24-3.99-34.92
			c-2.9-6.11-5.84-12.17-8.49-18.39c-0.15-0.35-0.3-0.71-0.45-1.06c0.13,0.31,0.45,1.07-0.14-0.34c-0.3-0.71-0.59-1.42-0.89-2.13
			c-0.69-1.66-1.37-3.32-2.05-4.98c-1.26-3.09-2.51-6.19-3.76-9.28c-2.7-6.67-5.43-13.32-8.34-19.9c-2.06-4.67-4.82-8.87-8.23-12.67
			c-12.98-14.49-35.64-21.26-54.18-14.55c-10.16,3.68-18.42,11.21-26.04,18.67c-7.6,7.44-14.47,15.84-19.77,25.08
			c-5.3,9.25-9.14,19.48-10.77,30.03c-1.85,11.93-1.12,23.76,0.18,35.71c2.64,24.36,8.36,48.36,19.68,70.23
			c5.9,11.41,13.53,21.41,21.6,31.34c8.33,10.26,16.65,20.54,25.1,30.71c16.85,20.28,34.24,40.18,53.19,58.54
			c18.22,17.64,38.12,33.37,59.98,46.26c20.67,12.19,42.81,21.95,65.61,29.37c10.83,3.52,21.85,6.5,32.97,8.95
			c5.55,1.22,11.13,2.31,16.73,3.26c5.94,1.01,11.85,2.09,17.89,1.95c21.51-0.51,43.16-6.02,61.62-17.26
			c16.07-9.78,30.01-24.01,37.75-41.31c3.87-8.66,6.25-17.55,7.15-27c0.37-3.92-3.72-7.67-7.5-7.5
			C738.92,642.61,736.21,645.71,735.81,649.91z"/>
	</g>
</g>
</svg>
